<?xml version="1.0" encoding="utf-8" standalone="no"?>
<!DOCTYPE svg PUBLIC "-//W3C//DTD SVG 1.1//EN"
  "http://www.w3.org/Graphics/SVG/1.1/DTD/svg11.dtd">
<!-- Created with matplotlib (https://matplotlib.org/) -->
<svg height="576pt" version="1.1" viewBox="0 0 720 576" width="720pt" xmlns="http://www.w3.org/2000/svg" xmlns:xlink="http://www.w3.org/1999/xlink">
 <defs>
  <style type="text/css">
*{stroke-linecap:butt;stroke-linejoin:round;}
  </style>
 </defs>
 <g id="figure_1">
  <g id="patch_1">
   <path d="M 0 576 
L 720 576 
L 720 0 
L 0 0 
z
" style="fill:#ffffff;"/>
  </g>
  <g id="axes_1">
   <g id="patch_2">
    <path d="M 90 270.72 
L 648 270.72 
L 648 69.12 
L 90 69.12 
z
" style="fill:#ffffff;"/>
   </g>
   <g id="matplotlib.axis_1">
    <g id="xtick_1">
     <g id="line2d_1">
      <defs>
       <path d="M 0 0 
L 0 3.5 
" id="m57aa9f610c" style="stroke:#000000;stroke-width:0.8;"/>
      </defs>
      <g>
       <use style="stroke:#000000;stroke-width:0.8;" x="90" xlink:href="#m57aa9f610c" y="270.72"/>
      </g>
     </g>
     <g id="text_1">
      <!-- 0 -->
      <defs>
       <path d="M 31.78125 66.40625 
Q 24.171875 66.40625 20.328125 58.90625 
Q 16.5 51.421875 16.5 36.375 
Q 16.5 21.390625 20.328125 13.890625 
Q 24.171875 6.390625 31.78125 6.390625 
Q 39.453125 6.390625 43.28125 13.890625 
Q 47.125 21.390625 47.125 36.375 
Q 47.125 51.421875 43.28125 58.90625 
Q 39.453125 66.40625 31.78125 66.40625 
z
M 31.78125 74.21875 
Q 44.046875 74.21875 50.515625 64.515625 
Q 56.984375 54.828125 56.984375 36.375 
Q 56.984375 17.96875 50.515625 8.265625 
Q 44.046875 -1.421875 31.78125 -1.421875 
Q 19.53125 -1.421875 13.0625 8.265625 
Q 6.59375 17.96875 6.59375 36.375 
Q 6.59375 54.828125 13.0625 64.515625 
Q 19.53125 74.21875 31.78125 74.21875 
z
" id="DejaVuSans-48"/>
      </defs>
      <g transform="translate(86.81875 285.318437)scale(0.1 -0.1)">
       <use xlink:href="#DejaVuSans-48"/>
      </g>
     </g>
    </g>
    <g id="xtick_2">
     <g id="line2d_2">
      <g>
       <use style="stroke:#000000;stroke-width:0.8;" x="152" xlink:href="#m57aa9f610c" y="270.72"/>
      </g>
     </g>
     <g id="text_2">
      <!-- 10 -->
      <defs>
       <path d="M 12.40625 8.296875 
L 28.515625 8.296875 
L 28.515625 63.921875 
L 10.984375 60.40625 
L 10.984375 69.390625 
L 28.421875 72.90625 
L 38.28125 72.90625 
L 38.28125 8.296875 
L 54.390625 8.296875 
L 54.390625 0 
L 12.40625 0 
z
" id="DejaVuSans-49"/>
      </defs>
      <g transform="translate(145.6375 285.318437)scale(0.1 -0.1)">
       <use xlink:href="#DejaVuSans-49"/>
       <use x="63.623047" xlink:href="#DejaVuSans-48"/>
      </g>
     </g>
    </g>
    <g id="xtick_3">
     <g id="line2d_3">
      <g>
       <use style="stroke:#000000;stroke-width:0.8;" x="214" xlink:href="#m57aa9f610c" y="270.72"/>
      </g>
     </g>
     <g id="text_3">
      <!-- 20 -->
      <defs>
       <path d="M 19.1875 8.296875 
L 53.609375 8.296875 
L 53.609375 0 
L 7.328125 0 
L 7.328125 8.296875 
Q 12.9375 14.109375 22.625 23.890625 
Q 32.328125 33.6875 34.8125 36.53125 
Q 39.546875 41.84375 41.421875 45.53125 
Q 43.3125 49.21875 43.3125 52.78125 
Q 43.3125 58.59375 39.234375 62.25 
Q 35.15625 65.921875 28.609375 65.921875 
Q 23.96875 65.921875 18.8125 64.3125 
Q 13.671875 62.703125 7.8125 59.421875 
L 7.8125 69.390625 
Q 13.765625 71.78125 18.9375 73 
Q 24.125 74.21875 28.421875 74.21875 
Q 39.75 74.21875 46.484375 68.546875 
Q 53.21875 62.890625 53.21875 53.421875 
Q 53.21875 48.921875 51.53125 44.890625 
Q 49.859375 40.875 45.40625 35.40625 
Q 44.1875 33.984375 37.640625 27.21875 
Q 31.109375 20.453125 19.1875 8.296875 
z
" id="DejaVuSans-50"/>
      </defs>
      <g transform="translate(207.6375 285.318437)scale(0.1 -0.1)">
       <use xlink:href="#DejaVuSans-50"/>
       <use x="63.623047" xlink:href="#DejaVuSans-48"/>
      </g>
     </g>
    </g>
    <g id="xtick_4">
     <g id="line2d_4">
      <g>
       <use style="stroke:#000000;stroke-width:0.8;" x="276" xlink:href="#m57aa9f610c" y="270.72"/>
      </g>
     </g>
     <g id="text_4">
      <!-- 30 -->
      <defs>
       <path d="M 40.578125 39.3125 
Q 47.65625 37.796875 51.625 33 
Q 55.609375 28.21875 55.609375 21.1875 
Q 55.609375 10.40625 48.1875 4.484375 
Q 40.765625 -1.421875 27.09375 -1.421875 
Q 22.515625 -1.421875 17.65625 -0.515625 
Q 12.796875 0.390625 7.625 2.203125 
L 7.625 11.71875 
Q 11.71875 9.328125 16.59375 8.109375 
Q 21.484375 6.890625 26.8125 6.890625 
Q 36.078125 6.890625 40.9375 10.546875 
Q 45.796875 14.203125 45.796875 21.1875 
Q 45.796875 27.640625 41.28125 31.265625 
Q 36.765625 34.90625 28.71875 34.90625 
L 20.21875 34.90625 
L 20.21875 43.015625 
L 29.109375 43.015625 
Q 36.375 43.015625 40.234375 45.921875 
Q 44.09375 48.828125 44.09375 54.296875 
Q 44.09375 59.90625 40.109375 62.90625 
Q 36.140625 65.921875 28.71875 65.921875 
Q 24.65625 65.921875 20.015625 65.03125 
Q 15.375 64.15625 9.8125 62.3125 
L 9.8125 71.09375 
Q 15.4375 72.65625 20.34375 73.4375 
Q 25.25 74.21875 29.59375 74.21875 
Q 40.828125 74.21875 47.359375 69.109375 
Q 53.90625 64.015625 53.90625 55.328125 
Q 53.90625 49.265625 50.4375 45.09375 
Q 46.96875 40.921875 40.578125 39.3125 
z
" id="DejaVuSans-51"/>
      </defs>
      <g transform="translate(269.6375 285.318437)scale(0.1 -0.1)">
       <use xlink:href="#DejaVuSans-51"/>
       <use x="63.623047" xlink:href="#DejaVuSans-48"/>
      </g>
     </g>
    </g>
    <g id="xtick_5">
     <g id="line2d_5">
      <g>
       <use style="stroke:#000000;stroke-width:0.8;" x="338" xlink:href="#m57aa9f610c" y="270.72"/>
      </g>
     </g>
     <g id="text_5">
      <!-- 40 -->
      <defs>
       <path d="M 37.796875 64.3125 
L 12.890625 25.390625 
L 37.796875 25.390625 
z
M 35.203125 72.90625 
L 47.609375 72.90625 
L 47.609375 25.390625 
L 58.015625 25.390625 
L 58.015625 17.1875 
L 47.609375 17.1875 
L 47.609375 0 
L 37.796875 0 
L 37.796875 17.1875 
L 4.890625 17.1875 
L 4.890625 26.703125 
z
" id="DejaVuSans-52"/>
      </defs>
      <g transform="translate(331.6375 285.318437)scale(0.1 -0.1)">
       <use xlink:href="#DejaVuSans-52"/>
       <use x="63.623047" xlink:href="#DejaVuSans-48"/>
      </g>
     </g>
    </g>
    <g id="xtick_6">
     <g id="line2d_6">
      <g>
       <use style="stroke:#000000;stroke-width:0.8;" x="400" xlink:href="#m57aa9f610c" y="270.72"/>
      </g>
     </g>
     <g id="text_6">
      <!-- 50 -->
      <defs>
       <path d="M 10.796875 72.90625 
L 49.515625 72.90625 
L 49.515625 64.59375 
L 19.828125 64.59375 
L 19.828125 46.734375 
Q 21.96875 47.46875 24.109375 47.828125 
Q 26.265625 48.1875 28.421875 48.1875 
Q 40.625 48.1875 47.75 41.5 
Q 54.890625 34.8125 54.890625 23.390625 
Q 54.890625 11.625 47.5625 5.09375 
Q 40.234375 -1.421875 26.90625 -1.421875 
Q 22.3125 -1.421875 17.546875 -0.640625 
Q 12.796875 0.140625 7.71875 1.703125 
L 7.71875 11.625 
Q 12.109375 9.234375 16.796875 8.0625 
Q 21.484375 6.890625 26.703125 6.890625 
Q 35.15625 6.890625 40.078125 11.328125 
Q 45.015625 15.765625 45.015625 23.390625 
Q 45.015625 31 40.078125 35.4375 
Q 35.15625 39.890625 26.703125 39.890625 
Q 22.75 39.890625 18.8125 39.015625 
Q 14.890625 38.140625 10.796875 36.28125 
z
" id="DejaVuSans-53"/>
      </defs>
      <g transform="translate(393.6375 285.318437)scale(0.1 -0.1)">
       <use xlink:href="#DejaVuSans-53"/>
       <use x="63.623047" xlink:href="#DejaVuSans-48"/>
      </g>
     </g>
    </g>
    <g id="xtick_7">
     <g id="line2d_7">
      <g>
       <use style="stroke:#000000;stroke-width:0.8;" x="462" xlink:href="#m57aa9f610c" y="270.72"/>
      </g>
     </g>
     <g id="text_7">
      <!-- 60 -->
      <defs>
       <path d="M 33.015625 40.375 
Q 26.375 40.375 22.484375 35.828125 
Q 18.609375 31.296875 18.609375 23.390625 
Q 18.609375 15.53125 22.484375 10.953125 
Q 26.375 6.390625 33.015625 6.390625 
Q 39.65625 6.390625 43.53125 10.953125 
Q 47.40625 15.53125 47.40625 23.390625 
Q 47.40625 31.296875 43.53125 35.828125 
Q 39.65625 40.375 33.015625 40.375 
z
M 52.59375 71.296875 
L 52.59375 62.3125 
Q 48.875 64.0625 45.09375 64.984375 
Q 41.3125 65.921875 37.59375 65.921875 
Q 27.828125 65.921875 22.671875 59.328125 
Q 17.53125 52.734375 16.796875 39.40625 
Q 19.671875 43.65625 24.015625 45.921875 
Q 28.375 48.1875 33.59375 48.1875 
Q 44.578125 48.1875 50.953125 41.515625 
Q 57.328125 34.859375 57.328125 23.390625 
Q 57.328125 12.15625 50.6875 5.359375 
Q 44.046875 -1.421875 33.015625 -1.421875 
Q 20.359375 -1.421875 13.671875 8.265625 
Q 6.984375 17.96875 6.984375 36.375 
Q 6.984375 53.65625 15.1875 63.9375 
Q 23.390625 74.21875 37.203125 74.21875 
Q 40.921875 74.21875 44.703125 73.484375 
Q 48.484375 72.75 52.59375 71.296875 
z
" id="DejaVuSans-54"/>
      </defs>
      <g transform="translate(455.6375 285.318437)scale(0.1 -0.1)">
       <use xlink:href="#DejaVuSans-54"/>
       <use x="63.623047" xlink:href="#DejaVuSans-48"/>
      </g>
     </g>
    </g>
    <g id="xtick_8">
     <g id="line2d_8">
      <g>
       <use style="stroke:#000000;stroke-width:0.8;" x="524" xlink:href="#m57aa9f610c" y="270.72"/>
      </g>
     </g>
     <g id="text_8">
      <!-- 70 -->
      <defs>
       <path d="M 8.203125 72.90625 
L 55.078125 72.90625 
L 55.078125 68.703125 
L 28.609375 0 
L 18.3125 0 
L 43.21875 64.59375 
L 8.203125 64.59375 
z
" id="DejaVuSans-55"/>
      </defs>
      <g transform="translate(517.6375 285.318437)scale(0.1 -0.1)">
       <use xlink:href="#DejaVuSans-55"/>
       <use x="63.623047" xlink:href="#DejaVuSans-48"/>
      </g>
     </g>
    </g>
    <g id="xtick_9">
     <g id="line2d_9">
      <g>
       <use style="stroke:#000000;stroke-width:0.8;" x="586" xlink:href="#m57aa9f610c" y="270.72"/>
      </g>
     </g>
     <g id="text_9">
      <!-- 80 -->
      <defs>
       <path d="M 31.78125 34.625 
Q 24.75 34.625 20.71875 30.859375 
Q 16.703125 27.09375 16.703125 20.515625 
Q 16.703125 13.921875 20.71875 10.15625 
Q 24.75 6.390625 31.78125 6.390625 
Q 38.8125 6.390625 42.859375 10.171875 
Q 46.921875 13.96875 46.921875 20.515625 
Q 46.921875 27.09375 42.890625 30.859375 
Q 38.875 34.625 31.78125 34.625 
z
M 21.921875 38.8125 
Q 15.578125 40.375 12.03125 44.71875 
Q 8.5 49.078125 8.5 55.328125 
Q 8.5 64.0625 14.71875 69.140625 
Q 20.953125 74.21875 31.78125 74.21875 
Q 42.671875 74.21875 48.875 69.140625 
Q 55.078125 64.0625 55.078125 55.328125 
Q 55.078125 49.078125 51.53125 44.71875 
Q 48 40.375 41.703125 38.8125 
Q 48.828125 37.15625 52.796875 32.3125 
Q 56.78125 27.484375 56.78125 20.515625 
Q 56.78125 9.90625 50.3125 4.234375 
Q 43.84375 -1.421875 31.78125 -1.421875 
Q 19.734375 -1.421875 13.25 4.234375 
Q 6.78125 9.90625 6.78125 20.515625 
Q 6.78125 27.484375 10.78125 32.3125 
Q 14.796875 37.15625 21.921875 38.8125 
z
M 18.3125 54.390625 
Q 18.3125 48.734375 21.84375 45.5625 
Q 25.390625 42.390625 31.78125 42.390625 
Q 38.140625 42.390625 41.71875 45.5625 
Q 45.3125 48.734375 45.3125 54.390625 
Q 45.3125 60.0625 41.71875 63.234375 
Q 38.140625 66.40625 31.78125 66.40625 
Q 25.390625 66.40625 21.84375 63.234375 
Q 18.3125 60.0625 18.3125 54.390625 
z
" id="DejaVuSans-56"/>
      </defs>
      <g transform="translate(579.6375 285.318437)scale(0.1 -0.1)">
       <use xlink:href="#DejaVuSans-56"/>
       <use x="63.623047" xlink:href="#DejaVuSans-48"/>
      </g>
     </g>
    </g>
    <g id="xtick_10">
     <g id="line2d_10">
      <g>
       <use style="stroke:#000000;stroke-width:0.8;" x="648" xlink:href="#m57aa9f610c" y="270.72"/>
      </g>
     </g>
     <g id="text_10">
      <!-- 90 -->
      <defs>
       <path d="M 10.984375 1.515625 
L 10.984375 10.5 
Q 14.703125 8.734375 18.5 7.8125 
Q 22.3125 6.890625 25.984375 6.890625 
Q 35.75 6.890625 40.890625 13.453125 
Q 46.046875 20.015625 46.78125 33.40625 
Q 43.953125 29.203125 39.59375 26.953125 
Q 35.25 24.703125 29.984375 24.703125 
Q 19.046875 24.703125 12.671875 31.3125 
Q 6.296875 37.9375 6.296875 49.421875 
Q 6.296875 60.640625 12.9375 67.421875 
Q 19.578125 74.21875 30.609375 74.21875 
Q 43.265625 74.21875 49.921875 64.515625 
Q 56.59375 54.828125 56.59375 36.375 
Q 56.59375 19.140625 48.40625 8.859375 
Q 40.234375 -1.421875 26.421875 -1.421875 
Q 22.703125 -1.421875 18.890625 -0.6875 
Q 15.09375 0.046875 10.984375 1.515625 
z
M 30.609375 32.421875 
Q 37.25 32.421875 41.125 36.953125 
Q 45.015625 41.5 45.015625 49.421875 
Q 45.015625 57.28125 41.125 61.84375 
Q 37.25 66.40625 30.609375 66.40625 
Q 23.96875 66.40625 20.09375 61.84375 
Q 16.21875 57.28125 16.21875 49.421875 
Q 16.21875 41.5 20.09375 36.953125 
Q 23.96875 32.421875 30.609375 32.421875 
z
" id="DejaVuSans-57"/>
      </defs>
      <g transform="translate(641.6375 285.318437)scale(0.1 -0.1)">
       <use xlink:href="#DejaVuSans-57"/>
       <use x="63.623047" xlink:href="#DejaVuSans-48"/>
      </g>
     </g>
    </g>
   </g>
   <g id="matplotlib.axis_2">
    <g id="ytick_1">
     <g id="line2d_11">
      <defs>
       <path d="M 0 0 
L -3.5 0 
" id="m641305fc8e" style="stroke:#000000;stroke-width:0.8;"/>
      </defs>
      <g>
       <use style="stroke:#000000;stroke-width:0.8;" x="90" xlink:href="#m641305fc8e" y="260.392418"/>
      </g>
     </g>
     <g id="text_11">
      <!-- $\mathdefault{10^{4}}$ -->
      <g transform="translate(65.4 264.191637)scale(0.1 -0.1)">
       <use transform="translate(0 0.684375)" xlink:href="#DejaVuSans-49"/>
       <use transform="translate(63.623047 0.684375)" xlink:href="#DejaVuSans-48"/>
       <use transform="translate(128.203125 38.965625)scale(0.7)" xlink:href="#DejaVuSans-52"/>
      </g>
     </g>
    </g>
    <g id="ytick_2">
     <g id="line2d_12">
      <g>
       <use style="stroke:#000000;stroke-width:0.8;" x="90" xlink:href="#m641305fc8e" y="153.812726"/>
      </g>
     </g>
     <g id="text_12">
      <!-- $\mathdefault{10^{5}}$ -->
      <g transform="translate(65.4 157.611945)scale(0.1 -0.1)">
       <use transform="translate(0 0.684375)" xlink:href="#DejaVuSans-49"/>
       <use transform="translate(63.623047 0.684375)" xlink:href="#DejaVuSans-48"/>
       <use transform="translate(128.203125 38.965625)scale(0.7)" xlink:href="#DejaVuSans-53"/>
      </g>
     </g>
    </g>
    <g id="ytick_3">
     <g id="line2d_13">
      <defs>
       <path d="M 0 0 
L -2 0 
" id="m0d713f5b39" style="stroke:#000000;stroke-width:0.6;"/>
      </defs>
      <g>
       <use style="stroke:#000000;stroke-width:0.6;" x="90" xlink:href="#m0d713f5b39" y="265.269237"/>
      </g>
     </g>
    </g>
    <g id="ytick_4">
     <g id="line2d_14">
      <g>
       <use style="stroke:#000000;stroke-width:0.6;" x="90" xlink:href="#m0d713f5b39" y="228.308734"/>
      </g>
     </g>
    </g>
    <g id="ytick_5">
     <g id="line2d_15">
      <g>
       <use style="stroke:#000000;stroke-width:0.6;" x="90" xlink:href="#m0d713f5b39" y="209.540982"/>
      </g>
     </g>
    </g>
    <g id="ytick_6">
     <g id="line2d_16">
      <g>
       <use style="stroke:#000000;stroke-width:0.6;" x="90" xlink:href="#m0d713f5b39" y="196.22505"/>
      </g>
     </g>
    </g>
    <g id="ytick_7">
     <g id="line2d_17">
      <g>
       <use style="stroke:#000000;stroke-width:0.6;" x="90" xlink:href="#m0d713f5b39" y="185.89641"/>
      </g>
     </g>
    </g>
    <g id="ytick_8">
     <g id="line2d_18">
      <g>
       <use style="stroke:#000000;stroke-width:0.6;" x="90" xlink:href="#m0d713f5b39" y="177.457298"/>
      </g>
     </g>
    </g>
    <g id="ytick_9">
     <g id="line2d_19">
      <g>
       <use style="stroke:#000000;stroke-width:0.6;" x="90" xlink:href="#m0d713f5b39" y="170.322129"/>
      </g>
     </g>
    </g>
    <g id="ytick_10">
     <g id="line2d_20">
      <g>
       <use style="stroke:#000000;stroke-width:0.6;" x="90" xlink:href="#m0d713f5b39" y="164.141365"/>
      </g>
     </g>
    </g>
    <g id="ytick_11">
     <g id="line2d_21">
      <g>
       <use style="stroke:#000000;stroke-width:0.6;" x="90" xlink:href="#m0d713f5b39" y="158.689545"/>
      </g>
     </g>
    </g>
    <g id="ytick_12">
     <g id="line2d_22">
      <g>
       <use style="stroke:#000000;stroke-width:0.6;" x="90" xlink:href="#m0d713f5b39" y="121.729042"/>
      </g>
     </g>
    </g>
    <g id="ytick_13">
     <g id="line2d_23">
      <g>
       <use style="stroke:#000000;stroke-width:0.6;" x="90" xlink:href="#m0d713f5b39" y="102.96129"/>
      </g>
     </g>
    </g>
    <g id="ytick_14">
     <g id="line2d_24">
      <g>
       <use style="stroke:#000000;stroke-width:0.6;" x="90" xlink:href="#m0d713f5b39" y="89.645358"/>
      </g>
     </g>
    </g>
    <g id="ytick_15">
     <g id="line2d_25">
      <g>
       <use style="stroke:#000000;stroke-width:0.6;" x="90" xlink:href="#m0d713f5b39" y="79.316718"/>
      </g>
     </g>
    </g>
    <g id="ytick_16">
     <g id="line2d_26">
      <g>
       <use style="stroke:#000000;stroke-width:0.6;" x="90" xlink:href="#m0d713f5b39" y="70.877606"/>
      </g>
     </g>
    </g>
   </g>
   <g id="line2d_27">
    <path clip-path="url(#pb2e1af0bbf)" d="M 96.2 78.283636 
L 102.4 81.985176 
L 108.6 118.447031 
L 114.8 120.274652 
L 121 142.386321 
L 127.2 144.083385 
L 133.4 158.735341 
L 139.6 161.526222 
L 145.8 172.030857 
L 152 174.048118 
L 158.2 180.577264 
L 164.4 183.148693 
L 170.6 188.698433 
L 176.8 191.49055 
L 183 194.004186 
L 189.2 194.842259 
L 195.4 194.86248 
L 201.6 200.041786 
L 207.8 202.899074 
L 214 204.455417 
L 220.2 207.976976 
L 226.4 212.123547 
L 232.6 215.309211 
L 238.8 218.786925 
L 245 220.680926 
L 251.2 219.69637 
L 257.4 220.049331 
L 263.6 221.725007 
L 269.8 221.203993 
L 276 222.649602 
L 282.2 220.606402 
L 288.4 218.553892 
L 294.6 222.537098 
L 300.8 226.335596 
L 307 229.0318 
L 313.2 229.286384 
L 319.4 228.077876 
L 325.6 228.589621 
L 331.8 229.878732 
L 338 231.777437 
L 344.2 230.539435 
L 350.4 230.123586 
L 356.6 227.008004 
L 362.8 228.848801 
L 369 259.466739 
" style="fill:none;stroke:#0000ff;stroke-linecap:square;stroke-width:1.5;"/>
    <defs>
     <path d="M 0 3 
C 0.795609 3 1.55874 2.683901 2.12132 2.12132 
C 2.683901 1.55874 3 0.795609 3 0 
C 3 -0.795609 2.683901 -1.55874 2.12132 -2.12132 
C 1.55874 -2.683901 0.795609 -3 0 -3 
C -0.795609 -3 -1.55874 -2.683901 -2.12132 -2.12132 
C -2.683901 -1.55874 -3 -0.795609 -3 0 
C -3 0.795609 -2.683901 1.55874 -2.12132 2.12132 
C -1.55874 2.683901 -0.795609 3 0 3 
z
" id="ma5cc44fcd0" style="stroke:#0000ff;"/>
    </defs>
    <g clip-path="url(#pb2e1af0bbf)">
     <use style="fill:#0000ff;stroke:#0000ff;" x="96.2" xlink:href="#ma5cc44fcd0" y="78.283636"/>
     <use style="fill:#0000ff;stroke:#0000ff;" x="102.4" xlink:href="#ma5cc44fcd0" y="81.985176"/>
     <use style="fill:#0000ff;stroke:#0000ff;" x="108.6" xlink:href="#ma5cc44fcd0" y="118.447031"/>
     <use style="fill:#0000ff;stroke:#0000ff;" x="114.8" xlink:href="#ma5cc44fcd0" y="120.274652"/>
     <use style="fill:#0000ff;stroke:#0000ff;" x="121" xlink:href="#ma5cc44fcd0" y="142.386321"/>
     <use style="fill:#0000ff;stroke:#0000ff;" x="127.2" xlink:href="#ma5cc44fcd0" y="144.083385"/>
     <use style="fill:#0000ff;stroke:#0000ff;" x="133.4" xlink:href="#ma5cc44fcd0" y="158.735341"/>
     <use style="fill:#0000ff;stroke:#0000ff;" x="139.6" xlink:href="#ma5cc44fcd0" y="161.526222"/>
     <use style="fill:#0000ff;stroke:#0000ff;" x="145.8" xlink:href="#ma5cc44fcd0" y="172.030857"/>
     <use style="fill:#0000ff;stroke:#0000ff;" x="152" xlink:href="#ma5cc44fcd0" y="174.048118"/>
     <use style="fill:#0000ff;stroke:#0000ff;" x="158.2" xlink:href="#ma5cc44fcd0" y="180.577264"/>
     <use style="fill:#0000ff;stroke:#0000ff;" x="164.4" xlink:href="#ma5cc44fcd0" y="183.148693"/>
     <use style="fill:#0000ff;stroke:#0000ff;" x="170.6" xlink:href="#ma5cc44fcd0" y="188.698433"/>
     <use style="fill:#0000ff;stroke:#0000ff;" x="176.8" xlink:href="#ma5cc44fcd0" y="191.49055"/>
     <use style="fill:#0000ff;stroke:#0000ff;" x="183" xlink:href="#ma5cc44fcd0" y="194.004186"/>
     <use style="fill:#0000ff;stroke:#0000ff;" x="189.2" xlink:href="#ma5cc44fcd0" y="194.842259"/>
     <use style="fill:#0000ff;stroke:#0000ff;" x="195.4" xlink:href="#ma5cc44fcd0" y="194.86248"/>
     <use style="fill:#0000ff;stroke:#0000ff;" x="201.6" xlink:href="#ma5cc44fcd0" y="200.041786"/>
     <use style="fill:#0000ff;stroke:#0000ff;" x="207.8" xlink:href="#ma5cc44fcd0" y="202.899074"/>
     <use style="fill:#0000ff;stroke:#0000ff;" x="214" xlink:href="#ma5cc44fcd0" y="204.455417"/>
     <use style="fill:#0000ff;stroke:#0000ff;" x="220.2" xlink:href="#ma5cc44fcd0" y="207.976976"/>
     <use style="fill:#0000ff;stroke:#0000ff;" x="226.4" xlink:href="#ma5cc44fcd0" y="212.123547"/>
     <use style="fill:#0000ff;stroke:#0000ff;" x="232.6" xlink:href="#ma5cc44fcd0" y="215.309211"/>
     <use style="fill:#0000ff;stroke:#0000ff;" x="238.8" xlink:href="#ma5cc44fcd0" y="218.786925"/>
     <use style="fill:#0000ff;stroke:#0000ff;" x="245" xlink:href="#ma5cc44fcd0" y="220.680926"/>
     <use style="fill:#0000ff;stroke:#0000ff;" x="251.2" xlink:href="#ma5cc44fcd0" y="219.69637"/>
     <use style="fill:#0000ff;stroke:#0000ff;" x="257.4" xlink:href="#ma5cc44fcd0" y="220.049331"/>
     <use style="fill:#0000ff;stroke:#0000ff;" x="263.6" xlink:href="#ma5cc44fcd0" y="221.725007"/>
     <use style="fill:#0000ff;stroke:#0000ff;" x="269.8" xlink:href="#ma5cc44fcd0" y="221.203993"/>
     <use style="fill:#0000ff;stroke:#0000ff;" x="276" xlink:href="#ma5cc44fcd0" y="222.649602"/>
     <use style="fill:#0000ff;stroke:#0000ff;" x="282.2" xlink:href="#ma5cc44fcd0" y="220.606402"/>
     <use style="fill:#0000ff;stroke:#0000ff;" x="288.4" xlink:href="#ma5cc44fcd0" y="218.553892"/>
     <use style="fill:#0000ff;stroke:#0000ff;" x="294.6" xlink:href="#ma5cc44fcd0" y="222.537098"/>
     <use style="fill:#0000ff;stroke:#0000ff;" x="300.8" xlink:href="#ma5cc44fcd0" y="226.335596"/>
     <use style="fill:#0000ff;stroke:#0000ff;" x="307" xlink:href="#ma5cc44fcd0" y="229.0318"/>
     <use style="fill:#0000ff;stroke:#0000ff;" x="313.2" xlink:href="#ma5cc44fcd0" y="229.286384"/>
     <use style="fill:#0000ff;stroke:#0000ff;" x="319.4" xlink:href="#ma5cc44fcd0" y="228.077876"/>
     <use style="fill:#0000ff;stroke:#0000ff;" x="325.6" xlink:href="#ma5cc44fcd0" y="228.589621"/>
     <use style="fill:#0000ff;stroke:#0000ff;" x="331.8" xlink:href="#ma5cc44fcd0" y="229.878732"/>
     <use style="fill:#0000ff;stroke:#0000ff;" x="338" xlink:href="#ma5cc44fcd0" y="231.777437"/>
     <use style="fill:#0000ff;stroke:#0000ff;" x="344.2" xlink:href="#ma5cc44fcd0" y="230.539435"/>
     <use style="fill:#0000ff;stroke:#0000ff;" x="350.4" xlink:href="#ma5cc44fcd0" y="230.123586"/>
     <use style="fill:#0000ff;stroke:#0000ff;" x="356.6" xlink:href="#ma5cc44fcd0" y="227.008004"/>
     <use style="fill:#0000ff;stroke:#0000ff;" x="362.8" xlink:href="#ma5cc44fcd0" y="228.848801"/>
     <use style="fill:#0000ff;stroke:#0000ff;" x="369" xlink:href="#ma5cc44fcd0" y="259.466739"/>
    </g>
   </g>
   <g id="line2d_28">
    <path clip-path="url(#pb2e1af0bbf)" d="M 96.2 78.778641 
L 102.4 81.283635 
L 108.6 116.204446 
L 114.8 125.623657 
L 121 138.99747 
L 127.2 147.351084 
L 133.4 155.614144 
L 139.6 162.282948 
L 145.8 168.397314 
L 152 173.753678 
L 158.2 178.623759 
L 164.4 183.017871 
L 170.6 187.032456 
L 176.8 190.701998 
L 183 194.073582 
L 189.2 197.176471 
L 195.4 200.039413 
L 201.6 202.68447 
L 207.8 205.131519 
L 214 207.397163 
L 220.2 209.496113 
L 226.4 211.441126 
L 232.6 213.243536 
L 238.8 214.913362 
L 245 216.459561 
L 251.2 217.890135 
L 257.4 219.212277 
L 263.6 220.432454 
L 269.8 221.556491 
L 276 222.589641 
L 282.2 223.536639 
L 288.4 224.401748 
L 294.6 225.188804 
L 300.8 225.901245 
L 307 226.542145 
L 313.2 227.114238 
L 319.4 227.619938 
L 325.6 228.061361 
L 331.8 228.440338 
L 338 228.758432 
L 344.2 229.016946 
L 350.4 229.216933 
L 356.6 229.359205 
L 362.8 229.444339 
L 369 261.556364 
" style="fill:none;stroke:#ff0000;stroke-linecap:square;stroke-width:1.5;"/>
    <defs>
     <path d="M 0 3 
C 0.795609 3 1.55874 2.683901 2.12132 2.12132 
C 2.683901 1.55874 3 0.795609 3 0 
C 3 -0.795609 2.683901 -1.55874 2.12132 -2.12132 
C 1.55874 -2.683901 0.795609 -3 0 -3 
C -0.795609 -3 -1.55874 -2.683901 -2.12132 -2.12132 
C -2.683901 -1.55874 -3 -0.795609 -3 0 
C -3 0.795609 -2.683901 1.55874 -2.12132 2.12132 
C -1.55874 2.683901 -0.795609 3 0 3 
z
" id="mc29bf78615" style="stroke:#ff0000;"/>
    </defs>
    <g clip-path="url(#pb2e1af0bbf)">
     <use style="fill:#ff0000;stroke:#ff0000;" x="96.2" xlink:href="#mc29bf78615" y="78.778641"/>
     <use style="fill:#ff0000;stroke:#ff0000;" x="102.4" xlink:href="#mc29bf78615" y="81.283635"/>
     <use style="fill:#ff0000;stroke:#ff0000;" x="108.6" xlink:href="#mc29bf78615" y="116.204446"/>
     <use style="fill:#ff0000;stroke:#ff0000;" x="114.8" xlink:href="#mc29bf78615" y="125.623657"/>
     <use style="fill:#ff0000;stroke:#ff0000;" x="121" xlink:href="#mc29bf78615" y="138.99747"/>
     <use style="fill:#ff0000;stroke:#ff0000;" x="127.2" xlink:href="#mc29bf78615" y="147.351084"/>
     <use style="fill:#ff0000;stroke:#ff0000;" x="133.4" xlink:href="#mc29bf78615" y="155.614144"/>
     <use style="fill:#ff0000;stroke:#ff0000;" x="139.6" xlink:href="#mc29bf78615" y="162.282948"/>
     <use style="fill:#ff0000;stroke:#ff0000;" x="145.8" xlink:href="#mc29bf78615" y="168.397314"/>
     <use style="fill:#ff0000;stroke:#ff0000;" x="152" xlink:href="#mc29bf78615" y="173.753678"/>
     <use style="fill:#ff0000;stroke:#ff0000;" x="158.2" xlink:href="#mc29bf78615" y="178.623759"/>
     <use style="fill:#ff0000;stroke:#ff0000;" x="164.4" xlink:href="#mc29bf78615" y="183.017871"/>
     <use style="fill:#ff0000;stroke:#ff0000;" x="170.6" xlink:href="#mc29bf78615" y="187.032456"/>
     <use style="fill:#ff0000;stroke:#ff0000;" x="176.8" xlink:href="#mc29bf78615" y="190.701998"/>
     <use style="fill:#ff0000;stroke:#ff0000;" x="183" xlink:href="#mc29bf78615" y="194.073582"/>
     <use style="fill:#ff0000;stroke:#ff0000;" x="189.2" xlink:href="#mc29bf78615" y="197.176471"/>
     <use style="fill:#ff0000;stroke:#ff0000;" x="195.4" xlink:href="#mc29bf78615" y="200.039413"/>
     <use style="fill:#ff0000;stroke:#ff0000;" x="201.6" xlink:href="#mc29bf78615" y="202.68447"/>
     <use style="fill:#ff0000;stroke:#ff0000;" x="207.8" xlink:href="#mc29bf78615" y="205.131519"/>
     <use style="fill:#ff0000;stroke:#ff0000;" x="214" xlink:href="#mc29bf78615" y="207.397163"/>
     <use style="fill:#ff0000;stroke:#ff0000;" x="220.2" xlink:href="#mc29bf78615" y="209.496113"/>
     <use style="fill:#ff0000;stroke:#ff0000;" x="226.4" xlink:href="#mc29bf78615" y="211.441126"/>
     <use style="fill:#ff0000;stroke:#ff0000;" x="232.6" xlink:href="#mc29bf78615" y="213.243536"/>
     <use style="fill:#ff0000;stroke:#ff0000;" x="238.8" xlink:href="#mc29bf78615" y="214.913362"/>
     <use style="fill:#ff0000;stroke:#ff0000;" x="245" xlink:href="#mc29bf78615" y="216.459561"/>
     <use style="fill:#ff0000;stroke:#ff0000;" x="251.2" xlink:href="#mc29bf78615" y="217.890135"/>
     <use style="fill:#ff0000;stroke:#ff0000;" x="257.4" xlink:href="#mc29bf78615" y="219.212277"/>
     <use style="fill:#ff0000;stroke:#ff0000;" x="263.6" xlink:href="#mc29bf78615" y="220.432454"/>
     <use style="fill:#ff0000;stroke:#ff0000;" x="269.8" xlink:href="#mc29bf78615" y="221.556491"/>
     <use style="fill:#ff0000;stroke:#ff0000;" x="276" xlink:href="#mc29bf78615" y="222.589641"/>
     <use style="fill:#ff0000;stroke:#ff0000;" x="282.2" xlink:href="#mc29bf78615" y="223.536639"/>
     <use style="fill:#ff0000;stroke:#ff0000;" x="288.4" xlink:href="#mc29bf78615" y="224.401748"/>
     <use style="fill:#ff0000;stroke:#ff0000;" x="294.6" xlink:href="#mc29bf78615" y="225.188804"/>
     <use style="fill:#ff0000;stroke:#ff0000;" x="300.8" xlink:href="#mc29bf78615" y="225.901245"/>
     <use style="fill:#ff0000;stroke:#ff0000;" x="307" xlink:href="#mc29bf78615" y="226.542145"/>
     <use style="fill:#ff0000;stroke:#ff0000;" x="313.2" xlink:href="#mc29bf78615" y="227.114238"/>
     <use style="fill:#ff0000;stroke:#ff0000;" x="319.4" xlink:href="#mc29bf78615" y="227.619938"/>
     <use style="fill:#ff0000;stroke:#ff0000;" x="325.6" xlink:href="#mc29bf78615" y="228.061361"/>
     <use style="fill:#ff0000;stroke:#ff0000;" x="331.8" xlink:href="#mc29bf78615" y="228.440338"/>
     <use style="fill:#ff0000;stroke:#ff0000;" x="338" xlink:href="#mc29bf78615" y="228.758432"/>
     <use style="fill:#ff0000;stroke:#ff0000;" x="344.2" xlink:href="#mc29bf78615" y="229.016946"/>
     <use style="fill:#ff0000;stroke:#ff0000;" x="350.4" xlink:href="#mc29bf78615" y="229.216933"/>
     <use style="fill:#ff0000;stroke:#ff0000;" x="356.6" xlink:href="#mc29bf78615" y="229.359205"/>
     <use style="fill:#ff0000;stroke:#ff0000;" x="362.8" xlink:href="#mc29bf78615" y="229.444339"/>
     <use style="fill:#ff0000;stroke:#ff0000;" x="369" xlink:href="#mc29bf78615" y="261.556364"/>
    </g>
   </g>
   <g id="patch_3">
    <path d="M 90 270.72 
L 90 69.12 
" style="fill:none;stroke:#000000;stroke-linecap:square;stroke-linejoin:miter;stroke-width:0.8;"/>
   </g>
   <g id="patch_4">
    <path d="M 648 270.72 
L 648 69.12 
" style="fill:none;stroke:#000000;stroke-linecap:square;stroke-linejoin:miter;stroke-width:0.8;"/>
   </g>
   <g id="patch_5">
    <path d="M 90 270.72 
L 648 270.72 
" style="fill:none;stroke:#000000;stroke-linecap:square;stroke-linejoin:miter;stroke-width:0.8;"/>
   </g>
   <g id="patch_6">
    <path d="M 90 69.12 
L 648 69.12 
" style="fill:none;stroke:#000000;stroke-linecap:square;stroke-linejoin:miter;stroke-width:0.8;"/>
   </g>
  </g>
  <g id="axes_2">
   <g id="patch_7">
    <path d="M 90 512.64 
L 648 512.64 
L 648 311.04 
L 90 311.04 
z
" style="fill:#ffffff;"/>
   </g>
   <g id="matplotlib.axis_3">
    <g id="xtick_11">
     <g id="line2d_29">
      <g>
       <use style="stroke:#000000;stroke-width:0.8;" x="90" xlink:href="#m57aa9f610c" y="512.64"/>
      </g>
     </g>
     <g id="text_13">
      <!-- 0 -->
      <g transform="translate(86.81875 527.238438)scale(0.1 -0.1)">
       <use xlink:href="#DejaVuSans-48"/>
      </g>
     </g>
    </g>
    <g id="xtick_12">
     <g id="line2d_30">
      <g>
       <use style="stroke:#000000;stroke-width:0.8;" x="152" xlink:href="#m57aa9f610c" y="512.64"/>
      </g>
     </g>
     <g id="text_14">
      <!-- 10 -->
      <g transform="translate(145.6375 527.238438)scale(0.1 -0.1)">
       <use xlink:href="#DejaVuSans-49"/>
       <use x="63.623047" xlink:href="#DejaVuSans-48"/>
      </g>
     </g>
    </g>
    <g id="xtick_13">
     <g id="line2d_31">
      <g>
       <use style="stroke:#000000;stroke-width:0.8;" x="214" xlink:href="#m57aa9f610c" y="512.64"/>
      </g>
     </g>
     <g id="text_15">
      <!-- 20 -->
      <g transform="translate(207.6375 527.238438)scale(0.1 -0.1)">
       <use xlink:href="#DejaVuSans-50"/>
       <use x="63.623047" xlink:href="#DejaVuSans-48"/>
      </g>
     </g>
    </g>
    <g id="xtick_14">
     <g id="line2d_32">
      <g>
       <use style="stroke:#000000;stroke-width:0.8;" x="276" xlink:href="#m57aa9f610c" y="512.64"/>
      </g>
     </g>
     <g id="text_16">
      <!-- 30 -->
      <g transform="translate(269.6375 527.238438)scale(0.1 -0.1)">
       <use xlink:href="#DejaVuSans-51"/>
       <use x="63.623047" xlink:href="#DejaVuSans-48"/>
      </g>
     </g>
    </g>
    <g id="xtick_15">
     <g id="line2d_33">
      <g>
       <use style="stroke:#000000;stroke-width:0.8;" x="338" xlink:href="#m57aa9f610c" y="512.64"/>
      </g>
     </g>
     <g id="text_17">
      <!-- 40 -->
      <g transform="translate(331.6375 527.238438)scale(0.1 -0.1)">
       <use xlink:href="#DejaVuSans-52"/>
       <use x="63.623047" xlink:href="#DejaVuSans-48"/>
      </g>
     </g>
    </g>
    <g id="xtick_16">
     <g id="line2d_34">
      <g>
       <use style="stroke:#000000;stroke-width:0.8;" x="400" xlink:href="#m57aa9f610c" y="512.64"/>
      </g>
     </g>
     <g id="text_18">
      <!-- 50 -->
      <g transform="translate(393.6375 527.238438)scale(0.1 -0.1)">
       <use xlink:href="#DejaVuSans-53"/>
       <use x="63.623047" xlink:href="#DejaVuSans-48"/>
      </g>
     </g>
    </g>
    <g id="xtick_17">
     <g id="line2d_35">
      <g>
       <use style="stroke:#000000;stroke-width:0.8;" x="462" xlink:href="#m57aa9f610c" y="512.64"/>
      </g>
     </g>
     <g id="text_19">
      <!-- 60 -->
      <g transform="translate(455.6375 527.238438)scale(0.1 -0.1)">
       <use xlink:href="#DejaVuSans-54"/>
       <use x="63.623047" xlink:href="#DejaVuSans-48"/>
      </g>
     </g>
    </g>
    <g id="xtick_18">
     <g id="line2d_36">
      <g>
       <use style="stroke:#000000;stroke-width:0.8;" x="524" xlink:href="#m57aa9f610c" y="512.64"/>
      </g>
     </g>
     <g id="text_20">
      <!-- 70 -->
      <g transform="translate(517.6375 527.238438)scale(0.1 -0.1)">
       <use xlink:href="#DejaVuSans-55"/>
       <use x="63.623047" xlink:href="#DejaVuSans-48"/>
      </g>
     </g>
    </g>
    <g id="xtick_19">
     <g id="line2d_37">
      <g>
       <use style="stroke:#000000;stroke-width:0.8;" x="586" xlink:href="#m57aa9f610c" y="512.64"/>
      </g>
     </g>
     <g id="text_21">
      <!-- 80 -->
      <g transform="translate(579.6375 527.238438)scale(0.1 -0.1)">
       <use xlink:href="#DejaVuSans-56"/>
       <use x="63.623047" xlink:href="#DejaVuSans-48"/>
      </g>
     </g>
    </g>
    <g id="xtick_20">
     <g id="line2d_38">
      <g>
       <use style="stroke:#000000;stroke-width:0.8;" x="648" xlink:href="#m57aa9f610c" y="512.64"/>
      </g>
     </g>
     <g id="text_22">
      <!-- 90 -->
      <g transform="translate(641.6375 527.238438)scale(0.1 -0.1)">
       <use xlink:href="#DejaVuSans-57"/>
       <use x="63.623047" xlink:href="#DejaVuSans-48"/>
      </g>
     </g>
    </g>
   </g>
   <g id="matplotlib.axis_4">
    <g id="ytick_17">
     <g id="line2d_39">
      <g>
       <use style="stroke:#000000;stroke-width:0.8;" x="90" xlink:href="#m641305fc8e" y="505.44"/>
      </g>
     </g>
     <g id="text_23">
      <!-- −150 -->
      <defs>
       <path d="M 10.59375 35.5 
L 73.1875 35.5 
L 73.1875 27.203125 
L 10.59375 27.203125 
z
" id="DejaVuSans-8722"/>
      </defs>
      <g transform="translate(55.532812 509.239219)scale(0.1 -0.1)">
       <use xlink:href="#DejaVuSans-8722"/>
       <use x="83.789062" xlink:href="#DejaVuSans-49"/>
       <use x="147.412109" xlink:href="#DejaVuSans-53"/>
       <use x="211.035156" xlink:href="#DejaVuSans-48"/>
      </g>
     </g>
    </g>
    <g id="ytick_18">
     <g id="line2d_40">
      <g>
       <use style="stroke:#000000;stroke-width:0.8;" x="90" xlink:href="#m641305fc8e" y="469.44"/>
      </g>
     </g>
     <g id="text_24">
      <!-- −100 -->
      <g transform="translate(55.532812 473.239219)scale(0.1 -0.1)">
       <use xlink:href="#DejaVuSans-8722"/>
       <use x="83.789062" xlink:href="#DejaVuSans-49"/>
       <use x="147.412109" xlink:href="#DejaVuSans-48"/>
       <use x="211.035156" xlink:href="#DejaVuSans-48"/>
      </g>
     </g>
    </g>
    <g id="ytick_19">
     <g id="line2d_41">
      <g>
       <use style="stroke:#000000;stroke-width:0.8;" x="90" xlink:href="#m641305fc8e" y="433.44"/>
      </g>
     </g>
     <g id="text_25">
      <!-- −50 -->
      <g transform="translate(61.895313 437.239219)scale(0.1 -0.1)">
       <use xlink:href="#DejaVuSans-8722"/>
       <use x="83.789062" xlink:href="#DejaVuSans-53"/>
       <use x="147.412109" xlink:href="#DejaVuSans-48"/>
      </g>
     </g>
    </g>
    <g id="ytick_20">
     <g id="line2d_42">
      <g>
       <use style="stroke:#000000;stroke-width:0.8;" x="90" xlink:href="#m641305fc8e" y="397.44"/>
      </g>
     </g>
     <g id="text_26">
      <!-- 0 -->
      <g transform="translate(76.6375 401.239219)scale(0.1 -0.1)">
       <use xlink:href="#DejaVuSans-48"/>
      </g>
     </g>
    </g>
    <g id="ytick_21">
     <g id="line2d_43">
      <g>
       <use style="stroke:#000000;stroke-width:0.8;" x="90" xlink:href="#m641305fc8e" y="361.44"/>
      </g>
     </g>
     <g id="text_27">
      <!-- 50 -->
      <g transform="translate(70.275 365.239219)scale(0.1 -0.1)">
       <use xlink:href="#DejaVuSans-53"/>
       <use x="63.623047" xlink:href="#DejaVuSans-48"/>
      </g>
     </g>
    </g>
    <g id="ytick_22">
     <g id="line2d_44">
      <g>
       <use style="stroke:#000000;stroke-width:0.8;" x="90" xlink:href="#m641305fc8e" y="325.44"/>
      </g>
     </g>
     <g id="text_28">
      <!-- 100 -->
      <g transform="translate(63.9125 329.239219)scale(0.1 -0.1)">
       <use xlink:href="#DejaVuSans-49"/>
       <use x="63.623047" xlink:href="#DejaVuSans-48"/>
       <use x="127.246094" xlink:href="#DejaVuSans-48"/>
      </g>
     </g>
    </g>
   </g>
   <g id="line2d_45">
    <path clip-path="url(#p461c2887c0)" d="M 96.2 402.935935 
L 102.4 389.923904 
L 108.6 381.144767 
L 114.8 434.527502 
L 121 378.347017 
L 127.2 415.08776 
L 133.4 382.716232 
L 139.6 400.855426 
L 145.8 382.564596 
L 152 396.274799 
L 158.2 390.19236 
L 164.4 396.97104 
L 170.6 391.78414 
L 176.8 394.850707 
L 183 397.661079 
L 189.2 404.74974 
L 195.4 413.486274 
L 201.6 405.255155 
L 207.8 403.850661 
L 214 405.725727 
L 220.2 401.580019 
L 226.4 395.647578 
L 232.6 392.171551 
L 238.8 387.861802 
L 245 387.200109 
L 251.2 393.050611 
L 257.4 395.420692 
L 263.6 394.372728 
L 269.8 398.276231 
L 276 397.299752 
L 282.2 404.372288 
L 288.4 411.440168 
L 294.6 403.589949 
L 300.8 396.462387 
L 307 391.956556 
L 313.2 392.674517 
L 319.4 396.42843 
L 325.6 396.279229 
L 331.8 394.312773 
L 338 390.972503 
L 344.2 394.152478 
L 350.4 395.477823 
L 356.6 402.641468 
L 362.8 398.739679 
L 369 400.698635 
" style="fill:none;stroke:#008000;stroke-linecap:square;stroke-width:1.5;"/>
    <defs>
     <path d="M 0 3 
C 0.795609 3 1.55874 2.683901 2.12132 2.12132 
C 2.683901 1.55874 3 0.795609 3 0 
C 3 -0.795609 2.683901 -1.55874 2.12132 -2.12132 
C 1.55874 -2.683901 0.795609 -3 0 -3 
C -0.795609 -3 -1.55874 -2.683901 -2.12132 -2.12132 
C -2.683901 -1.55874 -3 -0.795609 -3 0 
C -3 0.795609 -2.683901 1.55874 -2.12132 2.12132 
C -1.55874 2.683901 -0.795609 3 0 3 
z
" id="m8c7ee6e1b7" style="stroke:#008000;"/>
    </defs>
    <g clip-path="url(#p461c2887c0)">
     <use style="fill:#008000;stroke:#008000;" x="96.2" xlink:href="#m8c7ee6e1b7" y="402.935935"/>
     <use style="fill:#008000;stroke:#008000;" x="102.4" xlink:href="#m8c7ee6e1b7" y="389.923904"/>
     <use style="fill:#008000;stroke:#008000;" x="108.6" xlink:href="#m8c7ee6e1b7" y="381.144767"/>
     <use style="fill:#008000;stroke:#008000;" x="114.8" xlink:href="#m8c7ee6e1b7" y="434.527502"/>
     <use style="fill:#008000;stroke:#008000;" x="121" xlink:href="#m8c7ee6e1b7" y="378.347017"/>
     <use style="fill:#008000;stroke:#008000;" x="127.2" xlink:href="#m8c7ee6e1b7" y="415.08776"/>
     <use style="fill:#008000;stroke:#008000;" x="133.4" xlink:href="#m8c7ee6e1b7" y="382.716232"/>
     <use style="fill:#008000;stroke:#008000;" x="139.6" xlink:href="#m8c7ee6e1b7" y="400.855426"/>
     <use style="fill:#008000;stroke:#008000;" x="145.8" xlink:href="#m8c7ee6e1b7" y="382.564596"/>
     <use style="fill:#008000;stroke:#008000;" x="152" xlink:href="#m8c7ee6e1b7" y="396.274799"/>
     <use style="fill:#008000;stroke:#008000;" x="158.2" xlink:href="#m8c7ee6e1b7" y="390.19236"/>
     <use style="fill:#008000;stroke:#008000;" x="164.4" xlink:href="#m8c7ee6e1b7" y="396.97104"/>
     <use style="fill:#008000;stroke:#008000;" x="170.6" xlink:href="#m8c7ee6e1b7" y="391.78414"/>
     <use style="fill:#008000;stroke:#008000;" x="176.8" xlink:href="#m8c7ee6e1b7" y="394.850707"/>
     <use style="fill:#008000;stroke:#008000;" x="183" xlink:href="#m8c7ee6e1b7" y="397.661079"/>
     <use style="fill:#008000;stroke:#008000;" x="189.2" xlink:href="#m8c7ee6e1b7" y="404.74974"/>
     <use style="fill:#008000;stroke:#008000;" x="195.4" xlink:href="#m8c7ee6e1b7" y="413.486274"/>
     <use style="fill:#008000;stroke:#008000;" x="201.6" xlink:href="#m8c7ee6e1b7" y="405.255155"/>
     <use style="fill:#008000;stroke:#008000;" x="207.8" xlink:href="#m8c7ee6e1b7" y="403.850661"/>
     <use style="fill:#008000;stroke:#008000;" x="214" xlink:href="#m8c7ee6e1b7" y="405.725727"/>
     <use style="fill:#008000;stroke:#008000;" x="220.2" xlink:href="#m8c7ee6e1b7" y="401.580019"/>
     <use style="fill:#008000;stroke:#008000;" x="226.4" xlink:href="#m8c7ee6e1b7" y="395.647578"/>
     <use style="fill:#008000;stroke:#008000;" x="232.6" xlink:href="#m8c7ee6e1b7" y="392.171551"/>
     <use style="fill:#008000;stroke:#008000;" x="238.8" xlink:href="#m8c7ee6e1b7" y="387.861802"/>
     <use style="fill:#008000;stroke:#008000;" x="245" xlink:href="#m8c7ee6e1b7" y="387.200109"/>
     <use style="fill:#008000;stroke:#008000;" x="251.2" xlink:href="#m8c7ee6e1b7" y="393.050611"/>
     <use style="fill:#008000;stroke:#008000;" x="257.4" xlink:href="#m8c7ee6e1b7" y="395.420692"/>
     <use style="fill:#008000;stroke:#008000;" x="263.6" xlink:href="#m8c7ee6e1b7" y="394.372728"/>
     <use style="fill:#008000;stroke:#008000;" x="269.8" xlink:href="#m8c7ee6e1b7" y="398.276231"/>
     <use style="fill:#008000;stroke:#008000;" x="276" xlink:href="#m8c7ee6e1b7" y="397.299752"/>
     <use style="fill:#008000;stroke:#008000;" x="282.2" xlink:href="#m8c7ee6e1b7" y="404.372288"/>
     <use style="fill:#008000;stroke:#008000;" x="288.4" xlink:href="#m8c7ee6e1b7" y="411.440168"/>
     <use style="fill:#008000;stroke:#008000;" x="294.6" xlink:href="#m8c7ee6e1b7" y="403.589949"/>
     <use style="fill:#008000;stroke:#008000;" x="300.8" xlink:href="#m8c7ee6e1b7" y="396.462387"/>
     <use style="fill:#008000;stroke:#008000;" x="307" xlink:href="#m8c7ee6e1b7" y="391.956556"/>
     <use style="fill:#008000;stroke:#008000;" x="313.2" xlink:href="#m8c7ee6e1b7" y="392.674517"/>
     <use style="fill:#008000;stroke:#008000;" x="319.4" xlink:href="#m8c7ee6e1b7" y="396.42843"/>
     <use style="fill:#008000;stroke:#008000;" x="325.6" xlink:href="#m8c7ee6e1b7" y="396.279229"/>
     <use style="fill:#008000;stroke:#008000;" x="331.8" xlink:href="#m8c7ee6e1b7" y="394.312773"/>
     <use style="fill:#008000;stroke:#008000;" x="338" xlink:href="#m8c7ee6e1b7" y="390.972503"/>
     <use style="fill:#008000;stroke:#008000;" x="344.2" xlink:href="#m8c7ee6e1b7" y="394.152478"/>
     <use style="fill:#008000;stroke:#008000;" x="350.4" xlink:href="#m8c7ee6e1b7" y="395.477823"/>
     <use style="fill:#008000;stroke:#008000;" x="356.6" xlink:href="#m8c7ee6e1b7" y="402.641468"/>
     <use style="fill:#008000;stroke:#008000;" x="362.8" xlink:href="#m8c7ee6e1b7" y="398.739679"/>
     <use style="fill:#008000;stroke:#008000;" x="369" xlink:href="#m8c7ee6e1b7" y="400.698635"/>
    </g>
   </g>
   <g id="patch_8">
    <path d="M 90 512.64 
L 90 311.04 
" style="fill:none;stroke:#000000;stroke-linecap:square;stroke-linejoin:miter;stroke-width:0.8;"/>
   </g>
   <g id="patch_9">
    <path d="M 648 512.64 
L 648 311.04 
" style="fill:none;stroke:#000000;stroke-linecap:square;stroke-linejoin:miter;stroke-width:0.8;"/>
   </g>
   <g id="patch_10">
    <path d="M 90 512.64 
L 648 512.64 
" style="fill:none;stroke:#000000;stroke-linecap:square;stroke-linejoin:miter;stroke-width:0.8;"/>
   </g>
   <g id="patch_11">
    <path d="M 90 311.04 
L 648 311.04 
" style="fill:none;stroke:#000000;stroke-linecap:square;stroke-linejoin:miter;stroke-width:0.8;"/>
   </g>
  </g>
 </g>
 <defs>
  <clipPath id="pb2e1af0bbf">
   <rect height="201.6" width="558" x="90" y="69.12"/>
  </clipPath>
  <clipPath id="p461c2887c0">
   <rect height="201.6" width="558" x="90" y="311.04"/>
  </clipPath>
 </defs>
</svg>
