<?xml version="1.0" encoding="utf-8" standalone="no"?>
<!DOCTYPE svg PUBLIC "-//W3C//DTD SVG 1.1//EN"
  "http://www.w3.org/Graphics/SVG/1.1/DTD/svg11.dtd">
<!-- Created with matplotlib (https://matplotlib.org/) -->
<svg height="345.6pt" version="1.1" viewBox="0 0 460.8 345.6" width="460.8pt" xmlns="http://www.w3.org/2000/svg" xmlns:xlink="http://www.w3.org/1999/xlink">
 <defs>
  <style type="text/css">
*{stroke-linecap:butt;stroke-linejoin:round;}
  </style>
 </defs>
 <g id="figure_1">
  <g id="patch_1">
   <path d="M 0 345.6 
L 460.8 345.6 
L 460.8 0 
L 0 0 
z
" style="fill:#ffffff;"/>
  </g>
  <g id="axes_1">
   <g id="patch_2">
    <path d="M 57.6 307.584 
L 414.72 307.584 
L 414.72 41.472 
L 57.6 41.472 
z
" style="fill:#ffffff;"/>
   </g>
   <g id="matplotlib.axis_1">
    <g id="xtick_1">
     <g id="line2d_1">
      <defs>
       <path d="M 0 0 
L 0 3.5 
" id="m6829634f38" style="stroke:#000000;stroke-width:0.8;"/>
      </defs>
      <g>
       <use style="stroke:#000000;stroke-width:0.8;" x="67.069091" xlink:href="#m6829634f38" y="307.584"/>
      </g>
     </g>
     <g id="text_1">
      <!-- 0 -->
      <defs>
       <path d="M 31.78125 66.40625 
Q 24.171875 66.40625 20.328125 58.90625 
Q 16.5 51.421875 16.5 36.375 
Q 16.5 21.390625 20.328125 13.890625 
Q 24.171875 6.390625 31.78125 6.390625 
Q 39.453125 6.390625 43.28125 13.890625 
Q 47.125 21.390625 47.125 36.375 
Q 47.125 51.421875 43.28125 58.90625 
Q 39.453125 66.40625 31.78125 66.40625 
z
M 31.78125 74.21875 
Q 44.046875 74.21875 50.515625 64.515625 
Q 56.984375 54.828125 56.984375 36.375 
Q 56.984375 17.96875 50.515625 8.265625 
Q 44.046875 -1.421875 31.78125 -1.421875 
Q 19.53125 -1.421875 13.0625 8.265625 
Q 6.59375 17.96875 6.59375 36.375 
Q 6.59375 54.828125 13.0625 64.515625 
Q 19.53125 74.21875 31.78125 74.21875 
z
" id="DejaVuSans-48"/>
      </defs>
      <g transform="translate(63.887841 322.182437)scale(0.1 -0.1)">
       <use xlink:href="#DejaVuSans-48"/>
      </g>
     </g>
    </g>
    <g id="xtick_2">
     <g id="line2d_2">
      <g>
       <use style="stroke:#000000;stroke-width:0.8;" x="134.705455" xlink:href="#m6829634f38" y="307.584"/>
      </g>
     </g>
     <g id="text_2">
      <!-- 10 -->
      <defs>
       <path d="M 12.40625 8.296875 
L 28.515625 8.296875 
L 28.515625 63.921875 
L 10.984375 60.40625 
L 10.984375 69.390625 
L 28.421875 72.90625 
L 38.28125 72.90625 
L 38.28125 8.296875 
L 54.390625 8.296875 
L 54.390625 0 
L 12.40625 0 
z
" id="DejaVuSans-49"/>
      </defs>
      <g transform="translate(128.342955 322.182437)scale(0.1 -0.1)">
       <use xlink:href="#DejaVuSans-49"/>
       <use x="63.623047" xlink:href="#DejaVuSans-48"/>
      </g>
     </g>
    </g>
    <g id="xtick_3">
     <g id="line2d_3">
      <g>
       <use style="stroke:#000000;stroke-width:0.8;" x="202.341818" xlink:href="#m6829634f38" y="307.584"/>
      </g>
     </g>
     <g id="text_3">
      <!-- 20 -->
      <defs>
       <path d="M 19.1875 8.296875 
L 53.609375 8.296875 
L 53.609375 0 
L 7.328125 0 
L 7.328125 8.296875 
Q 12.9375 14.109375 22.625 23.890625 
Q 32.328125 33.6875 34.8125 36.53125 
Q 39.546875 41.84375 41.421875 45.53125 
Q 43.3125 49.21875 43.3125 52.78125 
Q 43.3125 58.59375 39.234375 62.25 
Q 35.15625 65.921875 28.609375 65.921875 
Q 23.96875 65.921875 18.8125 64.3125 
Q 13.671875 62.703125 7.8125 59.421875 
L 7.8125 69.390625 
Q 13.765625 71.78125 18.9375 73 
Q 24.125 74.21875 28.421875 74.21875 
Q 39.75 74.21875 46.484375 68.546875 
Q 53.21875 62.890625 53.21875 53.421875 
Q 53.21875 48.921875 51.53125 44.890625 
Q 49.859375 40.875 45.40625 35.40625 
Q 44.1875 33.984375 37.640625 27.21875 
Q 31.109375 20.453125 19.1875 8.296875 
z
" id="DejaVuSans-50"/>
      </defs>
      <g transform="translate(195.979318 322.182437)scale(0.1 -0.1)">
       <use xlink:href="#DejaVuSans-50"/>
       <use x="63.623047" xlink:href="#DejaVuSans-48"/>
      </g>
     </g>
    </g>
    <g id="xtick_4">
     <g id="line2d_4">
      <g>
       <use style="stroke:#000000;stroke-width:0.8;" x="269.978182" xlink:href="#m6829634f38" y="307.584"/>
      </g>
     </g>
     <g id="text_4">
      <!-- 30 -->
      <defs>
       <path d="M 40.578125 39.3125 
Q 47.65625 37.796875 51.625 33 
Q 55.609375 28.21875 55.609375 21.1875 
Q 55.609375 10.40625 48.1875 4.484375 
Q 40.765625 -1.421875 27.09375 -1.421875 
Q 22.515625 -1.421875 17.65625 -0.515625 
Q 12.796875 0.390625 7.625 2.203125 
L 7.625 11.71875 
Q 11.71875 9.328125 16.59375 8.109375 
Q 21.484375 6.890625 26.8125 6.890625 
Q 36.078125 6.890625 40.9375 10.546875 
Q 45.796875 14.203125 45.796875 21.1875 
Q 45.796875 27.640625 41.28125 31.265625 
Q 36.765625 34.90625 28.71875 34.90625 
L 20.21875 34.90625 
L 20.21875 43.015625 
L 29.109375 43.015625 
Q 36.375 43.015625 40.234375 45.921875 
Q 44.09375 48.828125 44.09375 54.296875 
Q 44.09375 59.90625 40.109375 62.90625 
Q 36.140625 65.921875 28.71875 65.921875 
Q 24.65625 65.921875 20.015625 65.03125 
Q 15.375 64.15625 9.8125 62.3125 
L 9.8125 71.09375 
Q 15.4375 72.65625 20.34375 73.4375 
Q 25.25 74.21875 29.59375 74.21875 
Q 40.828125 74.21875 47.359375 69.109375 
Q 53.90625 64.015625 53.90625 55.328125 
Q 53.90625 49.265625 50.4375 45.09375 
Q 46.96875 40.921875 40.578125 39.3125 
z
" id="DejaVuSans-51"/>
      </defs>
      <g transform="translate(263.615682 322.182437)scale(0.1 -0.1)">
       <use xlink:href="#DejaVuSans-51"/>
       <use x="63.623047" xlink:href="#DejaVuSans-48"/>
      </g>
     </g>
    </g>
    <g id="xtick_5">
     <g id="line2d_5">
      <g>
       <use style="stroke:#000000;stroke-width:0.8;" x="337.614545" xlink:href="#m6829634f38" y="307.584"/>
      </g>
     </g>
     <g id="text_5">
      <!-- 40 -->
      <defs>
       <path d="M 37.796875 64.3125 
L 12.890625 25.390625 
L 37.796875 25.390625 
z
M 35.203125 72.90625 
L 47.609375 72.90625 
L 47.609375 25.390625 
L 58.015625 25.390625 
L 58.015625 17.1875 
L 47.609375 17.1875 
L 47.609375 0 
L 37.796875 0 
L 37.796875 17.1875 
L 4.890625 17.1875 
L 4.890625 26.703125 
z
" id="DejaVuSans-52"/>
      </defs>
      <g transform="translate(331.252045 322.182437)scale(0.1 -0.1)">
       <use xlink:href="#DejaVuSans-52"/>
       <use x="63.623047" xlink:href="#DejaVuSans-48"/>
      </g>
     </g>
    </g>
    <g id="xtick_6">
     <g id="line2d_6">
      <g>
       <use style="stroke:#000000;stroke-width:0.8;" x="405.250909" xlink:href="#m6829634f38" y="307.584"/>
      </g>
     </g>
     <g id="text_6">
      <!-- 50 -->
      <defs>
       <path d="M 10.796875 72.90625 
L 49.515625 72.90625 
L 49.515625 64.59375 
L 19.828125 64.59375 
L 19.828125 46.734375 
Q 21.96875 47.46875 24.109375 47.828125 
Q 26.265625 48.1875 28.421875 48.1875 
Q 40.625 48.1875 47.75 41.5 
Q 54.890625 34.8125 54.890625 23.390625 
Q 54.890625 11.625 47.5625 5.09375 
Q 40.234375 -1.421875 26.90625 -1.421875 
Q 22.3125 -1.421875 17.546875 -0.640625 
Q 12.796875 0.140625 7.71875 1.703125 
L 7.71875 11.625 
Q 12.109375 9.234375 16.796875 8.0625 
Q 21.484375 6.890625 26.703125 6.890625 
Q 35.15625 6.890625 40.078125 11.328125 
Q 45.015625 15.765625 45.015625 23.390625 
Q 45.015625 31 40.078125 35.4375 
Q 35.15625 39.890625 26.703125 39.890625 
Q 22.75 39.890625 18.8125 39.015625 
Q 14.890625 38.140625 10.796875 36.28125 
z
" id="DejaVuSans-53"/>
      </defs>
      <g transform="translate(398.888409 322.182437)scale(0.1 -0.1)">
       <use xlink:href="#DejaVuSans-53"/>
       <use x="63.623047" xlink:href="#DejaVuSans-48"/>
      </g>
     </g>
    </g>
   </g>
   <g id="matplotlib.axis_2">
    <g id="ytick_1">
     <g id="line2d_7">
      <defs>
       <path d="M 0 0 
L -3.5 0 
" id="m229e378fdd" style="stroke:#000000;stroke-width:0.8;"/>
      </defs>
      <g>
       <use style="stroke:#000000;stroke-width:0.8;" x="57.6" xlink:href="#m229e378fdd" y="302.119492"/>
      </g>
     </g>
     <g id="text_7">
      <!-- 0 -->
      <g transform="translate(44.2375 305.91871)scale(0.1 -0.1)">
       <use xlink:href="#DejaVuSans-48"/>
      </g>
     </g>
    </g>
    <g id="ytick_2">
     <g id="line2d_8">
      <g>
       <use style="stroke:#000000;stroke-width:0.8;" x="57.6" xlink:href="#m229e378fdd" y="264.914503"/>
      </g>
     </g>
     <g id="text_8">
      <!-- 1000 -->
      <g transform="translate(25.15 268.713722)scale(0.1 -0.1)">
       <use xlink:href="#DejaVuSans-49"/>
       <use x="63.623047" xlink:href="#DejaVuSans-48"/>
       <use x="127.246094" xlink:href="#DejaVuSans-48"/>
       <use x="190.869141" xlink:href="#DejaVuSans-48"/>
      </g>
     </g>
    </g>
    <g id="ytick_3">
     <g id="line2d_9">
      <g>
       <use style="stroke:#000000;stroke-width:0.8;" x="57.6" xlink:href="#m229e378fdd" y="227.709514"/>
      </g>
     </g>
     <g id="text_9">
      <!-- 2000 -->
      <g transform="translate(25.15 231.508733)scale(0.1 -0.1)">
       <use xlink:href="#DejaVuSans-50"/>
       <use x="63.623047" xlink:href="#DejaVuSans-48"/>
       <use x="127.246094" xlink:href="#DejaVuSans-48"/>
       <use x="190.869141" xlink:href="#DejaVuSans-48"/>
      </g>
     </g>
    </g>
    <g id="ytick_4">
     <g id="line2d_10">
      <g>
       <use style="stroke:#000000;stroke-width:0.8;" x="57.6" xlink:href="#m229e378fdd" y="190.504525"/>
      </g>
     </g>
     <g id="text_10">
      <!-- 3000 -->
      <g transform="translate(25.15 194.303744)scale(0.1 -0.1)">
       <use xlink:href="#DejaVuSans-51"/>
       <use x="63.623047" xlink:href="#DejaVuSans-48"/>
       <use x="127.246094" xlink:href="#DejaVuSans-48"/>
       <use x="190.869141" xlink:href="#DejaVuSans-48"/>
      </g>
     </g>
    </g>
    <g id="ytick_5">
     <g id="line2d_11">
      <g>
       <use style="stroke:#000000;stroke-width:0.8;" x="57.6" xlink:href="#m229e378fdd" y="153.299537"/>
      </g>
     </g>
     <g id="text_11">
      <!-- 4000 -->
      <g transform="translate(25.15 157.098756)scale(0.1 -0.1)">
       <use xlink:href="#DejaVuSans-52"/>
       <use x="63.623047" xlink:href="#DejaVuSans-48"/>
       <use x="127.246094" xlink:href="#DejaVuSans-48"/>
       <use x="190.869141" xlink:href="#DejaVuSans-48"/>
      </g>
     </g>
    </g>
    <g id="ytick_6">
     <g id="line2d_12">
      <g>
       <use style="stroke:#000000;stroke-width:0.8;" x="57.6" xlink:href="#m229e378fdd" y="116.094548"/>
      </g>
     </g>
     <g id="text_12">
      <!-- 5000 -->
      <g transform="translate(25.15 119.893767)scale(0.1 -0.1)">
       <use xlink:href="#DejaVuSans-53"/>
       <use x="63.623047" xlink:href="#DejaVuSans-48"/>
       <use x="127.246094" xlink:href="#DejaVuSans-48"/>
       <use x="190.869141" xlink:href="#DejaVuSans-48"/>
      </g>
     </g>
    </g>
    <g id="ytick_7">
     <g id="line2d_13">
      <g>
       <use style="stroke:#000000;stroke-width:0.8;" x="57.6" xlink:href="#m229e378fdd" y="78.889559"/>
      </g>
     </g>
     <g id="text_13">
      <!-- 6000 -->
      <defs>
       <path d="M 33.015625 40.375 
Q 26.375 40.375 22.484375 35.828125 
Q 18.609375 31.296875 18.609375 23.390625 
Q 18.609375 15.53125 22.484375 10.953125 
Q 26.375 6.390625 33.015625 6.390625 
Q 39.65625 6.390625 43.53125 10.953125 
Q 47.40625 15.53125 47.40625 23.390625 
Q 47.40625 31.296875 43.53125 35.828125 
Q 39.65625 40.375 33.015625 40.375 
z
M 52.59375 71.296875 
L 52.59375 62.3125 
Q 48.875 64.0625 45.09375 64.984375 
Q 41.3125 65.921875 37.59375 65.921875 
Q 27.828125 65.921875 22.671875 59.328125 
Q 17.53125 52.734375 16.796875 39.40625 
Q 19.671875 43.65625 24.015625 45.921875 
Q 28.375 48.1875 33.59375 48.1875 
Q 44.578125 48.1875 50.953125 41.515625 
Q 57.328125 34.859375 57.328125 23.390625 
Q 57.328125 12.15625 50.6875 5.359375 
Q 44.046875 -1.421875 33.015625 -1.421875 
Q 20.359375 -1.421875 13.671875 8.265625 
Q 6.984375 17.96875 6.984375 36.375 
Q 6.984375 53.65625 15.1875 63.9375 
Q 23.390625 74.21875 37.203125 74.21875 
Q 40.921875 74.21875 44.703125 73.484375 
Q 48.484375 72.75 52.59375 71.296875 
z
" id="DejaVuSans-54"/>
      </defs>
      <g transform="translate(25.15 82.688778)scale(0.1 -0.1)">
       <use xlink:href="#DejaVuSans-54"/>
       <use x="63.623047" xlink:href="#DejaVuSans-48"/>
       <use x="127.246094" xlink:href="#DejaVuSans-48"/>
       <use x="190.869141" xlink:href="#DejaVuSans-48"/>
      </g>
     </g>
    </g>
    <g id="ytick_8">
     <g id="line2d_14">
      <g>
       <use style="stroke:#000000;stroke-width:0.8;" x="57.6" xlink:href="#m229e378fdd" y="41.684571"/>
      </g>
     </g>
     <g id="text_14">
      <!-- 7000 -->
      <defs>
       <path d="M 8.203125 72.90625 
L 55.078125 72.90625 
L 55.078125 68.703125 
L 28.609375 0 
L 18.3125 0 
L 43.21875 64.59375 
L 8.203125 64.59375 
z
" id="DejaVuSans-55"/>
      </defs>
      <g transform="translate(25.15 45.483789)scale(0.1 -0.1)">
       <use xlink:href="#DejaVuSans-55"/>
       <use x="63.623047" xlink:href="#DejaVuSans-48"/>
       <use x="127.246094" xlink:href="#DejaVuSans-48"/>
       <use x="190.869141" xlink:href="#DejaVuSans-48"/>
      </g>
     </g>
    </g>
   </g>
   <g id="line2d_15">
    <path clip-path="url(#p22163ec94a)" d="M 73.832727 53.568 
L 80.596364 182.535336 
L 87.36 226.751334 
L 94.123636 246.715022 
L 100.887273 257.871874 
L 107.650909 264.898529 
L 114.414545 269.702398 
L 121.178182 273.189847 
L 127.941818 275.841192 
L 134.705455 277.932118 
L 141.469091 279.630885 
L 148.232727 281.045346 
L 154.996364 282.247457 
L 161.76 283.286854 
L 168.523636 284.19877 
L 175.287273 285.008831 
L 182.050909 285.736083 
L 188.814545 286.394951 
L 195.578182 286.996548 
L 202.341818 287.54957 
L 209.105455 288.060911 
L 215.869091 288.536112 
L 222.632727 288.979677 
L 229.396364 289.395306 
L 236.16 289.786071 
L 242.923636 290.154546 
L 249.687273 290.502908 
L 256.450909 290.833011 
L 263.214545 291.146451 
L 269.978182 291.444606 
L 276.741818 291.728679 
L 283.505455 291.999725 
L 290.269091 292.258677 
L 297.032727 292.50636 
L 303.796364 292.743515 
L 310.56 292.970804 
L 317.323636 293.188826 
L 324.087273 293.398123 
L 330.850909 293.599188 
L 337.614545 293.792474 
L 344.378182 293.978394 
L 351.141818 294.15733 
L 357.905455 294.329634 
L 364.669091 294.495633 
L 371.432727 294.65563 
L 378.196364 294.809905 
L 384.96 294.958803 
L 391.723636 295.101192 
L 398.487273 295.261286 
" style="fill:none;stroke:#0000ff;stroke-linecap:square;stroke-width:1.5;"/>
    <defs>
     <path d="M 0 3 
C 0.795609 3 1.55874 2.683901 2.12132 2.12132 
C 2.683901 1.55874 3 0.795609 3 0 
C 3 -0.795609 2.683901 -1.55874 2.12132 -2.12132 
C 1.55874 -2.683901 0.795609 -3 0 -3 
C -0.795609 -3 -1.55874 -2.683901 -2.12132 -2.12132 
C -2.683901 -1.55874 -3 -0.795609 -3 0 
C -3 0.795609 -2.683901 1.55874 -2.12132 2.12132 
C -1.55874 2.683901 -0.795609 3 0 3 
z
" id="m5631d55011" style="stroke:#0000ff;"/>
    </defs>
    <g clip-path="url(#p22163ec94a)">
     <use style="fill:#0000ff;stroke:#0000ff;" x="73.832727" xlink:href="#m5631d55011" y="53.568"/>
     <use style="fill:#0000ff;stroke:#0000ff;" x="80.596364" xlink:href="#m5631d55011" y="182.535336"/>
     <use style="fill:#0000ff;stroke:#0000ff;" x="87.36" xlink:href="#m5631d55011" y="226.751334"/>
     <use style="fill:#0000ff;stroke:#0000ff;" x="94.123636" xlink:href="#m5631d55011" y="246.715022"/>
     <use style="fill:#0000ff;stroke:#0000ff;" x="100.887273" xlink:href="#m5631d55011" y="257.871874"/>
     <use style="fill:#0000ff;stroke:#0000ff;" x="107.650909" xlink:href="#m5631d55011" y="264.898529"/>
     <use style="fill:#0000ff;stroke:#0000ff;" x="114.414545" xlink:href="#m5631d55011" y="269.702398"/>
     <use style="fill:#0000ff;stroke:#0000ff;" x="121.178182" xlink:href="#m5631d55011" y="273.189847"/>
     <use style="fill:#0000ff;stroke:#0000ff;" x="127.941818" xlink:href="#m5631d55011" y="275.841192"/>
     <use style="fill:#0000ff;stroke:#0000ff;" x="134.705455" xlink:href="#m5631d55011" y="277.932118"/>
     <use style="fill:#0000ff;stroke:#0000ff;" x="141.469091" xlink:href="#m5631d55011" y="279.630885"/>
     <use style="fill:#0000ff;stroke:#0000ff;" x="148.232727" xlink:href="#m5631d55011" y="281.045346"/>
     <use style="fill:#0000ff;stroke:#0000ff;" x="154.996364" xlink:href="#m5631d55011" y="282.247457"/>
     <use style="fill:#0000ff;stroke:#0000ff;" x="161.76" xlink:href="#m5631d55011" y="283.286854"/>
     <use style="fill:#0000ff;stroke:#0000ff;" x="168.523636" xlink:href="#m5631d55011" y="284.19877"/>
     <use style="fill:#0000ff;stroke:#0000ff;" x="175.287273" xlink:href="#m5631d55011" y="285.008831"/>
     <use style="fill:#0000ff;stroke:#0000ff;" x="182.050909" xlink:href="#m5631d55011" y="285.736083"/>
     <use style="fill:#0000ff;stroke:#0000ff;" x="188.814545" xlink:href="#m5631d55011" y="286.394951"/>
     <use style="fill:#0000ff;stroke:#0000ff;" x="195.578182" xlink:href="#m5631d55011" y="286.996548"/>
     <use style="fill:#0000ff;stroke:#0000ff;" x="202.341818" xlink:href="#m5631d55011" y="287.54957"/>
     <use style="fill:#0000ff;stroke:#0000ff;" x="209.105455" xlink:href="#m5631d55011" y="288.060911"/>
     <use style="fill:#0000ff;stroke:#0000ff;" x="215.869091" xlink:href="#m5631d55011" y="288.536112"/>
     <use style="fill:#0000ff;stroke:#0000ff;" x="222.632727" xlink:href="#m5631d55011" y="288.979677"/>
     <use style="fill:#0000ff;stroke:#0000ff;" x="229.396364" xlink:href="#m5631d55011" y="289.395306"/>
     <use style="fill:#0000ff;stroke:#0000ff;" x="236.16" xlink:href="#m5631d55011" y="289.786071"/>
     <use style="fill:#0000ff;stroke:#0000ff;" x="242.923636" xlink:href="#m5631d55011" y="290.154546"/>
     <use style="fill:#0000ff;stroke:#0000ff;" x="249.687273" xlink:href="#m5631d55011" y="290.502908"/>
     <use style="fill:#0000ff;stroke:#0000ff;" x="256.450909" xlink:href="#m5631d55011" y="290.833011"/>
     <use style="fill:#0000ff;stroke:#0000ff;" x="263.214545" xlink:href="#m5631d55011" y="291.146451"/>
     <use style="fill:#0000ff;stroke:#0000ff;" x="269.978182" xlink:href="#m5631d55011" y="291.444606"/>
     <use style="fill:#0000ff;stroke:#0000ff;" x="276.741818" xlink:href="#m5631d55011" y="291.728679"/>
     <use style="fill:#0000ff;stroke:#0000ff;" x="283.505455" xlink:href="#m5631d55011" y="291.999725"/>
     <use style="fill:#0000ff;stroke:#0000ff;" x="290.269091" xlink:href="#m5631d55011" y="292.258677"/>
     <use style="fill:#0000ff;stroke:#0000ff;" x="297.032727" xlink:href="#m5631d55011" y="292.50636"/>
     <use style="fill:#0000ff;stroke:#0000ff;" x="303.796364" xlink:href="#m5631d55011" y="292.743515"/>
     <use style="fill:#0000ff;stroke:#0000ff;" x="310.56" xlink:href="#m5631d55011" y="292.970804"/>
     <use style="fill:#0000ff;stroke:#0000ff;" x="317.323636" xlink:href="#m5631d55011" y="293.188826"/>
     <use style="fill:#0000ff;stroke:#0000ff;" x="324.087273" xlink:href="#m5631d55011" y="293.398123"/>
     <use style="fill:#0000ff;stroke:#0000ff;" x="330.850909" xlink:href="#m5631d55011" y="293.599188"/>
     <use style="fill:#0000ff;stroke:#0000ff;" x="337.614545" xlink:href="#m5631d55011" y="293.792474"/>
     <use style="fill:#0000ff;stroke:#0000ff;" x="344.378182" xlink:href="#m5631d55011" y="293.978394"/>
     <use style="fill:#0000ff;stroke:#0000ff;" x="351.141818" xlink:href="#m5631d55011" y="294.15733"/>
     <use style="fill:#0000ff;stroke:#0000ff;" x="357.905455" xlink:href="#m5631d55011" y="294.329634"/>
     <use style="fill:#0000ff;stroke:#0000ff;" x="364.669091" xlink:href="#m5631d55011" y="294.495633"/>
     <use style="fill:#0000ff;stroke:#0000ff;" x="371.432727" xlink:href="#m5631d55011" y="294.65563"/>
     <use style="fill:#0000ff;stroke:#0000ff;" x="378.196364" xlink:href="#m5631d55011" y="294.809905"/>
     <use style="fill:#0000ff;stroke:#0000ff;" x="384.96" xlink:href="#m5631d55011" y="294.958803"/>
     <use style="fill:#0000ff;stroke:#0000ff;" x="391.723636" xlink:href="#m5631d55011" y="295.101192"/>
     <use style="fill:#0000ff;stroke:#0000ff;" x="398.487273" xlink:href="#m5631d55011" y="295.261286"/>
    </g>
   </g>
   <g id="line2d_16">
    <path clip-path="url(#p22163ec94a)" d="M 73.832727 63.104971 
L 80.596364 186.891772 
L 87.36 229.789161 
L 94.123636 248.983156 
L 100.887273 259.75362 
L 107.650909 266.578898 
L 114.414545 271.170552 
L 121.178182 274.489318 
L 127.941818 277.052124 
L 134.705455 279.078174 
L 141.469091 280.750516 
L 148.232727 282.123417 
L 154.996364 283.271333 
L 161.76 284.272422 
L 168.523636 285.138941 
L 175.287273 285.949199 
L 182.050909 286.634336 
L 188.814545 287.268146 
L 195.578182 287.834592 
L 202.341818 288.319529 
L 209.105455 288.825665 
L 215.869091 289.257392 
L 222.632727 289.695354 
L 229.396364 290.081326 
L 236.16 290.478787 
L 242.923636 290.808557 
L 249.687273 291.145984 
L 256.450909 291.487258 
L 263.214545 291.761846 
L 269.978182 292.046449 
L 276.741818 292.328976 
L 283.505455 292.567609 
L 290.269091 292.825209 
L 297.032727 293.064854 
L 303.796364 293.252583 
L 310.56 293.444546 
L 317.323636 293.62903 
L 324.087273 293.799712 
L 330.850909 293.972343 
L 337.614545 294.086064 
L 344.378182 294.258435 
L 351.141818 294.398311 
L 357.905455 294.573293 
L 364.669091 294.710334 
L 371.432727 294.822752 
L 378.196364 294.989981 
L 384.96 295.145178 
L 391.723636 295.30013 
L 398.487273 295.488 
" style="fill:none;stroke:#008000;stroke-linecap:square;stroke-width:1.5;"/>
    <defs>
     <path d="M 0 3 
C 0.795609 3 1.55874 2.683901 2.12132 2.12132 
C 2.683901 1.55874 3 0.795609 3 0 
C 3 -0.795609 2.683901 -1.55874 2.12132 -2.12132 
C 1.55874 -2.683901 0.795609 -3 0 -3 
C -0.795609 -3 -1.55874 -2.683901 -2.12132 -2.12132 
C -2.683901 -1.55874 -3 -0.795609 -3 0 
C -3 0.795609 -2.683901 1.55874 -2.12132 2.12132 
C -1.55874 2.683901 -0.795609 3 0 3 
z
" id="m9326f6d192" style="stroke:#008000;"/>
    </defs>
    <g clip-path="url(#p22163ec94a)">
     <use style="fill:#008000;stroke:#008000;" x="73.832727" xlink:href="#m9326f6d192" y="63.104971"/>
     <use style="fill:#008000;stroke:#008000;" x="80.596364" xlink:href="#m9326f6d192" y="186.891772"/>
     <use style="fill:#008000;stroke:#008000;" x="87.36" xlink:href="#m9326f6d192" y="229.789161"/>
     <use style="fill:#008000;stroke:#008000;" x="94.123636" xlink:href="#m9326f6d192" y="248.983156"/>
     <use style="fill:#008000;stroke:#008000;" x="100.887273" xlink:href="#m9326f6d192" y="259.75362"/>
     <use style="fill:#008000;stroke:#008000;" x="107.650909" xlink:href="#m9326f6d192" y="266.578898"/>
     <use style="fill:#008000;stroke:#008000;" x="114.414545" xlink:href="#m9326f6d192" y="271.170552"/>
     <use style="fill:#008000;stroke:#008000;" x="121.178182" xlink:href="#m9326f6d192" y="274.489318"/>
     <use style="fill:#008000;stroke:#008000;" x="127.941818" xlink:href="#m9326f6d192" y="277.052124"/>
     <use style="fill:#008000;stroke:#008000;" x="134.705455" xlink:href="#m9326f6d192" y="279.078174"/>
     <use style="fill:#008000;stroke:#008000;" x="141.469091" xlink:href="#m9326f6d192" y="280.750516"/>
     <use style="fill:#008000;stroke:#008000;" x="148.232727" xlink:href="#m9326f6d192" y="282.123417"/>
     <use style="fill:#008000;stroke:#008000;" x="154.996364" xlink:href="#m9326f6d192" y="283.271333"/>
     <use style="fill:#008000;stroke:#008000;" x="161.76" xlink:href="#m9326f6d192" y="284.272422"/>
     <use style="fill:#008000;stroke:#008000;" x="168.523636" xlink:href="#m9326f6d192" y="285.138941"/>
     <use style="fill:#008000;stroke:#008000;" x="175.287273" xlink:href="#m9326f6d192" y="285.949199"/>
     <use style="fill:#008000;stroke:#008000;" x="182.050909" xlink:href="#m9326f6d192" y="286.634336"/>
     <use style="fill:#008000;stroke:#008000;" x="188.814545" xlink:href="#m9326f6d192" y="287.268146"/>
     <use style="fill:#008000;stroke:#008000;" x="195.578182" xlink:href="#m9326f6d192" y="287.834592"/>
     <use style="fill:#008000;stroke:#008000;" x="202.341818" xlink:href="#m9326f6d192" y="288.319529"/>
     <use style="fill:#008000;stroke:#008000;" x="209.105455" xlink:href="#m9326f6d192" y="288.825665"/>
     <use style="fill:#008000;stroke:#008000;" x="215.869091" xlink:href="#m9326f6d192" y="289.257392"/>
     <use style="fill:#008000;stroke:#008000;" x="222.632727" xlink:href="#m9326f6d192" y="289.695354"/>
     <use style="fill:#008000;stroke:#008000;" x="229.396364" xlink:href="#m9326f6d192" y="290.081326"/>
     <use style="fill:#008000;stroke:#008000;" x="236.16" xlink:href="#m9326f6d192" y="290.478787"/>
     <use style="fill:#008000;stroke:#008000;" x="242.923636" xlink:href="#m9326f6d192" y="290.808557"/>
     <use style="fill:#008000;stroke:#008000;" x="249.687273" xlink:href="#m9326f6d192" y="291.145984"/>
     <use style="fill:#008000;stroke:#008000;" x="256.450909" xlink:href="#m9326f6d192" y="291.487258"/>
     <use style="fill:#008000;stroke:#008000;" x="263.214545" xlink:href="#m9326f6d192" y="291.761846"/>
     <use style="fill:#008000;stroke:#008000;" x="269.978182" xlink:href="#m9326f6d192" y="292.046449"/>
     <use style="fill:#008000;stroke:#008000;" x="276.741818" xlink:href="#m9326f6d192" y="292.328976"/>
     <use style="fill:#008000;stroke:#008000;" x="283.505455" xlink:href="#m9326f6d192" y="292.567609"/>
     <use style="fill:#008000;stroke:#008000;" x="290.269091" xlink:href="#m9326f6d192" y="292.825209"/>
     <use style="fill:#008000;stroke:#008000;" x="297.032727" xlink:href="#m9326f6d192" y="293.064854"/>
     <use style="fill:#008000;stroke:#008000;" x="303.796364" xlink:href="#m9326f6d192" y="293.252583"/>
     <use style="fill:#008000;stroke:#008000;" x="310.56" xlink:href="#m9326f6d192" y="293.444546"/>
     <use style="fill:#008000;stroke:#008000;" x="317.323636" xlink:href="#m9326f6d192" y="293.62903"/>
     <use style="fill:#008000;stroke:#008000;" x="324.087273" xlink:href="#m9326f6d192" y="293.799712"/>
     <use style="fill:#008000;stroke:#008000;" x="330.850909" xlink:href="#m9326f6d192" y="293.972343"/>
     <use style="fill:#008000;stroke:#008000;" x="337.614545" xlink:href="#m9326f6d192" y="294.086064"/>
     <use style="fill:#008000;stroke:#008000;" x="344.378182" xlink:href="#m9326f6d192" y="294.258435"/>
     <use style="fill:#008000;stroke:#008000;" x="351.141818" xlink:href="#m9326f6d192" y="294.398311"/>
     <use style="fill:#008000;stroke:#008000;" x="357.905455" xlink:href="#m9326f6d192" y="294.573293"/>
     <use style="fill:#008000;stroke:#008000;" x="364.669091" xlink:href="#m9326f6d192" y="294.710334"/>
     <use style="fill:#008000;stroke:#008000;" x="371.432727" xlink:href="#m9326f6d192" y="294.822752"/>
     <use style="fill:#008000;stroke:#008000;" x="378.196364" xlink:href="#m9326f6d192" y="294.989981"/>
     <use style="fill:#008000;stroke:#008000;" x="384.96" xlink:href="#m9326f6d192" y="295.145178"/>
     <use style="fill:#008000;stroke:#008000;" x="391.723636" xlink:href="#m9326f6d192" y="295.30013"/>
     <use style="fill:#008000;stroke:#008000;" x="398.487273" xlink:href="#m9326f6d192" y="295.488"/>
    </g>
   </g>
   <g id="patch_3">
    <path d="M 57.6 307.584 
L 57.6 41.472 
" style="fill:none;stroke:#000000;stroke-linecap:square;stroke-linejoin:miter;stroke-width:0.8;"/>
   </g>
   <g id="patch_4">
    <path d="M 414.72 307.584 
L 414.72 41.472 
" style="fill:none;stroke:#000000;stroke-linecap:square;stroke-linejoin:miter;stroke-width:0.8;"/>
   </g>
   <g id="patch_5">
    <path d="M 57.6 307.584 
L 414.72 307.584 
" style="fill:none;stroke:#000000;stroke-linecap:square;stroke-linejoin:miter;stroke-width:0.8;"/>
   </g>
   <g id="patch_6">
    <path d="M 57.6 41.472 
L 414.72 41.472 
" style="fill:none;stroke:#000000;stroke-linecap:square;stroke-linejoin:miter;stroke-width:0.8;"/>
   </g>
  </g>
 </g>
 <defs>
  <clipPath id="p22163ec94a">
   <rect height="266.112" width="357.12" x="57.6" y="41.472"/>
  </clipPath>
 </defs>
</svg>
