<?xml version="1.0" encoding="utf-8" standalone="no"?>
<!DOCTYPE svg PUBLIC "-//W3C//DTD SVG 1.1//EN"
  "http://www.w3.org/Graphics/SVG/1.1/DTD/svg11.dtd">
<!-- Created with matplotlib (https://matplotlib.org/) -->
<svg height="345.6pt" version="1.1" viewBox="0 0 460.8 345.6" width="460.8pt" xmlns="http://www.w3.org/2000/svg" xmlns:xlink="http://www.w3.org/1999/xlink">
 <defs>
  <style type="text/css">
*{stroke-linecap:butt;stroke-linejoin:round;}
  </style>
 </defs>
 <g id="figure_1">
  <g id="patch_1">
   <path d="M 0 345.6 
L 460.8 345.6 
L 460.8 0 
L 0 0 
z
" style="fill:#ffffff;"/>
  </g>
  <g id="axes_1">
   <g id="patch_2">
    <path d="M 57.6 307.584 
L 414.72 307.584 
L 414.72 41.472 
L 57.6 41.472 
z
" style="fill:#ffffff;"/>
   </g>
   <g id="matplotlib.axis_1">
    <g id="xtick_1">
     <g id="line2d_1">
      <defs>
       <path d="M 0 0 
L 0 3.5 
" id="m455adb6914" style="stroke:#000000;stroke-width:0.8;"/>
      </defs>
      <g>
       <use style="stroke:#000000;stroke-width:0.8;" x="67.069091" xlink:href="#m455adb6914" y="307.584"/>
      </g>
     </g>
     <g id="text_1">
      <!-- 0 -->
      <defs>
       <path d="M 31.78125 66.40625 
Q 24.171875 66.40625 20.328125 58.90625 
Q 16.5 51.421875 16.5 36.375 
Q 16.5 21.390625 20.328125 13.890625 
Q 24.171875 6.390625 31.78125 6.390625 
Q 39.453125 6.390625 43.28125 13.890625 
Q 47.125 21.390625 47.125 36.375 
Q 47.125 51.421875 43.28125 58.90625 
Q 39.453125 66.40625 31.78125 66.40625 
z
M 31.78125 74.21875 
Q 44.046875 74.21875 50.515625 64.515625 
Q 56.984375 54.828125 56.984375 36.375 
Q 56.984375 17.96875 50.515625 8.265625 
Q 44.046875 -1.421875 31.78125 -1.421875 
Q 19.53125 -1.421875 13.0625 8.265625 
Q 6.59375 17.96875 6.59375 36.375 
Q 6.59375 54.828125 13.0625 64.515625 
Q 19.53125 74.21875 31.78125 74.21875 
z
" id="DejaVuSans-48"/>
      </defs>
      <g transform="translate(63.887841 322.182437)scale(0.1 -0.1)">
       <use xlink:href="#DejaVuSans-48"/>
      </g>
     </g>
    </g>
    <g id="xtick_2">
     <g id="line2d_2">
      <g>
       <use style="stroke:#000000;stroke-width:0.8;" x="134.705455" xlink:href="#m455adb6914" y="307.584"/>
      </g>
     </g>
     <g id="text_2">
      <!-- 10 -->
      <defs>
       <path d="M 12.40625 8.296875 
L 28.515625 8.296875 
L 28.515625 63.921875 
L 10.984375 60.40625 
L 10.984375 69.390625 
L 28.421875 72.90625 
L 38.28125 72.90625 
L 38.28125 8.296875 
L 54.390625 8.296875 
L 54.390625 0 
L 12.40625 0 
z
" id="DejaVuSans-49"/>
      </defs>
      <g transform="translate(128.342955 322.182437)scale(0.1 -0.1)">
       <use xlink:href="#DejaVuSans-49"/>
       <use x="63.623047" xlink:href="#DejaVuSans-48"/>
      </g>
     </g>
    </g>
    <g id="xtick_3">
     <g id="line2d_3">
      <g>
       <use style="stroke:#000000;stroke-width:0.8;" x="202.341818" xlink:href="#m455adb6914" y="307.584"/>
      </g>
     </g>
     <g id="text_3">
      <!-- 20 -->
      <defs>
       <path d="M 19.1875 8.296875 
L 53.609375 8.296875 
L 53.609375 0 
L 7.328125 0 
L 7.328125 8.296875 
Q 12.9375 14.109375 22.625 23.890625 
Q 32.328125 33.6875 34.8125 36.53125 
Q 39.546875 41.84375 41.421875 45.53125 
Q 43.3125 49.21875 43.3125 52.78125 
Q 43.3125 58.59375 39.234375 62.25 
Q 35.15625 65.921875 28.609375 65.921875 
Q 23.96875 65.921875 18.8125 64.3125 
Q 13.671875 62.703125 7.8125 59.421875 
L 7.8125 69.390625 
Q 13.765625 71.78125 18.9375 73 
Q 24.125 74.21875 28.421875 74.21875 
Q 39.75 74.21875 46.484375 68.546875 
Q 53.21875 62.890625 53.21875 53.421875 
Q 53.21875 48.921875 51.53125 44.890625 
Q 49.859375 40.875 45.40625 35.40625 
Q 44.1875 33.984375 37.640625 27.21875 
Q 31.109375 20.453125 19.1875 8.296875 
z
" id="DejaVuSans-50"/>
      </defs>
      <g transform="translate(195.979318 322.182437)scale(0.1 -0.1)">
       <use xlink:href="#DejaVuSans-50"/>
       <use x="63.623047" xlink:href="#DejaVuSans-48"/>
      </g>
     </g>
    </g>
    <g id="xtick_4">
     <g id="line2d_4">
      <g>
       <use style="stroke:#000000;stroke-width:0.8;" x="269.978182" xlink:href="#m455adb6914" y="307.584"/>
      </g>
     </g>
     <g id="text_4">
      <!-- 30 -->
      <defs>
       <path d="M 40.578125 39.3125 
Q 47.65625 37.796875 51.625 33 
Q 55.609375 28.21875 55.609375 21.1875 
Q 55.609375 10.40625 48.1875 4.484375 
Q 40.765625 -1.421875 27.09375 -1.421875 
Q 22.515625 -1.421875 17.65625 -0.515625 
Q 12.796875 0.390625 7.625 2.203125 
L 7.625 11.71875 
Q 11.71875 9.328125 16.59375 8.109375 
Q 21.484375 6.890625 26.8125 6.890625 
Q 36.078125 6.890625 40.9375 10.546875 
Q 45.796875 14.203125 45.796875 21.1875 
Q 45.796875 27.640625 41.28125 31.265625 
Q 36.765625 34.90625 28.71875 34.90625 
L 20.21875 34.90625 
L 20.21875 43.015625 
L 29.109375 43.015625 
Q 36.375 43.015625 40.234375 45.921875 
Q 44.09375 48.828125 44.09375 54.296875 
Q 44.09375 59.90625 40.109375 62.90625 
Q 36.140625 65.921875 28.71875 65.921875 
Q 24.65625 65.921875 20.015625 65.03125 
Q 15.375 64.15625 9.8125 62.3125 
L 9.8125 71.09375 
Q 15.4375 72.65625 20.34375 73.4375 
Q 25.25 74.21875 29.59375 74.21875 
Q 40.828125 74.21875 47.359375 69.109375 
Q 53.90625 64.015625 53.90625 55.328125 
Q 53.90625 49.265625 50.4375 45.09375 
Q 46.96875 40.921875 40.578125 39.3125 
z
" id="DejaVuSans-51"/>
      </defs>
      <g transform="translate(263.615682 322.182437)scale(0.1 -0.1)">
       <use xlink:href="#DejaVuSans-51"/>
       <use x="63.623047" xlink:href="#DejaVuSans-48"/>
      </g>
     </g>
    </g>
    <g id="xtick_5">
     <g id="line2d_5">
      <g>
       <use style="stroke:#000000;stroke-width:0.8;" x="337.614545" xlink:href="#m455adb6914" y="307.584"/>
      </g>
     </g>
     <g id="text_5">
      <!-- 40 -->
      <defs>
       <path d="M 37.796875 64.3125 
L 12.890625 25.390625 
L 37.796875 25.390625 
z
M 35.203125 72.90625 
L 47.609375 72.90625 
L 47.609375 25.390625 
L 58.015625 25.390625 
L 58.015625 17.1875 
L 47.609375 17.1875 
L 47.609375 0 
L 37.796875 0 
L 37.796875 17.1875 
L 4.890625 17.1875 
L 4.890625 26.703125 
z
" id="DejaVuSans-52"/>
      </defs>
      <g transform="translate(331.252045 322.182437)scale(0.1 -0.1)">
       <use xlink:href="#DejaVuSans-52"/>
       <use x="63.623047" xlink:href="#DejaVuSans-48"/>
      </g>
     </g>
    </g>
    <g id="xtick_6">
     <g id="line2d_6">
      <g>
       <use style="stroke:#000000;stroke-width:0.8;" x="405.250909" xlink:href="#m455adb6914" y="307.584"/>
      </g>
     </g>
     <g id="text_6">
      <!-- 50 -->
      <defs>
       <path d="M 10.796875 72.90625 
L 49.515625 72.90625 
L 49.515625 64.59375 
L 19.828125 64.59375 
L 19.828125 46.734375 
Q 21.96875 47.46875 24.109375 47.828125 
Q 26.265625 48.1875 28.421875 48.1875 
Q 40.625 48.1875 47.75 41.5 
Q 54.890625 34.8125 54.890625 23.390625 
Q 54.890625 11.625 47.5625 5.09375 
Q 40.234375 -1.421875 26.90625 -1.421875 
Q 22.3125 -1.421875 17.546875 -0.640625 
Q 12.796875 0.140625 7.71875 1.703125 
L 7.71875 11.625 
Q 12.109375 9.234375 16.796875 8.0625 
Q 21.484375 6.890625 26.703125 6.890625 
Q 35.15625 6.890625 40.078125 11.328125 
Q 45.015625 15.765625 45.015625 23.390625 
Q 45.015625 31 40.078125 35.4375 
Q 35.15625 39.890625 26.703125 39.890625 
Q 22.75 39.890625 18.8125 39.015625 
Q 14.890625 38.140625 10.796875 36.28125 
z
" id="DejaVuSans-53"/>
      </defs>
      <g transform="translate(398.888409 322.182437)scale(0.1 -0.1)">
       <use xlink:href="#DejaVuSans-53"/>
       <use x="63.623047" xlink:href="#DejaVuSans-48"/>
      </g>
     </g>
    </g>
   </g>
   <g id="matplotlib.axis_2">
    <g id="ytick_1">
     <g id="line2d_7">
      <defs>
       <path d="M 0 0 
L -3.5 0 
" id="m9c5ab544b1" style="stroke:#000000;stroke-width:0.8;"/>
      </defs>
      <g>
       <use style="stroke:#000000;stroke-width:0.8;" x="57.6" xlink:href="#m9c5ab544b1" y="301.239653"/>
      </g>
     </g>
     <g id="text_7">
      <!-- 0 -->
      <g transform="translate(44.2375 305.038872)scale(0.1 -0.1)">
       <use xlink:href="#DejaVuSans-48"/>
      </g>
     </g>
    </g>
    <g id="ytick_2">
     <g id="line2d_8">
      <g>
       <use style="stroke:#000000;stroke-width:0.8;" x="57.6" xlink:href="#m9c5ab544b1" y="260.123375"/>
      </g>
     </g>
     <g id="text_8">
      <!-- 500 -->
      <g transform="translate(31.5125 263.922593)scale(0.1 -0.1)">
       <use xlink:href="#DejaVuSans-53"/>
       <use x="63.623047" xlink:href="#DejaVuSans-48"/>
       <use x="127.246094" xlink:href="#DejaVuSans-48"/>
      </g>
     </g>
    </g>
    <g id="ytick_3">
     <g id="line2d_9">
      <g>
       <use style="stroke:#000000;stroke-width:0.8;" x="57.6" xlink:href="#m9c5ab544b1" y="219.007096"/>
      </g>
     </g>
     <g id="text_9">
      <!-- 1000 -->
      <g transform="translate(25.15 222.806315)scale(0.1 -0.1)">
       <use xlink:href="#DejaVuSans-49"/>
       <use x="63.623047" xlink:href="#DejaVuSans-48"/>
       <use x="127.246094" xlink:href="#DejaVuSans-48"/>
       <use x="190.869141" xlink:href="#DejaVuSans-48"/>
      </g>
     </g>
    </g>
    <g id="ytick_4">
     <g id="line2d_10">
      <g>
       <use style="stroke:#000000;stroke-width:0.8;" x="57.6" xlink:href="#m9c5ab544b1" y="177.890817"/>
      </g>
     </g>
     <g id="text_10">
      <!-- 1500 -->
      <g transform="translate(25.15 181.690036)scale(0.1 -0.1)">
       <use xlink:href="#DejaVuSans-49"/>
       <use x="63.623047" xlink:href="#DejaVuSans-53"/>
       <use x="127.246094" xlink:href="#DejaVuSans-48"/>
       <use x="190.869141" xlink:href="#DejaVuSans-48"/>
      </g>
     </g>
    </g>
    <g id="ytick_5">
     <g id="line2d_11">
      <g>
       <use style="stroke:#000000;stroke-width:0.8;" x="57.6" xlink:href="#m9c5ab544b1" y="136.774538"/>
      </g>
     </g>
     <g id="text_11">
      <!-- 2000 -->
      <g transform="translate(25.15 140.573757)scale(0.1 -0.1)">
       <use xlink:href="#DejaVuSans-50"/>
       <use x="63.623047" xlink:href="#DejaVuSans-48"/>
       <use x="127.246094" xlink:href="#DejaVuSans-48"/>
       <use x="190.869141" xlink:href="#DejaVuSans-48"/>
      </g>
     </g>
    </g>
    <g id="ytick_6">
     <g id="line2d_12">
      <g>
       <use style="stroke:#000000;stroke-width:0.8;" x="57.6" xlink:href="#m9c5ab544b1" y="95.65826"/>
      </g>
     </g>
     <g id="text_12">
      <!-- 2500 -->
      <g transform="translate(25.15 99.457478)scale(0.1 -0.1)">
       <use xlink:href="#DejaVuSans-50"/>
       <use x="63.623047" xlink:href="#DejaVuSans-53"/>
       <use x="127.246094" xlink:href="#DejaVuSans-48"/>
       <use x="190.869141" xlink:href="#DejaVuSans-48"/>
      </g>
     </g>
    </g>
    <g id="ytick_7">
     <g id="line2d_13">
      <g>
       <use style="stroke:#000000;stroke-width:0.8;" x="57.6" xlink:href="#m9c5ab544b1" y="54.541981"/>
      </g>
     </g>
     <g id="text_13">
      <!-- 3000 -->
      <g transform="translate(25.15 58.3412)scale(0.1 -0.1)">
       <use xlink:href="#DejaVuSans-51"/>
       <use x="63.623047" xlink:href="#DejaVuSans-48"/>
       <use x="127.246094" xlink:href="#DejaVuSans-48"/>
       <use x="190.869141" xlink:href="#DejaVuSans-48"/>
      </g>
     </g>
    </g>
   </g>
   <g id="line2d_14">
    <path clip-path="url(#pdfd851251c)" d="M 73.832727 157.616606 
L 80.596364 53.568 
L 87.36 218.2812 
L 94.123636 209.641773 
L 100.887273 245.740483 
L 107.650909 247.46764 
L 114.414545 260.064378 
L 121.178182 262.636584 
L 127.941818 268.386108 
L 134.705455 270.499987 
L 141.469091 273.656371 
L 148.232727 275.261565 
L 154.996364 277.236545 
L 161.76 278.455021 
L 168.523636 279.812159 
L 175.287273 280.755888 
L 182.050909 281.754504 
L 188.814545 282.503888 
L 195.578182 283.277453 
L 202.341818 283.887219 
L 209.105455 284.510821 
L 215.869091 285.017988 
L 222.632727 285.53702 
L 229.396364 285.966821 
L 236.16 286.410436 
L 242.923636 286.780203 
L 249.687273 287.168218 
L 256.450909 287.489797 
L 263.214545 287.836568 
L 269.978182 288.117707 
L 276.741818 288.434612 
L 283.505455 288.679523 
L 290.269091 288.97696 
L 297.032727 289.185995 
L 303.796364 289.475672 
L 310.56 289.643618 
L 317.323636 289.942294 
L 324.087273 290.05391 
L 330.850909 290.390957 
L 337.614545 290.410199 
L 344.378182 290.844772 
L 351.141818 290.688629 
L 357.905455 291.351216 
L 364.669091 290.824069 
L 371.432727 292.022186 
L 378.196364 290.644614 
L 384.96 293.143615 
L 391.723636 289.687695 
L 398.487273 295.488 
" style="fill:none;stroke:#0000ff;stroke-linecap:square;stroke-width:1.5;"/>
    <defs>
     <path d="M 0 3 
C 0.795609 3 1.55874 2.683901 2.12132 2.12132 
C 2.683901 1.55874 3 0.795609 3 0 
C 3 -0.795609 2.683901 -1.55874 2.12132 -2.12132 
C 1.55874 -2.683901 0.795609 -3 0 -3 
C -0.795609 -3 -1.55874 -2.683901 -2.12132 -2.12132 
C -2.683901 -1.55874 -3 -0.795609 -3 0 
C -3 0.795609 -2.683901 1.55874 -2.12132 2.12132 
C -1.55874 2.683901 -0.795609 3 0 3 
z
" id="m8d0c2c9679" style="stroke:#0000ff;"/>
    </defs>
    <g clip-path="url(#pdfd851251c)">
     <use style="fill:#0000ff;stroke:#0000ff;" x="73.832727" xlink:href="#m8d0c2c9679" y="157.616606"/>
     <use style="fill:#0000ff;stroke:#0000ff;" x="80.596364" xlink:href="#m8d0c2c9679" y="53.568"/>
     <use style="fill:#0000ff;stroke:#0000ff;" x="87.36" xlink:href="#m8d0c2c9679" y="218.2812"/>
     <use style="fill:#0000ff;stroke:#0000ff;" x="94.123636" xlink:href="#m8d0c2c9679" y="209.641773"/>
     <use style="fill:#0000ff;stroke:#0000ff;" x="100.887273" xlink:href="#m8d0c2c9679" y="245.740483"/>
     <use style="fill:#0000ff;stroke:#0000ff;" x="107.650909" xlink:href="#m8d0c2c9679" y="247.46764"/>
     <use style="fill:#0000ff;stroke:#0000ff;" x="114.414545" xlink:href="#m8d0c2c9679" y="260.064378"/>
     <use style="fill:#0000ff;stroke:#0000ff;" x="121.178182" xlink:href="#m8d0c2c9679" y="262.636584"/>
     <use style="fill:#0000ff;stroke:#0000ff;" x="127.941818" xlink:href="#m8d0c2c9679" y="268.386108"/>
     <use style="fill:#0000ff;stroke:#0000ff;" x="134.705455" xlink:href="#m8d0c2c9679" y="270.499987"/>
     <use style="fill:#0000ff;stroke:#0000ff;" x="141.469091" xlink:href="#m8d0c2c9679" y="273.656371"/>
     <use style="fill:#0000ff;stroke:#0000ff;" x="148.232727" xlink:href="#m8d0c2c9679" y="275.261565"/>
     <use style="fill:#0000ff;stroke:#0000ff;" x="154.996364" xlink:href="#m8d0c2c9679" y="277.236545"/>
     <use style="fill:#0000ff;stroke:#0000ff;" x="161.76" xlink:href="#m8d0c2c9679" y="278.455021"/>
     <use style="fill:#0000ff;stroke:#0000ff;" x="168.523636" xlink:href="#m8d0c2c9679" y="279.812159"/>
     <use style="fill:#0000ff;stroke:#0000ff;" x="175.287273" xlink:href="#m8d0c2c9679" y="280.755888"/>
     <use style="fill:#0000ff;stroke:#0000ff;" x="182.050909" xlink:href="#m8d0c2c9679" y="281.754504"/>
     <use style="fill:#0000ff;stroke:#0000ff;" x="188.814545" xlink:href="#m8d0c2c9679" y="282.503888"/>
     <use style="fill:#0000ff;stroke:#0000ff;" x="195.578182" xlink:href="#m8d0c2c9679" y="283.277453"/>
     <use style="fill:#0000ff;stroke:#0000ff;" x="202.341818" xlink:href="#m8d0c2c9679" y="283.887219"/>
     <use style="fill:#0000ff;stroke:#0000ff;" x="209.105455" xlink:href="#m8d0c2c9679" y="284.510821"/>
     <use style="fill:#0000ff;stroke:#0000ff;" x="215.869091" xlink:href="#m8d0c2c9679" y="285.017988"/>
     <use style="fill:#0000ff;stroke:#0000ff;" x="222.632727" xlink:href="#m8d0c2c9679" y="285.53702"/>
     <use style="fill:#0000ff;stroke:#0000ff;" x="229.396364" xlink:href="#m8d0c2c9679" y="285.966821"/>
     <use style="fill:#0000ff;stroke:#0000ff;" x="236.16" xlink:href="#m8d0c2c9679" y="286.410436"/>
     <use style="fill:#0000ff;stroke:#0000ff;" x="242.923636" xlink:href="#m8d0c2c9679" y="286.780203"/>
     <use style="fill:#0000ff;stroke:#0000ff;" x="249.687273" xlink:href="#m8d0c2c9679" y="287.168218"/>
     <use style="fill:#0000ff;stroke:#0000ff;" x="256.450909" xlink:href="#m8d0c2c9679" y="287.489797"/>
     <use style="fill:#0000ff;stroke:#0000ff;" x="263.214545" xlink:href="#m8d0c2c9679" y="287.836568"/>
     <use style="fill:#0000ff;stroke:#0000ff;" x="269.978182" xlink:href="#m8d0c2c9679" y="288.117707"/>
     <use style="fill:#0000ff;stroke:#0000ff;" x="276.741818" xlink:href="#m8d0c2c9679" y="288.434612"/>
     <use style="fill:#0000ff;stroke:#0000ff;" x="283.505455" xlink:href="#m8d0c2c9679" y="288.679523"/>
     <use style="fill:#0000ff;stroke:#0000ff;" x="290.269091" xlink:href="#m8d0c2c9679" y="288.97696"/>
     <use style="fill:#0000ff;stroke:#0000ff;" x="297.032727" xlink:href="#m8d0c2c9679" y="289.185995"/>
     <use style="fill:#0000ff;stroke:#0000ff;" x="303.796364" xlink:href="#m8d0c2c9679" y="289.475672"/>
     <use style="fill:#0000ff;stroke:#0000ff;" x="310.56" xlink:href="#m8d0c2c9679" y="289.643618"/>
     <use style="fill:#0000ff;stroke:#0000ff;" x="317.323636" xlink:href="#m8d0c2c9679" y="289.942294"/>
     <use style="fill:#0000ff;stroke:#0000ff;" x="324.087273" xlink:href="#m8d0c2c9679" y="290.05391"/>
     <use style="fill:#0000ff;stroke:#0000ff;" x="330.850909" xlink:href="#m8d0c2c9679" y="290.390957"/>
     <use style="fill:#0000ff;stroke:#0000ff;" x="337.614545" xlink:href="#m8d0c2c9679" y="290.410199"/>
     <use style="fill:#0000ff;stroke:#0000ff;" x="344.378182" xlink:href="#m8d0c2c9679" y="290.844772"/>
     <use style="fill:#0000ff;stroke:#0000ff;" x="351.141818" xlink:href="#m8d0c2c9679" y="290.688629"/>
     <use style="fill:#0000ff;stroke:#0000ff;" x="357.905455" xlink:href="#m8d0c2c9679" y="291.351216"/>
     <use style="fill:#0000ff;stroke:#0000ff;" x="364.669091" xlink:href="#m8d0c2c9679" y="290.824069"/>
     <use style="fill:#0000ff;stroke:#0000ff;" x="371.432727" xlink:href="#m8d0c2c9679" y="292.022186"/>
     <use style="fill:#0000ff;stroke:#0000ff;" x="378.196364" xlink:href="#m8d0c2c9679" y="290.644614"/>
     <use style="fill:#0000ff;stroke:#0000ff;" x="384.96" xlink:href="#m8d0c2c9679" y="293.143615"/>
     <use style="fill:#0000ff;stroke:#0000ff;" x="391.723636" xlink:href="#m8d0c2c9679" y="289.687695"/>
     <use style="fill:#0000ff;stroke:#0000ff;" x="398.487273" xlink:href="#m8d0c2c9679" y="295.488"/>
    </g>
   </g>
   <g id="line2d_15">
    <path clip-path="url(#pdfd851251c)" d="M 73.832727 145.945327 
L 80.596364 63.924156 
L 87.36 221.831011 
L 94.123636 210.451374 
L 100.887273 247.708281 
L 107.650909 248.28164 
L 114.414545 261.285814 
L 121.178182 263.541947 
L 127.941818 269.502113 
L 134.705455 271.355849 
L 141.469091 274.596453 
L 148.232727 276.183623 
L 154.996364 278.163339 
L 161.76 279.323114 
L 168.523636 280.744159 
L 175.287273 281.67388 
L 182.050909 282.71399 
L 188.814545 283.492075 
L 195.578182 284.161251 
L 202.341818 284.761943 
L 209.105455 285.256868 
L 215.869091 285.735017 
L 222.632727 286.197378 
L 229.396364 286.614577 
L 236.16 287.033601 
L 242.923636 287.374537 
L 249.687273 287.796686 
L 256.450909 288.132425 
L 263.214545 288.424482 
L 269.978182 288.777244 
L 276.741818 288.98197 
L 283.505455 289.296888 
L 290.269091 289.542023 
L 297.032727 289.637676 
L 303.796364 289.962741 
L 310.56 290.044135 
L 317.323636 290.289583 
L 324.087273 290.413622 
L 330.850909 290.662425 
L 337.614545 290.635699 
L 344.378182 291.185835 
L 351.141818 290.994875 
L 357.905455 291.585485 
L 364.669091 291.018525 
L 371.432727 292.201489 
L 378.196364 290.715975 
L 384.96 293.202029 
L 391.723636 289.781829 
L 398.487273 295.416881 
" style="fill:none;stroke:#008000;stroke-linecap:square;stroke-width:1.5;"/>
    <defs>
     <path d="M 0 3 
C 0.795609 3 1.55874 2.683901 2.12132 2.12132 
C 2.683901 1.55874 3 0.795609 3 0 
C 3 -0.795609 2.683901 -1.55874 2.12132 -2.12132 
C 1.55874 -2.683901 0.795609 -3 0 -3 
C -0.795609 -3 -1.55874 -2.683901 -2.12132 -2.12132 
C -2.683901 -1.55874 -3 -0.795609 -3 0 
C -3 0.795609 -2.683901 1.55874 -2.12132 2.12132 
C -1.55874 2.683901 -0.795609 3 0 3 
z
" id="mba34f907da" style="stroke:#008000;"/>
    </defs>
    <g clip-path="url(#pdfd851251c)">
     <use style="fill:#008000;stroke:#008000;" x="73.832727" xlink:href="#mba34f907da" y="145.945327"/>
     <use style="fill:#008000;stroke:#008000;" x="80.596364" xlink:href="#mba34f907da" y="63.924156"/>
     <use style="fill:#008000;stroke:#008000;" x="87.36" xlink:href="#mba34f907da" y="221.831011"/>
     <use style="fill:#008000;stroke:#008000;" x="94.123636" xlink:href="#mba34f907da" y="210.451374"/>
     <use style="fill:#008000;stroke:#008000;" x="100.887273" xlink:href="#mba34f907da" y="247.708281"/>
     <use style="fill:#008000;stroke:#008000;" x="107.650909" xlink:href="#mba34f907da" y="248.28164"/>
     <use style="fill:#008000;stroke:#008000;" x="114.414545" xlink:href="#mba34f907da" y="261.285814"/>
     <use style="fill:#008000;stroke:#008000;" x="121.178182" xlink:href="#mba34f907da" y="263.541947"/>
     <use style="fill:#008000;stroke:#008000;" x="127.941818" xlink:href="#mba34f907da" y="269.502113"/>
     <use style="fill:#008000;stroke:#008000;" x="134.705455" xlink:href="#mba34f907da" y="271.355849"/>
     <use style="fill:#008000;stroke:#008000;" x="141.469091" xlink:href="#mba34f907da" y="274.596453"/>
     <use style="fill:#008000;stroke:#008000;" x="148.232727" xlink:href="#mba34f907da" y="276.183623"/>
     <use style="fill:#008000;stroke:#008000;" x="154.996364" xlink:href="#mba34f907da" y="278.163339"/>
     <use style="fill:#008000;stroke:#008000;" x="161.76" xlink:href="#mba34f907da" y="279.323114"/>
     <use style="fill:#008000;stroke:#008000;" x="168.523636" xlink:href="#mba34f907da" y="280.744159"/>
     <use style="fill:#008000;stroke:#008000;" x="175.287273" xlink:href="#mba34f907da" y="281.67388"/>
     <use style="fill:#008000;stroke:#008000;" x="182.050909" xlink:href="#mba34f907da" y="282.71399"/>
     <use style="fill:#008000;stroke:#008000;" x="188.814545" xlink:href="#mba34f907da" y="283.492075"/>
     <use style="fill:#008000;stroke:#008000;" x="195.578182" xlink:href="#mba34f907da" y="284.161251"/>
     <use style="fill:#008000;stroke:#008000;" x="202.341818" xlink:href="#mba34f907da" y="284.761943"/>
     <use style="fill:#008000;stroke:#008000;" x="209.105455" xlink:href="#mba34f907da" y="285.256868"/>
     <use style="fill:#008000;stroke:#008000;" x="215.869091" xlink:href="#mba34f907da" y="285.735017"/>
     <use style="fill:#008000;stroke:#008000;" x="222.632727" xlink:href="#mba34f907da" y="286.197378"/>
     <use style="fill:#008000;stroke:#008000;" x="229.396364" xlink:href="#mba34f907da" y="286.614577"/>
     <use style="fill:#008000;stroke:#008000;" x="236.16" xlink:href="#mba34f907da" y="287.033601"/>
     <use style="fill:#008000;stroke:#008000;" x="242.923636" xlink:href="#mba34f907da" y="287.374537"/>
     <use style="fill:#008000;stroke:#008000;" x="249.687273" xlink:href="#mba34f907da" y="287.796686"/>
     <use style="fill:#008000;stroke:#008000;" x="256.450909" xlink:href="#mba34f907da" y="288.132425"/>
     <use style="fill:#008000;stroke:#008000;" x="263.214545" xlink:href="#mba34f907da" y="288.424482"/>
     <use style="fill:#008000;stroke:#008000;" x="269.978182" xlink:href="#mba34f907da" y="288.777244"/>
     <use style="fill:#008000;stroke:#008000;" x="276.741818" xlink:href="#mba34f907da" y="288.98197"/>
     <use style="fill:#008000;stroke:#008000;" x="283.505455" xlink:href="#mba34f907da" y="289.296888"/>
     <use style="fill:#008000;stroke:#008000;" x="290.269091" xlink:href="#mba34f907da" y="289.542023"/>
     <use style="fill:#008000;stroke:#008000;" x="297.032727" xlink:href="#mba34f907da" y="289.637676"/>
     <use style="fill:#008000;stroke:#008000;" x="303.796364" xlink:href="#mba34f907da" y="289.962741"/>
     <use style="fill:#008000;stroke:#008000;" x="310.56" xlink:href="#mba34f907da" y="290.044135"/>
     <use style="fill:#008000;stroke:#008000;" x="317.323636" xlink:href="#mba34f907da" y="290.289583"/>
     <use style="fill:#008000;stroke:#008000;" x="324.087273" xlink:href="#mba34f907da" y="290.413622"/>
     <use style="fill:#008000;stroke:#008000;" x="330.850909" xlink:href="#mba34f907da" y="290.662425"/>
     <use style="fill:#008000;stroke:#008000;" x="337.614545" xlink:href="#mba34f907da" y="290.635699"/>
     <use style="fill:#008000;stroke:#008000;" x="344.378182" xlink:href="#mba34f907da" y="291.185835"/>
     <use style="fill:#008000;stroke:#008000;" x="351.141818" xlink:href="#mba34f907da" y="290.994875"/>
     <use style="fill:#008000;stroke:#008000;" x="357.905455" xlink:href="#mba34f907da" y="291.585485"/>
     <use style="fill:#008000;stroke:#008000;" x="364.669091" xlink:href="#mba34f907da" y="291.018525"/>
     <use style="fill:#008000;stroke:#008000;" x="371.432727" xlink:href="#mba34f907da" y="292.201489"/>
     <use style="fill:#008000;stroke:#008000;" x="378.196364" xlink:href="#mba34f907da" y="290.715975"/>
     <use style="fill:#008000;stroke:#008000;" x="384.96" xlink:href="#mba34f907da" y="293.202029"/>
     <use style="fill:#008000;stroke:#008000;" x="391.723636" xlink:href="#mba34f907da" y="289.781829"/>
     <use style="fill:#008000;stroke:#008000;" x="398.487273" xlink:href="#mba34f907da" y="295.416881"/>
    </g>
   </g>
   <g id="patch_3">
    <path d="M 57.6 307.584 
L 57.6 41.472 
" style="fill:none;stroke:#000000;stroke-linecap:square;stroke-linejoin:miter;stroke-width:0.8;"/>
   </g>
   <g id="patch_4">
    <path d="M 414.72 307.584 
L 414.72 41.472 
" style="fill:none;stroke:#000000;stroke-linecap:square;stroke-linejoin:miter;stroke-width:0.8;"/>
   </g>
   <g id="patch_5">
    <path d="M 57.6 307.584 
L 414.72 307.584 
" style="fill:none;stroke:#000000;stroke-linecap:square;stroke-linejoin:miter;stroke-width:0.8;"/>
   </g>
   <g id="patch_6">
    <path d="M 57.6 41.472 
L 414.72 41.472 
" style="fill:none;stroke:#000000;stroke-linecap:square;stroke-linejoin:miter;stroke-width:0.8;"/>
   </g>
  </g>
 </g>
 <defs>
  <clipPath id="pdfd851251c">
   <rect height="266.112" width="357.12" x="57.6" y="41.472"/>
  </clipPath>
 </defs>
</svg>
