<?xml version="1.0" encoding="utf-8" standalone="no"?>
<!DOCTYPE svg PUBLIC "-//W3C//DTD SVG 1.1//EN"
  "http://www.w3.org/Graphics/SVG/1.1/DTD/svg11.dtd">
<!-- Created with matplotlib (https://matplotlib.org/) -->
<svg height="345.6pt" version="1.1" viewBox="0 0 460.8 345.6" width="460.8pt" xmlns="http://www.w3.org/2000/svg" xmlns:xlink="http://www.w3.org/1999/xlink">
 <defs>
  <style type="text/css">
*{stroke-linecap:butt;stroke-linejoin:round;}
  </style>
 </defs>
 <g id="figure_1">
  <g id="patch_1">
   <path d="M 0 345.6 
L 460.8 345.6 
L 460.8 0 
L 0 0 
z
" style="fill:#ffffff;"/>
  </g>
  <g id="axes_1">
   <g id="patch_2">
    <path d="M 57.6 307.584 
L 414.72 307.584 
L 414.72 41.472 
L 57.6 41.472 
z
" style="fill:#ffffff;"/>
   </g>
   <g id="matplotlib.axis_1">
    <g id="xtick_1">
     <g id="line2d_1">
      <defs>
       <path d="M 0 0 
L 0 3.5 
" id="m065da6bbaf" style="stroke:#000000;stroke-width:0.8;"/>
      </defs>
      <g>
       <use style="stroke:#000000;stroke-width:0.8;" x="67.069091" xlink:href="#m065da6bbaf" y="307.584"/>
      </g>
     </g>
     <g id="text_1">
      <!-- 0 -->
      <defs>
       <path d="M 31.78125 66.40625 
Q 24.171875 66.40625 20.328125 58.90625 
Q 16.5 51.421875 16.5 36.375 
Q 16.5 21.390625 20.328125 13.890625 
Q 24.171875 6.390625 31.78125 6.390625 
Q 39.453125 6.390625 43.28125 13.890625 
Q 47.125 21.390625 47.125 36.375 
Q 47.125 51.421875 43.28125 58.90625 
Q 39.453125 66.40625 31.78125 66.40625 
z
M 31.78125 74.21875 
Q 44.046875 74.21875 50.515625 64.515625 
Q 56.984375 54.828125 56.984375 36.375 
Q 56.984375 17.96875 50.515625 8.265625 
Q 44.046875 -1.421875 31.78125 -1.421875 
Q 19.53125 -1.421875 13.0625 8.265625 
Q 6.59375 17.96875 6.59375 36.375 
Q 6.59375 54.828125 13.0625 64.515625 
Q 19.53125 74.21875 31.78125 74.21875 
z
" id="DejaVuSans-48"/>
      </defs>
      <g transform="translate(63.887841 322.182437)scale(0.1 -0.1)">
       <use xlink:href="#DejaVuSans-48"/>
      </g>
     </g>
    </g>
    <g id="xtick_2">
     <g id="line2d_2">
      <g>
       <use style="stroke:#000000;stroke-width:0.8;" x="134.705455" xlink:href="#m065da6bbaf" y="307.584"/>
      </g>
     </g>
     <g id="text_2">
      <!-- 10 -->
      <defs>
       <path d="M 12.40625 8.296875 
L 28.515625 8.296875 
L 28.515625 63.921875 
L 10.984375 60.40625 
L 10.984375 69.390625 
L 28.421875 72.90625 
L 38.28125 72.90625 
L 38.28125 8.296875 
L 54.390625 8.296875 
L 54.390625 0 
L 12.40625 0 
z
" id="DejaVuSans-49"/>
      </defs>
      <g transform="translate(128.342955 322.182437)scale(0.1 -0.1)">
       <use xlink:href="#DejaVuSans-49"/>
       <use x="63.623047" xlink:href="#DejaVuSans-48"/>
      </g>
     </g>
    </g>
    <g id="xtick_3">
     <g id="line2d_3">
      <g>
       <use style="stroke:#000000;stroke-width:0.8;" x="202.341818" xlink:href="#m065da6bbaf" y="307.584"/>
      </g>
     </g>
     <g id="text_3">
      <!-- 20 -->
      <defs>
       <path d="M 19.1875 8.296875 
L 53.609375 8.296875 
L 53.609375 0 
L 7.328125 0 
L 7.328125 8.296875 
Q 12.9375 14.109375 22.625 23.890625 
Q 32.328125 33.6875 34.8125 36.53125 
Q 39.546875 41.84375 41.421875 45.53125 
Q 43.3125 49.21875 43.3125 52.78125 
Q 43.3125 58.59375 39.234375 62.25 
Q 35.15625 65.921875 28.609375 65.921875 
Q 23.96875 65.921875 18.8125 64.3125 
Q 13.671875 62.703125 7.8125 59.421875 
L 7.8125 69.390625 
Q 13.765625 71.78125 18.9375 73 
Q 24.125 74.21875 28.421875 74.21875 
Q 39.75 74.21875 46.484375 68.546875 
Q 53.21875 62.890625 53.21875 53.421875 
Q 53.21875 48.921875 51.53125 44.890625 
Q 49.859375 40.875 45.40625 35.40625 
Q 44.1875 33.984375 37.640625 27.21875 
Q 31.109375 20.453125 19.1875 8.296875 
z
" id="DejaVuSans-50"/>
      </defs>
      <g transform="translate(195.979318 322.182437)scale(0.1 -0.1)">
       <use xlink:href="#DejaVuSans-50"/>
       <use x="63.623047" xlink:href="#DejaVuSans-48"/>
      </g>
     </g>
    </g>
    <g id="xtick_4">
     <g id="line2d_4">
      <g>
       <use style="stroke:#000000;stroke-width:0.8;" x="269.978182" xlink:href="#m065da6bbaf" y="307.584"/>
      </g>
     </g>
     <g id="text_4">
      <!-- 30 -->
      <defs>
       <path d="M 40.578125 39.3125 
Q 47.65625 37.796875 51.625 33 
Q 55.609375 28.21875 55.609375 21.1875 
Q 55.609375 10.40625 48.1875 4.484375 
Q 40.765625 -1.421875 27.09375 -1.421875 
Q 22.515625 -1.421875 17.65625 -0.515625 
Q 12.796875 0.390625 7.625 2.203125 
L 7.625 11.71875 
Q 11.71875 9.328125 16.59375 8.109375 
Q 21.484375 6.890625 26.8125 6.890625 
Q 36.078125 6.890625 40.9375 10.546875 
Q 45.796875 14.203125 45.796875 21.1875 
Q 45.796875 27.640625 41.28125 31.265625 
Q 36.765625 34.90625 28.71875 34.90625 
L 20.21875 34.90625 
L 20.21875 43.015625 
L 29.109375 43.015625 
Q 36.375 43.015625 40.234375 45.921875 
Q 44.09375 48.828125 44.09375 54.296875 
Q 44.09375 59.90625 40.109375 62.90625 
Q 36.140625 65.921875 28.71875 65.921875 
Q 24.65625 65.921875 20.015625 65.03125 
Q 15.375 64.15625 9.8125 62.3125 
L 9.8125 71.09375 
Q 15.4375 72.65625 20.34375 73.4375 
Q 25.25 74.21875 29.59375 74.21875 
Q 40.828125 74.21875 47.359375 69.109375 
Q 53.90625 64.015625 53.90625 55.328125 
Q 53.90625 49.265625 50.4375 45.09375 
Q 46.96875 40.921875 40.578125 39.3125 
z
" id="DejaVuSans-51"/>
      </defs>
      <g transform="translate(263.615682 322.182437)scale(0.1 -0.1)">
       <use xlink:href="#DejaVuSans-51"/>
       <use x="63.623047" xlink:href="#DejaVuSans-48"/>
      </g>
     </g>
    </g>
    <g id="xtick_5">
     <g id="line2d_5">
      <g>
       <use style="stroke:#000000;stroke-width:0.8;" x="337.614545" xlink:href="#m065da6bbaf" y="307.584"/>
      </g>
     </g>
     <g id="text_5">
      <!-- 40 -->
      <defs>
       <path d="M 37.796875 64.3125 
L 12.890625 25.390625 
L 37.796875 25.390625 
z
M 35.203125 72.90625 
L 47.609375 72.90625 
L 47.609375 25.390625 
L 58.015625 25.390625 
L 58.015625 17.1875 
L 47.609375 17.1875 
L 47.609375 0 
L 37.796875 0 
L 37.796875 17.1875 
L 4.890625 17.1875 
L 4.890625 26.703125 
z
" id="DejaVuSans-52"/>
      </defs>
      <g transform="translate(331.252045 322.182437)scale(0.1 -0.1)">
       <use xlink:href="#DejaVuSans-52"/>
       <use x="63.623047" xlink:href="#DejaVuSans-48"/>
      </g>
     </g>
    </g>
    <g id="xtick_6">
     <g id="line2d_6">
      <g>
       <use style="stroke:#000000;stroke-width:0.8;" x="405.250909" xlink:href="#m065da6bbaf" y="307.584"/>
      </g>
     </g>
     <g id="text_6">
      <!-- 50 -->
      <defs>
       <path d="M 10.796875 72.90625 
L 49.515625 72.90625 
L 49.515625 64.59375 
L 19.828125 64.59375 
L 19.828125 46.734375 
Q 21.96875 47.46875 24.109375 47.828125 
Q 26.265625 48.1875 28.421875 48.1875 
Q 40.625 48.1875 47.75 41.5 
Q 54.890625 34.8125 54.890625 23.390625 
Q 54.890625 11.625 47.5625 5.09375 
Q 40.234375 -1.421875 26.90625 -1.421875 
Q 22.3125 -1.421875 17.546875 -0.640625 
Q 12.796875 0.140625 7.71875 1.703125 
L 7.71875 11.625 
Q 12.109375 9.234375 16.796875 8.0625 
Q 21.484375 6.890625 26.703125 6.890625 
Q 35.15625 6.890625 40.078125 11.328125 
Q 45.015625 15.765625 45.015625 23.390625 
Q 45.015625 31 40.078125 35.4375 
Q 35.15625 39.890625 26.703125 39.890625 
Q 22.75 39.890625 18.8125 39.015625 
Q 14.890625 38.140625 10.796875 36.28125 
z
" id="DejaVuSans-53"/>
      </defs>
      <g transform="translate(398.888409 322.182437)scale(0.1 -0.1)">
       <use xlink:href="#DejaVuSans-53"/>
       <use x="63.623047" xlink:href="#DejaVuSans-48"/>
      </g>
     </g>
    </g>
   </g>
   <g id="matplotlib.axis_2">
    <g id="ytick_1">
     <g id="line2d_7">
      <defs>
       <path d="M 0 0 
L -3.5 0 
" id="m52179db501" style="stroke:#000000;stroke-width:0.8;"/>
      </defs>
      <g>
       <use style="stroke:#000000;stroke-width:0.8;" x="57.6" xlink:href="#m52179db501" y="303.598293"/>
      </g>
     </g>
     <g id="text_7">
      <!-- 0 -->
      <g transform="translate(44.2375 307.397511)scale(0.1 -0.1)">
       <use xlink:href="#DejaVuSans-48"/>
      </g>
     </g>
    </g>
    <g id="ytick_2">
     <g id="line2d_8">
      <g>
       <use style="stroke:#000000;stroke-width:0.8;" x="57.6" xlink:href="#m52179db501" y="267.610895"/>
      </g>
     </g>
     <g id="text_8">
      <!-- 500 -->
      <g transform="translate(31.5125 271.410114)scale(0.1 -0.1)">
       <use xlink:href="#DejaVuSans-53"/>
       <use x="63.623047" xlink:href="#DejaVuSans-48"/>
       <use x="127.246094" xlink:href="#DejaVuSans-48"/>
      </g>
     </g>
    </g>
    <g id="ytick_3">
     <g id="line2d_9">
      <g>
       <use style="stroke:#000000;stroke-width:0.8;" x="57.6" xlink:href="#m52179db501" y="231.623497"/>
      </g>
     </g>
     <g id="text_9">
      <!-- 1000 -->
      <g transform="translate(25.15 235.422716)scale(0.1 -0.1)">
       <use xlink:href="#DejaVuSans-49"/>
       <use x="63.623047" xlink:href="#DejaVuSans-48"/>
       <use x="127.246094" xlink:href="#DejaVuSans-48"/>
       <use x="190.869141" xlink:href="#DejaVuSans-48"/>
      </g>
     </g>
    </g>
    <g id="ytick_4">
     <g id="line2d_10">
      <g>
       <use style="stroke:#000000;stroke-width:0.8;" x="57.6" xlink:href="#m52179db501" y="195.636099"/>
      </g>
     </g>
     <g id="text_10">
      <!-- 1500 -->
      <g transform="translate(25.15 199.435318)scale(0.1 -0.1)">
       <use xlink:href="#DejaVuSans-49"/>
       <use x="63.623047" xlink:href="#DejaVuSans-53"/>
       <use x="127.246094" xlink:href="#DejaVuSans-48"/>
       <use x="190.869141" xlink:href="#DejaVuSans-48"/>
      </g>
     </g>
    </g>
    <g id="ytick_5">
     <g id="line2d_11">
      <g>
       <use style="stroke:#000000;stroke-width:0.8;" x="57.6" xlink:href="#m52179db501" y="159.648701"/>
      </g>
     </g>
     <g id="text_11">
      <!-- 2000 -->
      <g transform="translate(25.15 163.44792)scale(0.1 -0.1)">
       <use xlink:href="#DejaVuSans-50"/>
       <use x="63.623047" xlink:href="#DejaVuSans-48"/>
       <use x="127.246094" xlink:href="#DejaVuSans-48"/>
       <use x="190.869141" xlink:href="#DejaVuSans-48"/>
      </g>
     </g>
    </g>
    <g id="ytick_6">
     <g id="line2d_12">
      <g>
       <use style="stroke:#000000;stroke-width:0.8;" x="57.6" xlink:href="#m52179db501" y="123.661303"/>
      </g>
     </g>
     <g id="text_12">
      <!-- 2500 -->
      <g transform="translate(25.15 127.460522)scale(0.1 -0.1)">
       <use xlink:href="#DejaVuSans-50"/>
       <use x="63.623047" xlink:href="#DejaVuSans-53"/>
       <use x="127.246094" xlink:href="#DejaVuSans-48"/>
       <use x="190.869141" xlink:href="#DejaVuSans-48"/>
      </g>
     </g>
    </g>
    <g id="ytick_7">
     <g id="line2d_13">
      <g>
       <use style="stroke:#000000;stroke-width:0.8;" x="57.6" xlink:href="#m52179db501" y="87.673905"/>
      </g>
     </g>
     <g id="text_13">
      <!-- 3000 -->
      <g transform="translate(25.15 91.473124)scale(0.1 -0.1)">
       <use xlink:href="#DejaVuSans-51"/>
       <use x="63.623047" xlink:href="#DejaVuSans-48"/>
       <use x="127.246094" xlink:href="#DejaVuSans-48"/>
       <use x="190.869141" xlink:href="#DejaVuSans-48"/>
      </g>
     </g>
    </g>
    <g id="ytick_8">
     <g id="line2d_14">
      <g>
       <use style="stroke:#000000;stroke-width:0.8;" x="57.6" xlink:href="#m52179db501" y="51.686507"/>
      </g>
     </g>
     <g id="text_14">
      <!-- 3500 -->
      <g transform="translate(25.15 55.485726)scale(0.1 -0.1)">
       <use xlink:href="#DejaVuSans-51"/>
       <use x="63.623047" xlink:href="#DejaVuSans-53"/>
       <use x="127.246094" xlink:href="#DejaVuSans-48"/>
       <use x="190.869141" xlink:href="#DejaVuSans-48"/>
      </g>
     </g>
    </g>
   </g>
   <g id="line2d_15">
    <path clip-path="url(#p291bade405)" d="M 73.832727 55.887538 
L 80.596364 103.146524 
L 87.36 198.348407 
L 94.123636 222.519981 
L 100.887273 241.495252 
L 107.650909 251.858277 
L 114.414545 259.394546 
L 121.178182 264.653978 
L 127.941818 268.656783 
L 134.705455 271.746116 
L 141.469091 274.220847 
L 148.232727 276.241058 
L 154.996364 277.926785 
L 161.76 279.356043 
L 168.523636 280.586581 
L 175.287273 281.659531 
L 182.050909 282.605964 
L 188.814545 283.449197 
L 195.578182 284.207305 
L 202.341818 284.894333 
L 209.105455 285.521433 
L 215.869091 286.097501 
L 222.632727 286.629749 
L 229.396364 287.124051 
L 236.16 287.585255 
L 242.923636 288.01738 
L 249.687273 288.423794 
L 256.450909 288.807328 
L 263.214545 289.170392 
L 269.978182 289.515033 
L 276.741818 289.843019 
L 283.505455 290.155861 
L 290.269091 290.454892 
L 297.032727 290.741241 
L 303.796364 291.01595 
L 310.56 291.279845 
L 317.323636 291.533819 
L 324.087273 291.778358 
L 330.850909 292.014498 
L 337.614545 292.241921 
L 344.378182 292.463019 
L 351.141818 292.673969 
L 357.905455 292.88512 
L 364.669091 293.07295 
L 371.432727 293.296864 
L 378.196364 293.407058 
L 384.96 293.795141 
L 391.723636 293.416311 
L 398.487273 295.125674 
" style="fill:none;stroke:#0000ff;stroke-linecap:square;stroke-width:1.5;"/>
    <defs>
     <path d="M 0 3 
C 0.795609 3 1.55874 2.683901 2.12132 2.12132 
C 2.683901 1.55874 3 0.795609 3 0 
C 3 -0.795609 2.683901 -1.55874 2.12132 -2.12132 
C 1.55874 -2.683901 0.795609 -3 0 -3 
C -0.795609 -3 -1.55874 -2.683901 -2.12132 -2.12132 
C -2.683901 -1.55874 -3 -0.795609 -3 0 
C -3 0.795609 -2.683901 1.55874 -2.12132 2.12132 
C -1.55874 2.683901 -0.795609 3 0 3 
z
" id="m80c621446f" style="stroke:#0000ff;"/>
    </defs>
    <g clip-path="url(#p291bade405)">
     <use style="fill:#0000ff;stroke:#0000ff;" x="73.832727" xlink:href="#m80c621446f" y="55.887538"/>
     <use style="fill:#0000ff;stroke:#0000ff;" x="80.596364" xlink:href="#m80c621446f" y="103.146524"/>
     <use style="fill:#0000ff;stroke:#0000ff;" x="87.36" xlink:href="#m80c621446f" y="198.348407"/>
     <use style="fill:#0000ff;stroke:#0000ff;" x="94.123636" xlink:href="#m80c621446f" y="222.519981"/>
     <use style="fill:#0000ff;stroke:#0000ff;" x="100.887273" xlink:href="#m80c621446f" y="241.495252"/>
     <use style="fill:#0000ff;stroke:#0000ff;" x="107.650909" xlink:href="#m80c621446f" y="251.858277"/>
     <use style="fill:#0000ff;stroke:#0000ff;" x="114.414545" xlink:href="#m80c621446f" y="259.394546"/>
     <use style="fill:#0000ff;stroke:#0000ff;" x="121.178182" xlink:href="#m80c621446f" y="264.653978"/>
     <use style="fill:#0000ff;stroke:#0000ff;" x="127.941818" xlink:href="#m80c621446f" y="268.656783"/>
     <use style="fill:#0000ff;stroke:#0000ff;" x="134.705455" xlink:href="#m80c621446f" y="271.746116"/>
     <use style="fill:#0000ff;stroke:#0000ff;" x="141.469091" xlink:href="#m80c621446f" y="274.220847"/>
     <use style="fill:#0000ff;stroke:#0000ff;" x="148.232727" xlink:href="#m80c621446f" y="276.241058"/>
     <use style="fill:#0000ff;stroke:#0000ff;" x="154.996364" xlink:href="#m80c621446f" y="277.926785"/>
     <use style="fill:#0000ff;stroke:#0000ff;" x="161.76" xlink:href="#m80c621446f" y="279.356043"/>
     <use style="fill:#0000ff;stroke:#0000ff;" x="168.523636" xlink:href="#m80c621446f" y="280.586581"/>
     <use style="fill:#0000ff;stroke:#0000ff;" x="175.287273" xlink:href="#m80c621446f" y="281.659531"/>
     <use style="fill:#0000ff;stroke:#0000ff;" x="182.050909" xlink:href="#m80c621446f" y="282.605964"/>
     <use style="fill:#0000ff;stroke:#0000ff;" x="188.814545" xlink:href="#m80c621446f" y="283.449197"/>
     <use style="fill:#0000ff;stroke:#0000ff;" x="195.578182" xlink:href="#m80c621446f" y="284.207305"/>
     <use style="fill:#0000ff;stroke:#0000ff;" x="202.341818" xlink:href="#m80c621446f" y="284.894333"/>
     <use style="fill:#0000ff;stroke:#0000ff;" x="209.105455" xlink:href="#m80c621446f" y="285.521433"/>
     <use style="fill:#0000ff;stroke:#0000ff;" x="215.869091" xlink:href="#m80c621446f" y="286.097501"/>
     <use style="fill:#0000ff;stroke:#0000ff;" x="222.632727" xlink:href="#m80c621446f" y="286.629749"/>
     <use style="fill:#0000ff;stroke:#0000ff;" x="229.396364" xlink:href="#m80c621446f" y="287.124051"/>
     <use style="fill:#0000ff;stroke:#0000ff;" x="236.16" xlink:href="#m80c621446f" y="287.585255"/>
     <use style="fill:#0000ff;stroke:#0000ff;" x="242.923636" xlink:href="#m80c621446f" y="288.01738"/>
     <use style="fill:#0000ff;stroke:#0000ff;" x="249.687273" xlink:href="#m80c621446f" y="288.423794"/>
     <use style="fill:#0000ff;stroke:#0000ff;" x="256.450909" xlink:href="#m80c621446f" y="288.807328"/>
     <use style="fill:#0000ff;stroke:#0000ff;" x="263.214545" xlink:href="#m80c621446f" y="289.170392"/>
     <use style="fill:#0000ff;stroke:#0000ff;" x="269.978182" xlink:href="#m80c621446f" y="289.515033"/>
     <use style="fill:#0000ff;stroke:#0000ff;" x="276.741818" xlink:href="#m80c621446f" y="289.843019"/>
     <use style="fill:#0000ff;stroke:#0000ff;" x="283.505455" xlink:href="#m80c621446f" y="290.155861"/>
     <use style="fill:#0000ff;stroke:#0000ff;" x="290.269091" xlink:href="#m80c621446f" y="290.454892"/>
     <use style="fill:#0000ff;stroke:#0000ff;" x="297.032727" xlink:href="#m80c621446f" y="290.741241"/>
     <use style="fill:#0000ff;stroke:#0000ff;" x="303.796364" xlink:href="#m80c621446f" y="291.01595"/>
     <use style="fill:#0000ff;stroke:#0000ff;" x="310.56" xlink:href="#m80c621446f" y="291.279845"/>
     <use style="fill:#0000ff;stroke:#0000ff;" x="317.323636" xlink:href="#m80c621446f" y="291.533819"/>
     <use style="fill:#0000ff;stroke:#0000ff;" x="324.087273" xlink:href="#m80c621446f" y="291.778358"/>
     <use style="fill:#0000ff;stroke:#0000ff;" x="330.850909" xlink:href="#m80c621446f" y="292.014498"/>
     <use style="fill:#0000ff;stroke:#0000ff;" x="337.614545" xlink:href="#m80c621446f" y="292.241921"/>
     <use style="fill:#0000ff;stroke:#0000ff;" x="344.378182" xlink:href="#m80c621446f" y="292.463019"/>
     <use style="fill:#0000ff;stroke:#0000ff;" x="351.141818" xlink:href="#m80c621446f" y="292.673969"/>
     <use style="fill:#0000ff;stroke:#0000ff;" x="357.905455" xlink:href="#m80c621446f" y="292.88512"/>
     <use style="fill:#0000ff;stroke:#0000ff;" x="364.669091" xlink:href="#m80c621446f" y="293.07295"/>
     <use style="fill:#0000ff;stroke:#0000ff;" x="371.432727" xlink:href="#m80c621446f" y="293.296864"/>
     <use style="fill:#0000ff;stroke:#0000ff;" x="378.196364" xlink:href="#m80c621446f" y="293.407058"/>
     <use style="fill:#0000ff;stroke:#0000ff;" x="384.96" xlink:href="#m80c621446f" y="293.795141"/>
     <use style="fill:#0000ff;stroke:#0000ff;" x="391.723636" xlink:href="#m80c621446f" y="293.416311"/>
     <use style="fill:#0000ff;stroke:#0000ff;" x="398.487273" xlink:href="#m80c621446f" y="295.125674"/>
    </g>
   </g>
   <g id="line2d_16">
    <path clip-path="url(#p291bade405)" d="M 73.832727 53.568 
L 80.596364 110.06001 
L 87.36 202.052278 
L 94.123636 223.426618 
L 100.887273 243.096869 
L 107.650909 252.902125 
L 114.414545 260.510452 
L 121.178182 265.584027 
L 127.941818 269.498491 
L 134.705455 272.601713 
L 141.469091 275.028444 
L 148.232727 276.959658 
L 154.996364 278.500609 
L 161.76 279.854484 
L 168.523636 281.025816 
L 175.287273 282.071797 
L 182.050909 282.960341 
L 188.814545 283.77236 
L 195.578182 284.579831 
L 202.341818 285.253098 
L 209.105455 285.874629 
L 215.869091 286.554388 
L 222.632727 287.101194 
L 229.396364 287.582072 
L 236.16 288.016556 
L 242.923636 288.469939 
L 249.687273 288.905228 
L 256.450909 289.260856 
L 263.214545 289.596921 
L 269.978182 289.957126 
L 276.741818 290.267323 
L 283.505455 290.51231 
L 290.269091 290.838745 
L 297.032727 291.096933 
L 303.796364 291.356877 
L 310.56 291.631677 
L 317.323636 291.887403 
L 324.087273 292.138149 
L 330.850909 292.309723 
L 337.614545 292.562282 
L 344.378182 292.657548 
L 351.141818 292.933269 
L 357.905455 293.140024 
L 364.669091 293.347873 
L 371.432727 293.594732 
L 378.196364 293.64248 
L 384.96 294.098555 
L 391.723636 293.786732 
L 398.487273 295.488 
" style="fill:none;stroke:#008000;stroke-linecap:square;stroke-width:1.5;"/>
    <defs>
     <path d="M 0 3 
C 0.795609 3 1.55874 2.683901 2.12132 2.12132 
C 2.683901 1.55874 3 0.795609 3 0 
C 3 -0.795609 2.683901 -1.55874 2.12132 -2.12132 
C 1.55874 -2.683901 0.795609 -3 0 -3 
C -0.795609 -3 -1.55874 -2.683901 -2.12132 -2.12132 
C -2.683901 -1.55874 -3 -0.795609 -3 0 
C -3 0.795609 -2.683901 1.55874 -2.12132 2.12132 
C -1.55874 2.683901 -0.795609 3 0 3 
z
" id="m54a4f532ef" style="stroke:#008000;"/>
    </defs>
    <g clip-path="url(#p291bade405)">
     <use style="fill:#008000;stroke:#008000;" x="73.832727" xlink:href="#m54a4f532ef" y="53.568"/>
     <use style="fill:#008000;stroke:#008000;" x="80.596364" xlink:href="#m54a4f532ef" y="110.06001"/>
     <use style="fill:#008000;stroke:#008000;" x="87.36" xlink:href="#m54a4f532ef" y="202.052278"/>
     <use style="fill:#008000;stroke:#008000;" x="94.123636" xlink:href="#m54a4f532ef" y="223.426618"/>
     <use style="fill:#008000;stroke:#008000;" x="100.887273" xlink:href="#m54a4f532ef" y="243.096869"/>
     <use style="fill:#008000;stroke:#008000;" x="107.650909" xlink:href="#m54a4f532ef" y="252.902125"/>
     <use style="fill:#008000;stroke:#008000;" x="114.414545" xlink:href="#m54a4f532ef" y="260.510452"/>
     <use style="fill:#008000;stroke:#008000;" x="121.178182" xlink:href="#m54a4f532ef" y="265.584027"/>
     <use style="fill:#008000;stroke:#008000;" x="127.941818" xlink:href="#m54a4f532ef" y="269.498491"/>
     <use style="fill:#008000;stroke:#008000;" x="134.705455" xlink:href="#m54a4f532ef" y="272.601713"/>
     <use style="fill:#008000;stroke:#008000;" x="141.469091" xlink:href="#m54a4f532ef" y="275.028444"/>
     <use style="fill:#008000;stroke:#008000;" x="148.232727" xlink:href="#m54a4f532ef" y="276.959658"/>
     <use style="fill:#008000;stroke:#008000;" x="154.996364" xlink:href="#m54a4f532ef" y="278.500609"/>
     <use style="fill:#008000;stroke:#008000;" x="161.76" xlink:href="#m54a4f532ef" y="279.854484"/>
     <use style="fill:#008000;stroke:#008000;" x="168.523636" xlink:href="#m54a4f532ef" y="281.025816"/>
     <use style="fill:#008000;stroke:#008000;" x="175.287273" xlink:href="#m54a4f532ef" y="282.071797"/>
     <use style="fill:#008000;stroke:#008000;" x="182.050909" xlink:href="#m54a4f532ef" y="282.960341"/>
     <use style="fill:#008000;stroke:#008000;" x="188.814545" xlink:href="#m54a4f532ef" y="283.77236"/>
     <use style="fill:#008000;stroke:#008000;" x="195.578182" xlink:href="#m54a4f532ef" y="284.579831"/>
     <use style="fill:#008000;stroke:#008000;" x="202.341818" xlink:href="#m54a4f532ef" y="285.253098"/>
     <use style="fill:#008000;stroke:#008000;" x="209.105455" xlink:href="#m54a4f532ef" y="285.874629"/>
     <use style="fill:#008000;stroke:#008000;" x="215.869091" xlink:href="#m54a4f532ef" y="286.554388"/>
     <use style="fill:#008000;stroke:#008000;" x="222.632727" xlink:href="#m54a4f532ef" y="287.101194"/>
     <use style="fill:#008000;stroke:#008000;" x="229.396364" xlink:href="#m54a4f532ef" y="287.582072"/>
     <use style="fill:#008000;stroke:#008000;" x="236.16" xlink:href="#m54a4f532ef" y="288.016556"/>
     <use style="fill:#008000;stroke:#008000;" x="242.923636" xlink:href="#m54a4f532ef" y="288.469939"/>
     <use style="fill:#008000;stroke:#008000;" x="249.687273" xlink:href="#m54a4f532ef" y="288.905228"/>
     <use style="fill:#008000;stroke:#008000;" x="256.450909" xlink:href="#m54a4f532ef" y="289.260856"/>
     <use style="fill:#008000;stroke:#008000;" x="263.214545" xlink:href="#m54a4f532ef" y="289.596921"/>
     <use style="fill:#008000;stroke:#008000;" x="269.978182" xlink:href="#m54a4f532ef" y="289.957126"/>
     <use style="fill:#008000;stroke:#008000;" x="276.741818" xlink:href="#m54a4f532ef" y="290.267323"/>
     <use style="fill:#008000;stroke:#008000;" x="283.505455" xlink:href="#m54a4f532ef" y="290.51231"/>
     <use style="fill:#008000;stroke:#008000;" x="290.269091" xlink:href="#m54a4f532ef" y="290.838745"/>
     <use style="fill:#008000;stroke:#008000;" x="297.032727" xlink:href="#m54a4f532ef" y="291.096933"/>
     <use style="fill:#008000;stroke:#008000;" x="303.796364" xlink:href="#m54a4f532ef" y="291.356877"/>
     <use style="fill:#008000;stroke:#008000;" x="310.56" xlink:href="#m54a4f532ef" y="291.631677"/>
     <use style="fill:#008000;stroke:#008000;" x="317.323636" xlink:href="#m54a4f532ef" y="291.887403"/>
     <use style="fill:#008000;stroke:#008000;" x="324.087273" xlink:href="#m54a4f532ef" y="292.138149"/>
     <use style="fill:#008000;stroke:#008000;" x="330.850909" xlink:href="#m54a4f532ef" y="292.309723"/>
     <use style="fill:#008000;stroke:#008000;" x="337.614545" xlink:href="#m54a4f532ef" y="292.562282"/>
     <use style="fill:#008000;stroke:#008000;" x="344.378182" xlink:href="#m54a4f532ef" y="292.657548"/>
     <use style="fill:#008000;stroke:#008000;" x="351.141818" xlink:href="#m54a4f532ef" y="292.933269"/>
     <use style="fill:#008000;stroke:#008000;" x="357.905455" xlink:href="#m54a4f532ef" y="293.140024"/>
     <use style="fill:#008000;stroke:#008000;" x="364.669091" xlink:href="#m54a4f532ef" y="293.347873"/>
     <use style="fill:#008000;stroke:#008000;" x="371.432727" xlink:href="#m54a4f532ef" y="293.594732"/>
     <use style="fill:#008000;stroke:#008000;" x="378.196364" xlink:href="#m54a4f532ef" y="293.64248"/>
     <use style="fill:#008000;stroke:#008000;" x="384.96" xlink:href="#m54a4f532ef" y="294.098555"/>
     <use style="fill:#008000;stroke:#008000;" x="391.723636" xlink:href="#m54a4f532ef" y="293.786732"/>
     <use style="fill:#008000;stroke:#008000;" x="398.487273" xlink:href="#m54a4f532ef" y="295.488"/>
    </g>
   </g>
   <g id="patch_3">
    <path d="M 57.6 307.584 
L 57.6 41.472 
" style="fill:none;stroke:#000000;stroke-linecap:square;stroke-linejoin:miter;stroke-width:0.8;"/>
   </g>
   <g id="patch_4">
    <path d="M 414.72 307.584 
L 414.72 41.472 
" style="fill:none;stroke:#000000;stroke-linecap:square;stroke-linejoin:miter;stroke-width:0.8;"/>
   </g>
   <g id="patch_5">
    <path d="M 57.6 307.584 
L 414.72 307.584 
" style="fill:none;stroke:#000000;stroke-linecap:square;stroke-linejoin:miter;stroke-width:0.8;"/>
   </g>
   <g id="patch_6">
    <path d="M 57.6 41.472 
L 414.72 41.472 
" style="fill:none;stroke:#000000;stroke-linecap:square;stroke-linejoin:miter;stroke-width:0.8;"/>
   </g>
  </g>
 </g>
 <defs>
  <clipPath id="p291bade405">
   <rect height="266.112" width="357.12" x="57.6" y="41.472"/>
  </clipPath>
 </defs>
</svg>
