<?xml version="1.0" encoding="utf-8" standalone="no"?>
<!DOCTYPE svg PUBLIC "-//W3C//DTD SVG 1.1//EN"
  "http://www.w3.org/Graphics/SVG/1.1/DTD/svg11.dtd">
<!-- Created with matplotlib (https://matplotlib.org/) -->
<svg height="345.6pt" version="1.1" viewBox="0 0 460.8 345.6" width="460.8pt" xmlns="http://www.w3.org/2000/svg" xmlns:xlink="http://www.w3.org/1999/xlink">
 <defs>
  <style type="text/css">
*{stroke-linecap:butt;stroke-linejoin:round;}
  </style>
 </defs>
 <g id="figure_1">
  <g id="patch_1">
   <path d="M 0 345.6 
L 460.8 345.6 
L 460.8 0 
L 0 0 
z
" style="fill:#ffffff;"/>
  </g>
  <g id="axes_1">
   <g id="patch_2">
    <path d="M 57.6 307.584 
L 414.72 307.584 
L 414.72 41.472 
L 57.6 41.472 
z
" style="fill:#ffffff;"/>
   </g>
   <g id="matplotlib.axis_1">
    <g id="xtick_1">
     <g id="line2d_1">
      <defs>
       <path d="M 0 0 
L 0 3.5 
" id="m77e1247972" style="stroke:#000000;stroke-width:0.8;"/>
      </defs>
      <g>
       <use style="stroke:#000000;stroke-width:0.8;" x="67.069091" xlink:href="#m77e1247972" y="307.584"/>
      </g>
     </g>
     <g id="text_1">
      <!-- 0 -->
      <defs>
       <path d="M 31.78125 66.40625 
Q 24.171875 66.40625 20.328125 58.90625 
Q 16.5 51.421875 16.5 36.375 
Q 16.5 21.390625 20.328125 13.890625 
Q 24.171875 6.390625 31.78125 6.390625 
Q 39.453125 6.390625 43.28125 13.890625 
Q 47.125 21.390625 47.125 36.375 
Q 47.125 51.421875 43.28125 58.90625 
Q 39.453125 66.40625 31.78125 66.40625 
z
M 31.78125 74.21875 
Q 44.046875 74.21875 50.515625 64.515625 
Q 56.984375 54.828125 56.984375 36.375 
Q 56.984375 17.96875 50.515625 8.265625 
Q 44.046875 -1.421875 31.78125 -1.421875 
Q 19.53125 -1.421875 13.0625 8.265625 
Q 6.59375 17.96875 6.59375 36.375 
Q 6.59375 54.828125 13.0625 64.515625 
Q 19.53125 74.21875 31.78125 74.21875 
z
" id="DejaVuSans-48"/>
      </defs>
      <g transform="translate(63.887841 322.182437)scale(0.1 -0.1)">
       <use xlink:href="#DejaVuSans-48"/>
      </g>
     </g>
    </g>
    <g id="xtick_2">
     <g id="line2d_2">
      <g>
       <use style="stroke:#000000;stroke-width:0.8;" x="134.705455" xlink:href="#m77e1247972" y="307.584"/>
      </g>
     </g>
     <g id="text_2">
      <!-- 10 -->
      <defs>
       <path d="M 12.40625 8.296875 
L 28.515625 8.296875 
L 28.515625 63.921875 
L 10.984375 60.40625 
L 10.984375 69.390625 
L 28.421875 72.90625 
L 38.28125 72.90625 
L 38.28125 8.296875 
L 54.390625 8.296875 
L 54.390625 0 
L 12.40625 0 
z
" id="DejaVuSans-49"/>
      </defs>
      <g transform="translate(128.342955 322.182437)scale(0.1 -0.1)">
       <use xlink:href="#DejaVuSans-49"/>
       <use x="63.623047" xlink:href="#DejaVuSans-48"/>
      </g>
     </g>
    </g>
    <g id="xtick_3">
     <g id="line2d_3">
      <g>
       <use style="stroke:#000000;stroke-width:0.8;" x="202.341818" xlink:href="#m77e1247972" y="307.584"/>
      </g>
     </g>
     <g id="text_3">
      <!-- 20 -->
      <defs>
       <path d="M 19.1875 8.296875 
L 53.609375 8.296875 
L 53.609375 0 
L 7.328125 0 
L 7.328125 8.296875 
Q 12.9375 14.109375 22.625 23.890625 
Q 32.328125 33.6875 34.8125 36.53125 
Q 39.546875 41.84375 41.421875 45.53125 
Q 43.3125 49.21875 43.3125 52.78125 
Q 43.3125 58.59375 39.234375 62.25 
Q 35.15625 65.921875 28.609375 65.921875 
Q 23.96875 65.921875 18.8125 64.3125 
Q 13.671875 62.703125 7.8125 59.421875 
L 7.8125 69.390625 
Q 13.765625 71.78125 18.9375 73 
Q 24.125 74.21875 28.421875 74.21875 
Q 39.75 74.21875 46.484375 68.546875 
Q 53.21875 62.890625 53.21875 53.421875 
Q 53.21875 48.921875 51.53125 44.890625 
Q 49.859375 40.875 45.40625 35.40625 
Q 44.1875 33.984375 37.640625 27.21875 
Q 31.109375 20.453125 19.1875 8.296875 
z
" id="DejaVuSans-50"/>
      </defs>
      <g transform="translate(195.979318 322.182437)scale(0.1 -0.1)">
       <use xlink:href="#DejaVuSans-50"/>
       <use x="63.623047" xlink:href="#DejaVuSans-48"/>
      </g>
     </g>
    </g>
    <g id="xtick_4">
     <g id="line2d_4">
      <g>
       <use style="stroke:#000000;stroke-width:0.8;" x="269.978182" xlink:href="#m77e1247972" y="307.584"/>
      </g>
     </g>
     <g id="text_4">
      <!-- 30 -->
      <defs>
       <path d="M 40.578125 39.3125 
Q 47.65625 37.796875 51.625 33 
Q 55.609375 28.21875 55.609375 21.1875 
Q 55.609375 10.40625 48.1875 4.484375 
Q 40.765625 -1.421875 27.09375 -1.421875 
Q 22.515625 -1.421875 17.65625 -0.515625 
Q 12.796875 0.390625 7.625 2.203125 
L 7.625 11.71875 
Q 11.71875 9.328125 16.59375 8.109375 
Q 21.484375 6.890625 26.8125 6.890625 
Q 36.078125 6.890625 40.9375 10.546875 
Q 45.796875 14.203125 45.796875 21.1875 
Q 45.796875 27.640625 41.28125 31.265625 
Q 36.765625 34.90625 28.71875 34.90625 
L 20.21875 34.90625 
L 20.21875 43.015625 
L 29.109375 43.015625 
Q 36.375 43.015625 40.234375 45.921875 
Q 44.09375 48.828125 44.09375 54.296875 
Q 44.09375 59.90625 40.109375 62.90625 
Q 36.140625 65.921875 28.71875 65.921875 
Q 24.65625 65.921875 20.015625 65.03125 
Q 15.375 64.15625 9.8125 62.3125 
L 9.8125 71.09375 
Q 15.4375 72.65625 20.34375 73.4375 
Q 25.25 74.21875 29.59375 74.21875 
Q 40.828125 74.21875 47.359375 69.109375 
Q 53.90625 64.015625 53.90625 55.328125 
Q 53.90625 49.265625 50.4375 45.09375 
Q 46.96875 40.921875 40.578125 39.3125 
z
" id="DejaVuSans-51"/>
      </defs>
      <g transform="translate(263.615682 322.182437)scale(0.1 -0.1)">
       <use xlink:href="#DejaVuSans-51"/>
       <use x="63.623047" xlink:href="#DejaVuSans-48"/>
      </g>
     </g>
    </g>
    <g id="xtick_5">
     <g id="line2d_5">
      <g>
       <use style="stroke:#000000;stroke-width:0.8;" x="337.614545" xlink:href="#m77e1247972" y="307.584"/>
      </g>
     </g>
     <g id="text_5">
      <!-- 40 -->
      <defs>
       <path d="M 37.796875 64.3125 
L 12.890625 25.390625 
L 37.796875 25.390625 
z
M 35.203125 72.90625 
L 47.609375 72.90625 
L 47.609375 25.390625 
L 58.015625 25.390625 
L 58.015625 17.1875 
L 47.609375 17.1875 
L 47.609375 0 
L 37.796875 0 
L 37.796875 17.1875 
L 4.890625 17.1875 
L 4.890625 26.703125 
z
" id="DejaVuSans-52"/>
      </defs>
      <g transform="translate(331.252045 322.182437)scale(0.1 -0.1)">
       <use xlink:href="#DejaVuSans-52"/>
       <use x="63.623047" xlink:href="#DejaVuSans-48"/>
      </g>
     </g>
    </g>
    <g id="xtick_6">
     <g id="line2d_6">
      <g>
       <use style="stroke:#000000;stroke-width:0.8;" x="405.250909" xlink:href="#m77e1247972" y="307.584"/>
      </g>
     </g>
     <g id="text_6">
      <!-- 50 -->
      <defs>
       <path d="M 10.796875 72.90625 
L 49.515625 72.90625 
L 49.515625 64.59375 
L 19.828125 64.59375 
L 19.828125 46.734375 
Q 21.96875 47.46875 24.109375 47.828125 
Q 26.265625 48.1875 28.421875 48.1875 
Q 40.625 48.1875 47.75 41.5 
Q 54.890625 34.8125 54.890625 23.390625 
Q 54.890625 11.625 47.5625 5.09375 
Q 40.234375 -1.421875 26.90625 -1.421875 
Q 22.3125 -1.421875 17.546875 -0.640625 
Q 12.796875 0.140625 7.71875 1.703125 
L 7.71875 11.625 
Q 12.109375 9.234375 16.796875 8.0625 
Q 21.484375 6.890625 26.703125 6.890625 
Q 35.15625 6.890625 40.078125 11.328125 
Q 45.015625 15.765625 45.015625 23.390625 
Q 45.015625 31 40.078125 35.4375 
Q 35.15625 39.890625 26.703125 39.890625 
Q 22.75 39.890625 18.8125 39.015625 
Q 14.890625 38.140625 10.796875 36.28125 
z
" id="DejaVuSans-53"/>
      </defs>
      <g transform="translate(398.888409 322.182437)scale(0.1 -0.1)">
       <use xlink:href="#DejaVuSans-53"/>
       <use x="63.623047" xlink:href="#DejaVuSans-48"/>
      </g>
     </g>
    </g>
   </g>
   <g id="matplotlib.axis_2">
    <g id="ytick_1">
     <g id="line2d_7">
      <defs>
       <path d="M 0 0 
L -3.5 0 
" id="m530b35b1d1" style="stroke:#000000;stroke-width:0.8;"/>
      </defs>
      <g>
       <use style="stroke:#000000;stroke-width:0.8;" x="57.6" xlink:href="#m530b35b1d1" y="297.365487"/>
      </g>
     </g>
     <g id="text_7">
      <!-- 0 -->
      <g transform="translate(44.2375 301.164705)scale(0.1 -0.1)">
       <use xlink:href="#DejaVuSans-48"/>
      </g>
     </g>
    </g>
    <g id="ytick_2">
     <g id="line2d_8">
      <g>
       <use style="stroke:#000000;stroke-width:0.8;" x="57.6" xlink:href="#m530b35b1d1" y="242.256555"/>
      </g>
     </g>
     <g id="text_8">
      <!-- 1000 -->
      <g transform="translate(25.15 246.055774)scale(0.1 -0.1)">
       <use xlink:href="#DejaVuSans-49"/>
       <use x="63.623047" xlink:href="#DejaVuSans-48"/>
       <use x="127.246094" xlink:href="#DejaVuSans-48"/>
       <use x="190.869141" xlink:href="#DejaVuSans-48"/>
      </g>
     </g>
    </g>
    <g id="ytick_3">
     <g id="line2d_9">
      <g>
       <use style="stroke:#000000;stroke-width:0.8;" x="57.6" xlink:href="#m530b35b1d1" y="187.147624"/>
      </g>
     </g>
     <g id="text_9">
      <!-- 2000 -->
      <g transform="translate(25.15 190.946842)scale(0.1 -0.1)">
       <use xlink:href="#DejaVuSans-50"/>
       <use x="63.623047" xlink:href="#DejaVuSans-48"/>
       <use x="127.246094" xlink:href="#DejaVuSans-48"/>
       <use x="190.869141" xlink:href="#DejaVuSans-48"/>
      </g>
     </g>
    </g>
    <g id="ytick_4">
     <g id="line2d_10">
      <g>
       <use style="stroke:#000000;stroke-width:0.8;" x="57.6" xlink:href="#m530b35b1d1" y="132.038692"/>
      </g>
     </g>
     <g id="text_10">
      <!-- 3000 -->
      <g transform="translate(25.15 135.837911)scale(0.1 -0.1)">
       <use xlink:href="#DejaVuSans-51"/>
       <use x="63.623047" xlink:href="#DejaVuSans-48"/>
       <use x="127.246094" xlink:href="#DejaVuSans-48"/>
       <use x="190.869141" xlink:href="#DejaVuSans-48"/>
      </g>
     </g>
    </g>
    <g id="ytick_5">
     <g id="line2d_11">
      <g>
       <use style="stroke:#000000;stroke-width:0.8;" x="57.6" xlink:href="#m530b35b1d1" y="76.92976"/>
      </g>
     </g>
     <g id="text_11">
      <!-- 4000 -->
      <g transform="translate(25.15 80.728979)scale(0.1 -0.1)">
       <use xlink:href="#DejaVuSans-52"/>
       <use x="63.623047" xlink:href="#DejaVuSans-48"/>
       <use x="127.246094" xlink:href="#DejaVuSans-48"/>
       <use x="190.869141" xlink:href="#DejaVuSans-48"/>
      </g>
     </g>
    </g>
   </g>
   <g id="line2d_12">
    <path clip-path="url(#p7decbd5bb4)" d="M 73.832727 246.213294 
L 80.596364 53.568 
L 87.36 255.784208 
L 94.123636 190.22367 
L 100.887273 262.861978 
L 107.650909 232.378873 
L 114.414545 268.207003 
L 121.178182 251.84515 
L 127.941818 272.324569 
L 134.705455 262.694266 
L 141.469091 275.556376 
L 148.232727 269.472125 
L 154.996364 278.137638 
L 161.76 274.051765 
L 168.523636 280.233119 
L 175.287273 277.329124 
L 182.050909 281.960242 
L 188.814545 279.779285 
L 195.578182 283.404141 
L 202.341818 281.674193 
L 209.105455 284.627628 
L 215.869091 283.179017 
L 222.632727 285.6779 
L 229.396364 284.398854 
L 236.16 286.591159 
L 242.923636 285.403021 
L 249.687273 287.395857 
L 256.450909 286.238366 
L 263.214545 288.115066 
L 269.978182 286.936855 
L 276.741818 288.768308 
L 283.505455 287.51995 
L 290.269091 289.373088 
L 297.032727 288.001044 
L 303.796364 289.946344 
L 310.56 288.386567 
L 317.323636 290.506043 
L 324.087273 288.676008 
L 330.850909 291.073187 
L 337.614545 288.860811 
L 344.378182 291.674628 
L 351.141818 288.921822 
L 357.905455 292.347322 
L 364.669091 288.824619 
L 371.432727 293.145057 
L 378.196364 288.511431 
L 384.96 294.149408 
L 391.723636 287.887381 
L 398.487273 295.488 
" style="fill:none;stroke:#0000ff;stroke-linecap:square;stroke-width:1.5;"/>
    <defs>
     <path d="M 0 3 
C 0.795609 3 1.55874 2.683901 2.12132 2.12132 
C 2.683901 1.55874 3 0.795609 3 0 
C 3 -0.795609 2.683901 -1.55874 2.12132 -2.12132 
C 1.55874 -2.683901 0.795609 -3 0 -3 
C -0.795609 -3 -1.55874 -2.683901 -2.12132 -2.12132 
C -2.683901 -1.55874 -3 -0.795609 -3 0 
C -3 0.795609 -2.683901 1.55874 -2.12132 2.12132 
C -1.55874 2.683901 -0.795609 3 0 3 
z
" id="m8ba560ba95" style="stroke:#0000ff;"/>
    </defs>
    <g clip-path="url(#p7decbd5bb4)">
     <use style="fill:#0000ff;stroke:#0000ff;" x="73.832727" xlink:href="#m8ba560ba95" y="246.213294"/>
     <use style="fill:#0000ff;stroke:#0000ff;" x="80.596364" xlink:href="#m8ba560ba95" y="53.568"/>
     <use style="fill:#0000ff;stroke:#0000ff;" x="87.36" xlink:href="#m8ba560ba95" y="255.784208"/>
     <use style="fill:#0000ff;stroke:#0000ff;" x="94.123636" xlink:href="#m8ba560ba95" y="190.22367"/>
     <use style="fill:#0000ff;stroke:#0000ff;" x="100.887273" xlink:href="#m8ba560ba95" y="262.861978"/>
     <use style="fill:#0000ff;stroke:#0000ff;" x="107.650909" xlink:href="#m8ba560ba95" y="232.378873"/>
     <use style="fill:#0000ff;stroke:#0000ff;" x="114.414545" xlink:href="#m8ba560ba95" y="268.207003"/>
     <use style="fill:#0000ff;stroke:#0000ff;" x="121.178182" xlink:href="#m8ba560ba95" y="251.84515"/>
     <use style="fill:#0000ff;stroke:#0000ff;" x="127.941818" xlink:href="#m8ba560ba95" y="272.324569"/>
     <use style="fill:#0000ff;stroke:#0000ff;" x="134.705455" xlink:href="#m8ba560ba95" y="262.694266"/>
     <use style="fill:#0000ff;stroke:#0000ff;" x="141.469091" xlink:href="#m8ba560ba95" y="275.556376"/>
     <use style="fill:#0000ff;stroke:#0000ff;" x="148.232727" xlink:href="#m8ba560ba95" y="269.472125"/>
     <use style="fill:#0000ff;stroke:#0000ff;" x="154.996364" xlink:href="#m8ba560ba95" y="278.137638"/>
     <use style="fill:#0000ff;stroke:#0000ff;" x="161.76" xlink:href="#m8ba560ba95" y="274.051765"/>
     <use style="fill:#0000ff;stroke:#0000ff;" x="168.523636" xlink:href="#m8ba560ba95" y="280.233119"/>
     <use style="fill:#0000ff;stroke:#0000ff;" x="175.287273" xlink:href="#m8ba560ba95" y="277.329124"/>
     <use style="fill:#0000ff;stroke:#0000ff;" x="182.050909" xlink:href="#m8ba560ba95" y="281.960242"/>
     <use style="fill:#0000ff;stroke:#0000ff;" x="188.814545" xlink:href="#m8ba560ba95" y="279.779285"/>
     <use style="fill:#0000ff;stroke:#0000ff;" x="195.578182" xlink:href="#m8ba560ba95" y="283.404141"/>
     <use style="fill:#0000ff;stroke:#0000ff;" x="202.341818" xlink:href="#m8ba560ba95" y="281.674193"/>
     <use style="fill:#0000ff;stroke:#0000ff;" x="209.105455" xlink:href="#m8ba560ba95" y="284.627628"/>
     <use style="fill:#0000ff;stroke:#0000ff;" x="215.869091" xlink:href="#m8ba560ba95" y="283.179017"/>
     <use style="fill:#0000ff;stroke:#0000ff;" x="222.632727" xlink:href="#m8ba560ba95" y="285.6779"/>
     <use style="fill:#0000ff;stroke:#0000ff;" x="229.396364" xlink:href="#m8ba560ba95" y="284.398854"/>
     <use style="fill:#0000ff;stroke:#0000ff;" x="236.16" xlink:href="#m8ba560ba95" y="286.591159"/>
     <use style="fill:#0000ff;stroke:#0000ff;" x="242.923636" xlink:href="#m8ba560ba95" y="285.403021"/>
     <use style="fill:#0000ff;stroke:#0000ff;" x="249.687273" xlink:href="#m8ba560ba95" y="287.395857"/>
     <use style="fill:#0000ff;stroke:#0000ff;" x="256.450909" xlink:href="#m8ba560ba95" y="286.238366"/>
     <use style="fill:#0000ff;stroke:#0000ff;" x="263.214545" xlink:href="#m8ba560ba95" y="288.115066"/>
     <use style="fill:#0000ff;stroke:#0000ff;" x="269.978182" xlink:href="#m8ba560ba95" y="286.936855"/>
     <use style="fill:#0000ff;stroke:#0000ff;" x="276.741818" xlink:href="#m8ba560ba95" y="288.768308"/>
     <use style="fill:#0000ff;stroke:#0000ff;" x="283.505455" xlink:href="#m8ba560ba95" y="287.51995"/>
     <use style="fill:#0000ff;stroke:#0000ff;" x="290.269091" xlink:href="#m8ba560ba95" y="289.373088"/>
     <use style="fill:#0000ff;stroke:#0000ff;" x="297.032727" xlink:href="#m8ba560ba95" y="288.001044"/>
     <use style="fill:#0000ff;stroke:#0000ff;" x="303.796364" xlink:href="#m8ba560ba95" y="289.946344"/>
     <use style="fill:#0000ff;stroke:#0000ff;" x="310.56" xlink:href="#m8ba560ba95" y="288.386567"/>
     <use style="fill:#0000ff;stroke:#0000ff;" x="317.323636" xlink:href="#m8ba560ba95" y="290.506043"/>
     <use style="fill:#0000ff;stroke:#0000ff;" x="324.087273" xlink:href="#m8ba560ba95" y="288.676008"/>
     <use style="fill:#0000ff;stroke:#0000ff;" x="330.850909" xlink:href="#m8ba560ba95" y="291.073187"/>
     <use style="fill:#0000ff;stroke:#0000ff;" x="337.614545" xlink:href="#m8ba560ba95" y="288.860811"/>
     <use style="fill:#0000ff;stroke:#0000ff;" x="344.378182" xlink:href="#m8ba560ba95" y="291.674628"/>
     <use style="fill:#0000ff;stroke:#0000ff;" x="351.141818" xlink:href="#m8ba560ba95" y="288.921822"/>
     <use style="fill:#0000ff;stroke:#0000ff;" x="357.905455" xlink:href="#m8ba560ba95" y="292.347322"/>
     <use style="fill:#0000ff;stroke:#0000ff;" x="364.669091" xlink:href="#m8ba560ba95" y="288.824619"/>
     <use style="fill:#0000ff;stroke:#0000ff;" x="371.432727" xlink:href="#m8ba560ba95" y="293.145057"/>
     <use style="fill:#0000ff;stroke:#0000ff;" x="378.196364" xlink:href="#m8ba560ba95" y="288.511431"/>
     <use style="fill:#0000ff;stroke:#0000ff;" x="384.96" xlink:href="#m8ba560ba95" y="294.149408"/>
     <use style="fill:#0000ff;stroke:#0000ff;" x="391.723636" xlink:href="#m8ba560ba95" y="287.887381"/>
     <use style="fill:#0000ff;stroke:#0000ff;" x="398.487273" xlink:href="#m8ba560ba95" y="295.488"/>
    </g>
   </g>
   <g id="line2d_13">
    <path clip-path="url(#p7decbd5bb4)" d="M 73.832727 234.093225 
L 80.596364 64.807669 
L 87.36 256.106267 
L 94.123636 191.906412 
L 100.887273 263.159218 
L 107.650909 232.934901 
L 114.414545 268.290058 
L 121.178182 252.226389 
L 127.941818 272.308613 
L 134.705455 263.05255 
L 141.469091 275.645767 
L 148.232727 269.738519 
L 154.996364 278.371234 
L 161.76 274.427871 
L 168.523636 280.463136 
L 175.287273 277.651622 
L 182.050909 282.174357 
L 188.814545 280.184175 
L 195.578182 283.561923 
L 202.341818 281.97839 
L 209.105455 284.762945 
L 215.869091 283.300067 
L 222.632727 285.808449 
L 229.396364 284.602291 
L 236.16 286.732472 
L 242.923636 285.585115 
L 249.687273 287.532499 
L 256.450909 286.413347 
L 263.214545 288.233694 
L 269.978182 287.112426 
L 276.741818 288.878876 
L 283.505455 287.781371 
L 290.269091 289.515473 
L 297.032727 288.254823 
L 303.796364 290.115807 
L 310.56 288.703222 
L 317.323636 290.664736 
L 324.087273 288.969828 
L 330.850909 291.258138 
L 337.614545 289.175407 
L 344.378182 291.788375 
L 351.141818 289.210764 
L 357.905455 292.526757 
L 364.669091 289.136544 
L 371.432727 293.240164 
L 378.196364 288.915535 
L 384.96 294.187134 
L 391.723636 288.271146 
L 398.487273 295.443783 
" style="fill:none;stroke:#008000;stroke-linecap:square;stroke-width:1.5;"/>
    <defs>
     <path d="M 0 3 
C 0.795609 3 1.55874 2.683901 2.12132 2.12132 
C 2.683901 1.55874 3 0.795609 3 0 
C 3 -0.795609 2.683901 -1.55874 2.12132 -2.12132 
C 1.55874 -2.683901 0.795609 -3 0 -3 
C -0.795609 -3 -1.55874 -2.683901 -2.12132 -2.12132 
C -2.683901 -1.55874 -3 -0.795609 -3 0 
C -3 0.795609 -2.683901 1.55874 -2.12132 2.12132 
C -1.55874 2.683901 -0.795609 3 0 3 
z
" id="mc1d0ee6bf4" style="stroke:#008000;"/>
    </defs>
    <g clip-path="url(#p7decbd5bb4)">
     <use style="fill:#008000;stroke:#008000;" x="73.832727" xlink:href="#mc1d0ee6bf4" y="234.093225"/>
     <use style="fill:#008000;stroke:#008000;" x="80.596364" xlink:href="#mc1d0ee6bf4" y="64.807669"/>
     <use style="fill:#008000;stroke:#008000;" x="87.36" xlink:href="#mc1d0ee6bf4" y="256.106267"/>
     <use style="fill:#008000;stroke:#008000;" x="94.123636" xlink:href="#mc1d0ee6bf4" y="191.906412"/>
     <use style="fill:#008000;stroke:#008000;" x="100.887273" xlink:href="#mc1d0ee6bf4" y="263.159218"/>
     <use style="fill:#008000;stroke:#008000;" x="107.650909" xlink:href="#mc1d0ee6bf4" y="232.934901"/>
     <use style="fill:#008000;stroke:#008000;" x="114.414545" xlink:href="#mc1d0ee6bf4" y="268.290058"/>
     <use style="fill:#008000;stroke:#008000;" x="121.178182" xlink:href="#mc1d0ee6bf4" y="252.226389"/>
     <use style="fill:#008000;stroke:#008000;" x="127.941818" xlink:href="#mc1d0ee6bf4" y="272.308613"/>
     <use style="fill:#008000;stroke:#008000;" x="134.705455" xlink:href="#mc1d0ee6bf4" y="263.05255"/>
     <use style="fill:#008000;stroke:#008000;" x="141.469091" xlink:href="#mc1d0ee6bf4" y="275.645767"/>
     <use style="fill:#008000;stroke:#008000;" x="148.232727" xlink:href="#mc1d0ee6bf4" y="269.738519"/>
     <use style="fill:#008000;stroke:#008000;" x="154.996364" xlink:href="#mc1d0ee6bf4" y="278.371234"/>
     <use style="fill:#008000;stroke:#008000;" x="161.76" xlink:href="#mc1d0ee6bf4" y="274.427871"/>
     <use style="fill:#008000;stroke:#008000;" x="168.523636" xlink:href="#mc1d0ee6bf4" y="280.463136"/>
     <use style="fill:#008000;stroke:#008000;" x="175.287273" xlink:href="#mc1d0ee6bf4" y="277.651622"/>
     <use style="fill:#008000;stroke:#008000;" x="182.050909" xlink:href="#mc1d0ee6bf4" y="282.174357"/>
     <use style="fill:#008000;stroke:#008000;" x="188.814545" xlink:href="#mc1d0ee6bf4" y="280.184175"/>
     <use style="fill:#008000;stroke:#008000;" x="195.578182" xlink:href="#mc1d0ee6bf4" y="283.561923"/>
     <use style="fill:#008000;stroke:#008000;" x="202.341818" xlink:href="#mc1d0ee6bf4" y="281.97839"/>
     <use style="fill:#008000;stroke:#008000;" x="209.105455" xlink:href="#mc1d0ee6bf4" y="284.762945"/>
     <use style="fill:#008000;stroke:#008000;" x="215.869091" xlink:href="#mc1d0ee6bf4" y="283.300067"/>
     <use style="fill:#008000;stroke:#008000;" x="222.632727" xlink:href="#mc1d0ee6bf4" y="285.808449"/>
     <use style="fill:#008000;stroke:#008000;" x="229.396364" xlink:href="#mc1d0ee6bf4" y="284.602291"/>
     <use style="fill:#008000;stroke:#008000;" x="236.16" xlink:href="#mc1d0ee6bf4" y="286.732472"/>
     <use style="fill:#008000;stroke:#008000;" x="242.923636" xlink:href="#mc1d0ee6bf4" y="285.585115"/>
     <use style="fill:#008000;stroke:#008000;" x="249.687273" xlink:href="#mc1d0ee6bf4" y="287.532499"/>
     <use style="fill:#008000;stroke:#008000;" x="256.450909" xlink:href="#mc1d0ee6bf4" y="286.413347"/>
     <use style="fill:#008000;stroke:#008000;" x="263.214545" xlink:href="#mc1d0ee6bf4" y="288.233694"/>
     <use style="fill:#008000;stroke:#008000;" x="269.978182" xlink:href="#mc1d0ee6bf4" y="287.112426"/>
     <use style="fill:#008000;stroke:#008000;" x="276.741818" xlink:href="#mc1d0ee6bf4" y="288.878876"/>
     <use style="fill:#008000;stroke:#008000;" x="283.505455" xlink:href="#mc1d0ee6bf4" y="287.781371"/>
     <use style="fill:#008000;stroke:#008000;" x="290.269091" xlink:href="#mc1d0ee6bf4" y="289.515473"/>
     <use style="fill:#008000;stroke:#008000;" x="297.032727" xlink:href="#mc1d0ee6bf4" y="288.254823"/>
     <use style="fill:#008000;stroke:#008000;" x="303.796364" xlink:href="#mc1d0ee6bf4" y="290.115807"/>
     <use style="fill:#008000;stroke:#008000;" x="310.56" xlink:href="#mc1d0ee6bf4" y="288.703222"/>
     <use style="fill:#008000;stroke:#008000;" x="317.323636" xlink:href="#mc1d0ee6bf4" y="290.664736"/>
     <use style="fill:#008000;stroke:#008000;" x="324.087273" xlink:href="#mc1d0ee6bf4" y="288.969828"/>
     <use style="fill:#008000;stroke:#008000;" x="330.850909" xlink:href="#mc1d0ee6bf4" y="291.258138"/>
     <use style="fill:#008000;stroke:#008000;" x="337.614545" xlink:href="#mc1d0ee6bf4" y="289.175407"/>
     <use style="fill:#008000;stroke:#008000;" x="344.378182" xlink:href="#mc1d0ee6bf4" y="291.788375"/>
     <use style="fill:#008000;stroke:#008000;" x="351.141818" xlink:href="#mc1d0ee6bf4" y="289.210764"/>
     <use style="fill:#008000;stroke:#008000;" x="357.905455" xlink:href="#mc1d0ee6bf4" y="292.526757"/>
     <use style="fill:#008000;stroke:#008000;" x="364.669091" xlink:href="#mc1d0ee6bf4" y="289.136544"/>
     <use style="fill:#008000;stroke:#008000;" x="371.432727" xlink:href="#mc1d0ee6bf4" y="293.240164"/>
     <use style="fill:#008000;stroke:#008000;" x="378.196364" xlink:href="#mc1d0ee6bf4" y="288.915535"/>
     <use style="fill:#008000;stroke:#008000;" x="384.96" xlink:href="#mc1d0ee6bf4" y="294.187134"/>
     <use style="fill:#008000;stroke:#008000;" x="391.723636" xlink:href="#mc1d0ee6bf4" y="288.271146"/>
     <use style="fill:#008000;stroke:#008000;" x="398.487273" xlink:href="#mc1d0ee6bf4" y="295.443783"/>
    </g>
   </g>
   <g id="patch_3">
    <path d="M 57.6 307.584 
L 57.6 41.472 
" style="fill:none;stroke:#000000;stroke-linecap:square;stroke-linejoin:miter;stroke-width:0.8;"/>
   </g>
   <g id="patch_4">
    <path d="M 414.72 307.584 
L 414.72 41.472 
" style="fill:none;stroke:#000000;stroke-linecap:square;stroke-linejoin:miter;stroke-width:0.8;"/>
   </g>
   <g id="patch_5">
    <path d="M 57.6 307.584 
L 414.72 307.584 
" style="fill:none;stroke:#000000;stroke-linecap:square;stroke-linejoin:miter;stroke-width:0.8;"/>
   </g>
   <g id="patch_6">
    <path d="M 57.6 41.472 
L 414.72 41.472 
" style="fill:none;stroke:#000000;stroke-linecap:square;stroke-linejoin:miter;stroke-width:0.8;"/>
   </g>
  </g>
 </g>
 <defs>
  <clipPath id="p7decbd5bb4">
   <rect height="266.112" width="357.12" x="57.6" y="41.472"/>
  </clipPath>
 </defs>
</svg>
