<?xml version="1.0" encoding="utf-8" standalone="no"?>
<!DOCTYPE svg PUBLIC "-//W3C//DTD SVG 1.1//EN"
  "http://www.w3.org/Graphics/SVG/1.1/DTD/svg11.dtd">
<!-- Created with matplotlib (https://matplotlib.org/) -->
<svg height="345.6pt" version="1.1" viewBox="0 0 460.8 345.6" width="460.8pt" xmlns="http://www.w3.org/2000/svg" xmlns:xlink="http://www.w3.org/1999/xlink">
 <defs>
  <style type="text/css">
*{stroke-linecap:butt;stroke-linejoin:round;}
  </style>
 </defs>
 <g id="figure_1">
  <g id="patch_1">
   <path d="M 0 345.6 
L 460.8 345.6 
L 460.8 0 
L 0 0 
z
" style="fill:#ffffff;"/>
  </g>
  <g id="axes_1">
   <g id="patch_2">
    <path d="M 57.6 307.584 
L 414.72 307.584 
L 414.72 41.472 
L 57.6 41.472 
z
" style="fill:#ffffff;"/>
   </g>
   <g id="matplotlib.axis_1">
    <g id="xtick_1">
     <g id="line2d_1">
      <defs>
       <path d="M 0 0 
L 0 3.5 
" id="ma3d4c61ad6" style="stroke:#000000;stroke-width:0.8;"/>
      </defs>
      <g>
       <use style="stroke:#000000;stroke-width:0.8;" x="67.069091" xlink:href="#ma3d4c61ad6" y="307.584"/>
      </g>
     </g>
     <g id="text_1">
      <!-- 0 -->
      <defs>
       <path d="M 31.78125 66.40625 
Q 24.171875 66.40625 20.328125 58.90625 
Q 16.5 51.421875 16.5 36.375 
Q 16.5 21.390625 20.328125 13.890625 
Q 24.171875 6.390625 31.78125 6.390625 
Q 39.453125 6.390625 43.28125 13.890625 
Q 47.125 21.390625 47.125 36.375 
Q 47.125 51.421875 43.28125 58.90625 
Q 39.453125 66.40625 31.78125 66.40625 
z
M 31.78125 74.21875 
Q 44.046875 74.21875 50.515625 64.515625 
Q 56.984375 54.828125 56.984375 36.375 
Q 56.984375 17.96875 50.515625 8.265625 
Q 44.046875 -1.421875 31.78125 -1.421875 
Q 19.53125 -1.421875 13.0625 8.265625 
Q 6.59375 17.96875 6.59375 36.375 
Q 6.59375 54.828125 13.0625 64.515625 
Q 19.53125 74.21875 31.78125 74.21875 
z
" id="DejaVuSans-48"/>
      </defs>
      <g transform="translate(63.887841 322.182437)scale(0.1 -0.1)">
       <use xlink:href="#DejaVuSans-48"/>
      </g>
     </g>
    </g>
    <g id="xtick_2">
     <g id="line2d_2">
      <g>
       <use style="stroke:#000000;stroke-width:0.8;" x="134.705455" xlink:href="#ma3d4c61ad6" y="307.584"/>
      </g>
     </g>
     <g id="text_2">
      <!-- 10 -->
      <defs>
       <path d="M 12.40625 8.296875 
L 28.515625 8.296875 
L 28.515625 63.921875 
L 10.984375 60.40625 
L 10.984375 69.390625 
L 28.421875 72.90625 
L 38.28125 72.90625 
L 38.28125 8.296875 
L 54.390625 8.296875 
L 54.390625 0 
L 12.40625 0 
z
" id="DejaVuSans-49"/>
      </defs>
      <g transform="translate(128.342955 322.182437)scale(0.1 -0.1)">
       <use xlink:href="#DejaVuSans-49"/>
       <use x="63.623047" xlink:href="#DejaVuSans-48"/>
      </g>
     </g>
    </g>
    <g id="xtick_3">
     <g id="line2d_3">
      <g>
       <use style="stroke:#000000;stroke-width:0.8;" x="202.341818" xlink:href="#ma3d4c61ad6" y="307.584"/>
      </g>
     </g>
     <g id="text_3">
      <!-- 20 -->
      <defs>
       <path d="M 19.1875 8.296875 
L 53.609375 8.296875 
L 53.609375 0 
L 7.328125 0 
L 7.328125 8.296875 
Q 12.9375 14.109375 22.625 23.890625 
Q 32.328125 33.6875 34.8125 36.53125 
Q 39.546875 41.84375 41.421875 45.53125 
Q 43.3125 49.21875 43.3125 52.78125 
Q 43.3125 58.59375 39.234375 62.25 
Q 35.15625 65.921875 28.609375 65.921875 
Q 23.96875 65.921875 18.8125 64.3125 
Q 13.671875 62.703125 7.8125 59.421875 
L 7.8125 69.390625 
Q 13.765625 71.78125 18.9375 73 
Q 24.125 74.21875 28.421875 74.21875 
Q 39.75 74.21875 46.484375 68.546875 
Q 53.21875 62.890625 53.21875 53.421875 
Q 53.21875 48.921875 51.53125 44.890625 
Q 49.859375 40.875 45.40625 35.40625 
Q 44.1875 33.984375 37.640625 27.21875 
Q 31.109375 20.453125 19.1875 8.296875 
z
" id="DejaVuSans-50"/>
      </defs>
      <g transform="translate(195.979318 322.182437)scale(0.1 -0.1)">
       <use xlink:href="#DejaVuSans-50"/>
       <use x="63.623047" xlink:href="#DejaVuSans-48"/>
      </g>
     </g>
    </g>
    <g id="xtick_4">
     <g id="line2d_4">
      <g>
       <use style="stroke:#000000;stroke-width:0.8;" x="269.978182" xlink:href="#ma3d4c61ad6" y="307.584"/>
      </g>
     </g>
     <g id="text_4">
      <!-- 30 -->
      <defs>
       <path d="M 40.578125 39.3125 
Q 47.65625 37.796875 51.625 33 
Q 55.609375 28.21875 55.609375 21.1875 
Q 55.609375 10.40625 48.1875 4.484375 
Q 40.765625 -1.421875 27.09375 -1.421875 
Q 22.515625 -1.421875 17.65625 -0.515625 
Q 12.796875 0.390625 7.625 2.203125 
L 7.625 11.71875 
Q 11.71875 9.328125 16.59375 8.109375 
Q 21.484375 6.890625 26.8125 6.890625 
Q 36.078125 6.890625 40.9375 10.546875 
Q 45.796875 14.203125 45.796875 21.1875 
Q 45.796875 27.640625 41.28125 31.265625 
Q 36.765625 34.90625 28.71875 34.90625 
L 20.21875 34.90625 
L 20.21875 43.015625 
L 29.109375 43.015625 
Q 36.375 43.015625 40.234375 45.921875 
Q 44.09375 48.828125 44.09375 54.296875 
Q 44.09375 59.90625 40.109375 62.90625 
Q 36.140625 65.921875 28.71875 65.921875 
Q 24.65625 65.921875 20.015625 65.03125 
Q 15.375 64.15625 9.8125 62.3125 
L 9.8125 71.09375 
Q 15.4375 72.65625 20.34375 73.4375 
Q 25.25 74.21875 29.59375 74.21875 
Q 40.828125 74.21875 47.359375 69.109375 
Q 53.90625 64.015625 53.90625 55.328125 
Q 53.90625 49.265625 50.4375 45.09375 
Q 46.96875 40.921875 40.578125 39.3125 
z
" id="DejaVuSans-51"/>
      </defs>
      <g transform="translate(263.615682 322.182437)scale(0.1 -0.1)">
       <use xlink:href="#DejaVuSans-51"/>
       <use x="63.623047" xlink:href="#DejaVuSans-48"/>
      </g>
     </g>
    </g>
    <g id="xtick_5">
     <g id="line2d_5">
      <g>
       <use style="stroke:#000000;stroke-width:0.8;" x="337.614545" xlink:href="#ma3d4c61ad6" y="307.584"/>
      </g>
     </g>
     <g id="text_5">
      <!-- 40 -->
      <defs>
       <path d="M 37.796875 64.3125 
L 12.890625 25.390625 
L 37.796875 25.390625 
z
M 35.203125 72.90625 
L 47.609375 72.90625 
L 47.609375 25.390625 
L 58.015625 25.390625 
L 58.015625 17.1875 
L 47.609375 17.1875 
L 47.609375 0 
L 37.796875 0 
L 37.796875 17.1875 
L 4.890625 17.1875 
L 4.890625 26.703125 
z
" id="DejaVuSans-52"/>
      </defs>
      <g transform="translate(331.252045 322.182437)scale(0.1 -0.1)">
       <use xlink:href="#DejaVuSans-52"/>
       <use x="63.623047" xlink:href="#DejaVuSans-48"/>
      </g>
     </g>
    </g>
    <g id="xtick_6">
     <g id="line2d_6">
      <g>
       <use style="stroke:#000000;stroke-width:0.8;" x="405.250909" xlink:href="#ma3d4c61ad6" y="307.584"/>
      </g>
     </g>
     <g id="text_6">
      <!-- 50 -->
      <defs>
       <path d="M 10.796875 72.90625 
L 49.515625 72.90625 
L 49.515625 64.59375 
L 19.828125 64.59375 
L 19.828125 46.734375 
Q 21.96875 47.46875 24.109375 47.828125 
Q 26.265625 48.1875 28.421875 48.1875 
Q 40.625 48.1875 47.75 41.5 
Q 54.890625 34.8125 54.890625 23.390625 
Q 54.890625 11.625 47.5625 5.09375 
Q 40.234375 -1.421875 26.90625 -1.421875 
Q 22.3125 -1.421875 17.546875 -0.640625 
Q 12.796875 0.140625 7.71875 1.703125 
L 7.71875 11.625 
Q 12.109375 9.234375 16.796875 8.0625 
Q 21.484375 6.890625 26.703125 6.890625 
Q 35.15625 6.890625 40.078125 11.328125 
Q 45.015625 15.765625 45.015625 23.390625 
Q 45.015625 31 40.078125 35.4375 
Q 35.15625 39.890625 26.703125 39.890625 
Q 22.75 39.890625 18.8125 39.015625 
Q 14.890625 38.140625 10.796875 36.28125 
z
" id="DejaVuSans-53"/>
      </defs>
      <g transform="translate(398.888409 322.182437)scale(0.1 -0.1)">
       <use xlink:href="#DejaVuSans-53"/>
       <use x="63.623047" xlink:href="#DejaVuSans-48"/>
      </g>
     </g>
    </g>
   </g>
   <g id="matplotlib.axis_2">
    <g id="ytick_1">
     <g id="line2d_7">
      <defs>
       <path d="M 0 0 
L -3.5 0 
" id="mddf571286f" style="stroke:#000000;stroke-width:0.8;"/>
      </defs>
      <g>
       <use style="stroke:#000000;stroke-width:0.8;" x="57.6" xlink:href="#mddf571286f" y="300.98912"/>
      </g>
     </g>
     <g id="text_7">
      <!-- 0 -->
      <g transform="translate(44.2375 304.788339)scale(0.1 -0.1)">
       <use xlink:href="#DejaVuSans-48"/>
      </g>
     </g>
    </g>
    <g id="ytick_2">
     <g id="line2d_8">
      <g>
       <use style="stroke:#000000;stroke-width:0.8;" x="57.6" xlink:href="#mddf571286f" y="264.750954"/>
      </g>
     </g>
     <g id="text_8">
      <!-- 1000 -->
      <g transform="translate(25.15 268.550173)scale(0.1 -0.1)">
       <use xlink:href="#DejaVuSans-49"/>
       <use x="63.623047" xlink:href="#DejaVuSans-48"/>
       <use x="127.246094" xlink:href="#DejaVuSans-48"/>
       <use x="190.869141" xlink:href="#DejaVuSans-48"/>
      </g>
     </g>
    </g>
    <g id="ytick_3">
     <g id="line2d_9">
      <g>
       <use style="stroke:#000000;stroke-width:0.8;" x="57.6" xlink:href="#mddf571286f" y="228.512787"/>
      </g>
     </g>
     <g id="text_9">
      <!-- 2000 -->
      <g transform="translate(25.15 232.312006)scale(0.1 -0.1)">
       <use xlink:href="#DejaVuSans-50"/>
       <use x="63.623047" xlink:href="#DejaVuSans-48"/>
       <use x="127.246094" xlink:href="#DejaVuSans-48"/>
       <use x="190.869141" xlink:href="#DejaVuSans-48"/>
      </g>
     </g>
    </g>
    <g id="ytick_4">
     <g id="line2d_10">
      <g>
       <use style="stroke:#000000;stroke-width:0.8;" x="57.6" xlink:href="#mddf571286f" y="192.274621"/>
      </g>
     </g>
     <g id="text_10">
      <!-- 3000 -->
      <g transform="translate(25.15 196.073839)scale(0.1 -0.1)">
       <use xlink:href="#DejaVuSans-51"/>
       <use x="63.623047" xlink:href="#DejaVuSans-48"/>
       <use x="127.246094" xlink:href="#DejaVuSans-48"/>
       <use x="190.869141" xlink:href="#DejaVuSans-48"/>
      </g>
     </g>
    </g>
    <g id="ytick_5">
     <g id="line2d_11">
      <g>
       <use style="stroke:#000000;stroke-width:0.8;" x="57.6" xlink:href="#mddf571286f" y="156.036454"/>
      </g>
     </g>
     <g id="text_11">
      <!-- 4000 -->
      <g transform="translate(25.15 159.835673)scale(0.1 -0.1)">
       <use xlink:href="#DejaVuSans-52"/>
       <use x="63.623047" xlink:href="#DejaVuSans-48"/>
       <use x="127.246094" xlink:href="#DejaVuSans-48"/>
       <use x="190.869141" xlink:href="#DejaVuSans-48"/>
      </g>
     </g>
    </g>
    <g id="ytick_6">
     <g id="line2d_12">
      <g>
       <use style="stroke:#000000;stroke-width:0.8;" x="57.6" xlink:href="#mddf571286f" y="119.798288"/>
      </g>
     </g>
     <g id="text_12">
      <!-- 5000 -->
      <g transform="translate(25.15 123.597506)scale(0.1 -0.1)">
       <use xlink:href="#DejaVuSans-53"/>
       <use x="63.623047" xlink:href="#DejaVuSans-48"/>
       <use x="127.246094" xlink:href="#DejaVuSans-48"/>
       <use x="190.869141" xlink:href="#DejaVuSans-48"/>
      </g>
     </g>
    </g>
    <g id="ytick_7">
     <g id="line2d_13">
      <g>
       <use style="stroke:#000000;stroke-width:0.8;" x="57.6" xlink:href="#mddf571286f" y="83.560121"/>
      </g>
     </g>
     <g id="text_13">
      <!-- 6000 -->
      <defs>
       <path d="M 33.015625 40.375 
Q 26.375 40.375 22.484375 35.828125 
Q 18.609375 31.296875 18.609375 23.390625 
Q 18.609375 15.53125 22.484375 10.953125 
Q 26.375 6.390625 33.015625 6.390625 
Q 39.65625 6.390625 43.53125 10.953125 
Q 47.40625 15.53125 47.40625 23.390625 
Q 47.40625 31.296875 43.53125 35.828125 
Q 39.65625 40.375 33.015625 40.375 
z
M 52.59375 71.296875 
L 52.59375 62.3125 
Q 48.875 64.0625 45.09375 64.984375 
Q 41.3125 65.921875 37.59375 65.921875 
Q 27.828125 65.921875 22.671875 59.328125 
Q 17.53125 52.734375 16.796875 39.40625 
Q 19.671875 43.65625 24.015625 45.921875 
Q 28.375 48.1875 33.59375 48.1875 
Q 44.578125 48.1875 50.953125 41.515625 
Q 57.328125 34.859375 57.328125 23.390625 
Q 57.328125 12.15625 50.6875 5.359375 
Q 44.046875 -1.421875 33.015625 -1.421875 
Q 20.359375 -1.421875 13.671875 8.265625 
Q 6.984375 17.96875 6.984375 36.375 
Q 6.984375 53.65625 15.1875 63.9375 
Q 23.390625 74.21875 37.203125 74.21875 
Q 40.921875 74.21875 44.703125 73.484375 
Q 48.484375 72.75 52.59375 71.296875 
z
" id="DejaVuSans-54"/>
      </defs>
      <g transform="translate(25.15 87.35934)scale(0.1 -0.1)">
       <use xlink:href="#DejaVuSans-54"/>
       <use x="63.623047" xlink:href="#DejaVuSans-48"/>
       <use x="127.246094" xlink:href="#DejaVuSans-48"/>
       <use x="190.869141" xlink:href="#DejaVuSans-48"/>
      </g>
     </g>
    </g>
    <g id="ytick_8">
     <g id="line2d_14">
      <g>
       <use style="stroke:#000000;stroke-width:0.8;" x="57.6" xlink:href="#mddf571286f" y="47.321955"/>
      </g>
     </g>
     <g id="text_14">
      <!-- 7000 -->
      <defs>
       <path d="M 8.203125 72.90625 
L 55.078125 72.90625 
L 55.078125 68.703125 
L 28.609375 0 
L 18.3125 0 
L 43.21875 64.59375 
L 8.203125 64.59375 
z
" id="DejaVuSans-55"/>
      </defs>
      <g transform="translate(25.15 51.121173)scale(0.1 -0.1)">
       <use xlink:href="#DejaVuSans-55"/>
       <use x="63.623047" xlink:href="#DejaVuSans-48"/>
       <use x="127.246094" xlink:href="#DejaVuSans-48"/>
       <use x="190.869141" xlink:href="#DejaVuSans-48"/>
      </g>
     </g>
    </g>
   </g>
   <g id="line2d_15">
    <path clip-path="url(#p64a8e8aecb)" d="M 73.832727 53.568 
L 80.596364 153.023629 
L 87.36 204.745896 
L 94.123636 228.522925 
L 100.887273 243.044761 
L 107.650909 252.692794 
L 114.414545 259.589035 
L 121.178182 264.760706 
L 127.941818 268.783363 
L 134.705455 272.001604 
L 141.469091 274.634835 
L 148.232727 276.829307 
L 154.996364 278.686275 
L 161.76 280.278061 
L 168.523636 281.657703 
L 175.287273 282.86498 
L 182.050909 283.930308 
L 188.814545 284.877348 
L 195.578182 285.724776 
L 202.341818 286.487535 
L 209.105455 287.177721 
L 215.869091 287.805231 
L 222.632727 288.378239 
L 229.396364 288.903559 
L 236.16 289.386914 
L 242.923636 289.833145 
L 249.687273 290.246378 
L 256.450909 290.630147 
L 263.214545 290.987502 
L 269.978182 291.321082 
L 276.741818 291.63319 
L 283.505455 291.925837 
L 290.269091 292.200792 
L 297.032727 292.459617 
L 303.796364 292.703694 
L 310.56 292.934251 
L 317.323636 293.152384 
L 324.087273 293.359074 
L 330.850909 293.5552 
L 337.614545 293.741554 
L 344.378182 293.918852 
L 351.141818 294.087738 
L 357.905455 294.248804 
L 364.669091 294.402557 
L 371.432727 294.549624 
L 378.196364 294.689623 
L 384.96 294.827953 
L 391.723636 294.933941 
L 398.487273 295.205806 
" style="fill:none;stroke:#0000ff;stroke-linecap:square;stroke-width:1.5;"/>
    <defs>
     <path d="M 0 3 
C 0.795609 3 1.55874 2.683901 2.12132 2.12132 
C 2.683901 1.55874 3 0.795609 3 0 
C 3 -0.795609 2.683901 -1.55874 2.12132 -2.12132 
C 1.55874 -2.683901 0.795609 -3 0 -3 
C -0.795609 -3 -1.55874 -2.683901 -2.12132 -2.12132 
C -2.683901 -1.55874 -3 -0.795609 -3 0 
C -3 0.795609 -2.683901 1.55874 -2.12132 2.12132 
C -1.55874 2.683901 -0.795609 3 0 3 
z
" id="mfa2ec14de4" style="stroke:#0000ff;"/>
    </defs>
    <g clip-path="url(#p64a8e8aecb)">
     <use style="fill:#0000ff;stroke:#0000ff;" x="73.832727" xlink:href="#mfa2ec14de4" y="53.568"/>
     <use style="fill:#0000ff;stroke:#0000ff;" x="80.596364" xlink:href="#mfa2ec14de4" y="153.023629"/>
     <use style="fill:#0000ff;stroke:#0000ff;" x="87.36" xlink:href="#mfa2ec14de4" y="204.745896"/>
     <use style="fill:#0000ff;stroke:#0000ff;" x="94.123636" xlink:href="#mfa2ec14de4" y="228.522925"/>
     <use style="fill:#0000ff;stroke:#0000ff;" x="100.887273" xlink:href="#mfa2ec14de4" y="243.044761"/>
     <use style="fill:#0000ff;stroke:#0000ff;" x="107.650909" xlink:href="#mfa2ec14de4" y="252.692794"/>
     <use style="fill:#0000ff;stroke:#0000ff;" x="114.414545" xlink:href="#mfa2ec14de4" y="259.589035"/>
     <use style="fill:#0000ff;stroke:#0000ff;" x="121.178182" xlink:href="#mfa2ec14de4" y="264.760706"/>
     <use style="fill:#0000ff;stroke:#0000ff;" x="127.941818" xlink:href="#mfa2ec14de4" y="268.783363"/>
     <use style="fill:#0000ff;stroke:#0000ff;" x="134.705455" xlink:href="#mfa2ec14de4" y="272.001604"/>
     <use style="fill:#0000ff;stroke:#0000ff;" x="141.469091" xlink:href="#mfa2ec14de4" y="274.634835"/>
     <use style="fill:#0000ff;stroke:#0000ff;" x="148.232727" xlink:href="#mfa2ec14de4" y="276.829307"/>
     <use style="fill:#0000ff;stroke:#0000ff;" x="154.996364" xlink:href="#mfa2ec14de4" y="278.686275"/>
     <use style="fill:#0000ff;stroke:#0000ff;" x="161.76" xlink:href="#mfa2ec14de4" y="280.278061"/>
     <use style="fill:#0000ff;stroke:#0000ff;" x="168.523636" xlink:href="#mfa2ec14de4" y="281.657703"/>
     <use style="fill:#0000ff;stroke:#0000ff;" x="175.287273" xlink:href="#mfa2ec14de4" y="282.86498"/>
     <use style="fill:#0000ff;stroke:#0000ff;" x="182.050909" xlink:href="#mfa2ec14de4" y="283.930308"/>
     <use style="fill:#0000ff;stroke:#0000ff;" x="188.814545" xlink:href="#mfa2ec14de4" y="284.877348"/>
     <use style="fill:#0000ff;stroke:#0000ff;" x="195.578182" xlink:href="#mfa2ec14de4" y="285.724776"/>
     <use style="fill:#0000ff;stroke:#0000ff;" x="202.341818" xlink:href="#mfa2ec14de4" y="286.487535"/>
     <use style="fill:#0000ff;stroke:#0000ff;" x="209.105455" xlink:href="#mfa2ec14de4" y="287.177721"/>
     <use style="fill:#0000ff;stroke:#0000ff;" x="215.869091" xlink:href="#mfa2ec14de4" y="287.805231"/>
     <use style="fill:#0000ff;stroke:#0000ff;" x="222.632727" xlink:href="#mfa2ec14de4" y="288.378239"/>
     <use style="fill:#0000ff;stroke:#0000ff;" x="229.396364" xlink:href="#mfa2ec14de4" y="288.903559"/>
     <use style="fill:#0000ff;stroke:#0000ff;" x="236.16" xlink:href="#mfa2ec14de4" y="289.386914"/>
     <use style="fill:#0000ff;stroke:#0000ff;" x="242.923636" xlink:href="#mfa2ec14de4" y="289.833145"/>
     <use style="fill:#0000ff;stroke:#0000ff;" x="249.687273" xlink:href="#mfa2ec14de4" y="290.246378"/>
     <use style="fill:#0000ff;stroke:#0000ff;" x="256.450909" xlink:href="#mfa2ec14de4" y="290.630147"/>
     <use style="fill:#0000ff;stroke:#0000ff;" x="263.214545" xlink:href="#mfa2ec14de4" y="290.987502"/>
     <use style="fill:#0000ff;stroke:#0000ff;" x="269.978182" xlink:href="#mfa2ec14de4" y="291.321082"/>
     <use style="fill:#0000ff;stroke:#0000ff;" x="276.741818" xlink:href="#mfa2ec14de4" y="291.63319"/>
     <use style="fill:#0000ff;stroke:#0000ff;" x="283.505455" xlink:href="#mfa2ec14de4" y="291.925837"/>
     <use style="fill:#0000ff;stroke:#0000ff;" x="290.269091" xlink:href="#mfa2ec14de4" y="292.200792"/>
     <use style="fill:#0000ff;stroke:#0000ff;" x="297.032727" xlink:href="#mfa2ec14de4" y="292.459617"/>
     <use style="fill:#0000ff;stroke:#0000ff;" x="303.796364" xlink:href="#mfa2ec14de4" y="292.703694"/>
     <use style="fill:#0000ff;stroke:#0000ff;" x="310.56" xlink:href="#mfa2ec14de4" y="292.934251"/>
     <use style="fill:#0000ff;stroke:#0000ff;" x="317.323636" xlink:href="#mfa2ec14de4" y="293.152384"/>
     <use style="fill:#0000ff;stroke:#0000ff;" x="324.087273" xlink:href="#mfa2ec14de4" y="293.359074"/>
     <use style="fill:#0000ff;stroke:#0000ff;" x="330.850909" xlink:href="#mfa2ec14de4" y="293.5552"/>
     <use style="fill:#0000ff;stroke:#0000ff;" x="337.614545" xlink:href="#mfa2ec14de4" y="293.741554"/>
     <use style="fill:#0000ff;stroke:#0000ff;" x="344.378182" xlink:href="#mfa2ec14de4" y="293.918852"/>
     <use style="fill:#0000ff;stroke:#0000ff;" x="351.141818" xlink:href="#mfa2ec14de4" y="294.087738"/>
     <use style="fill:#0000ff;stroke:#0000ff;" x="357.905455" xlink:href="#mfa2ec14de4" y="294.248804"/>
     <use style="fill:#0000ff;stroke:#0000ff;" x="364.669091" xlink:href="#mfa2ec14de4" y="294.402557"/>
     <use style="fill:#0000ff;stroke:#0000ff;" x="371.432727" xlink:href="#mfa2ec14de4" y="294.549624"/>
     <use style="fill:#0000ff;stroke:#0000ff;" x="378.196364" xlink:href="#mfa2ec14de4" y="294.689623"/>
     <use style="fill:#0000ff;stroke:#0000ff;" x="384.96" xlink:href="#mfa2ec14de4" y="294.827953"/>
     <use style="fill:#0000ff;stroke:#0000ff;" x="391.723636" xlink:href="#mfa2ec14de4" y="294.933941"/>
     <use style="fill:#0000ff;stroke:#0000ff;" x="398.487273" xlink:href="#mfa2ec14de4" y="295.205806"/>
    </g>
   </g>
   <g id="line2d_16">
    <path clip-path="url(#p64a8e8aecb)" d="M 73.832727 62.644263 
L 80.596364 159.000997 
L 87.36 208.986815 
L 94.123636 231.087937 
L 100.887273 245.109614 
L 107.650909 254.290691 
L 114.414545 260.992911 
L 121.178182 266.049904 
L 127.941818 269.949333 
L 134.705455 273.097191 
L 141.469091 275.673819 
L 148.232727 277.831772 
L 154.996364 279.577329 
L 161.76 281.103347 
L 168.523636 282.44542 
L 175.287273 283.592989 
L 182.050909 284.616144 
L 188.814545 285.552741 
L 195.578182 286.348517 
L 202.341818 287.064402 
L 209.105455 287.72885 
L 215.869091 288.339282 
L 222.632727 288.885341 
L 229.396364 289.388747 
L 236.16 289.87557 
L 242.923636 290.30134 
L 249.687273 290.693009 
L 256.450909 291.076706 
L 263.214545 291.40685 
L 269.978182 291.746721 
L 276.741818 292.067016 
L 283.505455 292.378809 
L 290.269091 292.610276 
L 297.032727 292.871807 
L 303.796364 293.139187 
L 310.56 293.335504 
L 317.323636 293.567529 
L 324.087273 293.75625 
L 330.850909 293.915793 
L 337.614545 294.065217 
L 344.378182 294.21167 
L 351.141818 294.356927 
L 357.905455 294.481115 
L 364.669091 294.608463 
L 371.432727 294.762997 
L 378.196364 294.927801 
L 384.96 295.089228 
L 391.723636 295.195515 
L 398.487273 295.488 
" style="fill:none;stroke:#008000;stroke-linecap:square;stroke-width:1.5;"/>
    <defs>
     <path d="M 0 3 
C 0.795609 3 1.55874 2.683901 2.12132 2.12132 
C 2.683901 1.55874 3 0.795609 3 0 
C 3 -0.795609 2.683901 -1.55874 2.12132 -2.12132 
C 1.55874 -2.683901 0.795609 -3 0 -3 
C -0.795609 -3 -1.55874 -2.683901 -2.12132 -2.12132 
C -2.683901 -1.55874 -3 -0.795609 -3 0 
C -3 0.795609 -2.683901 1.55874 -2.12132 2.12132 
C -1.55874 2.683901 -0.795609 3 0 3 
z
" id="m88630e16cb" style="stroke:#008000;"/>
    </defs>
    <g clip-path="url(#p64a8e8aecb)">
     <use style="fill:#008000;stroke:#008000;" x="73.832727" xlink:href="#m88630e16cb" y="62.644263"/>
     <use style="fill:#008000;stroke:#008000;" x="80.596364" xlink:href="#m88630e16cb" y="159.000997"/>
     <use style="fill:#008000;stroke:#008000;" x="87.36" xlink:href="#m88630e16cb" y="208.986815"/>
     <use style="fill:#008000;stroke:#008000;" x="94.123636" xlink:href="#m88630e16cb" y="231.087937"/>
     <use style="fill:#008000;stroke:#008000;" x="100.887273" xlink:href="#m88630e16cb" y="245.109614"/>
     <use style="fill:#008000;stroke:#008000;" x="107.650909" xlink:href="#m88630e16cb" y="254.290691"/>
     <use style="fill:#008000;stroke:#008000;" x="114.414545" xlink:href="#m88630e16cb" y="260.992911"/>
     <use style="fill:#008000;stroke:#008000;" x="121.178182" xlink:href="#m88630e16cb" y="266.049904"/>
     <use style="fill:#008000;stroke:#008000;" x="127.941818" xlink:href="#m88630e16cb" y="269.949333"/>
     <use style="fill:#008000;stroke:#008000;" x="134.705455" xlink:href="#m88630e16cb" y="273.097191"/>
     <use style="fill:#008000;stroke:#008000;" x="141.469091" xlink:href="#m88630e16cb" y="275.673819"/>
     <use style="fill:#008000;stroke:#008000;" x="148.232727" xlink:href="#m88630e16cb" y="277.831772"/>
     <use style="fill:#008000;stroke:#008000;" x="154.996364" xlink:href="#m88630e16cb" y="279.577329"/>
     <use style="fill:#008000;stroke:#008000;" x="161.76" xlink:href="#m88630e16cb" y="281.103347"/>
     <use style="fill:#008000;stroke:#008000;" x="168.523636" xlink:href="#m88630e16cb" y="282.44542"/>
     <use style="fill:#008000;stroke:#008000;" x="175.287273" xlink:href="#m88630e16cb" y="283.592989"/>
     <use style="fill:#008000;stroke:#008000;" x="182.050909" xlink:href="#m88630e16cb" y="284.616144"/>
     <use style="fill:#008000;stroke:#008000;" x="188.814545" xlink:href="#m88630e16cb" y="285.552741"/>
     <use style="fill:#008000;stroke:#008000;" x="195.578182" xlink:href="#m88630e16cb" y="286.348517"/>
     <use style="fill:#008000;stroke:#008000;" x="202.341818" xlink:href="#m88630e16cb" y="287.064402"/>
     <use style="fill:#008000;stroke:#008000;" x="209.105455" xlink:href="#m88630e16cb" y="287.72885"/>
     <use style="fill:#008000;stroke:#008000;" x="215.869091" xlink:href="#m88630e16cb" y="288.339282"/>
     <use style="fill:#008000;stroke:#008000;" x="222.632727" xlink:href="#m88630e16cb" y="288.885341"/>
     <use style="fill:#008000;stroke:#008000;" x="229.396364" xlink:href="#m88630e16cb" y="289.388747"/>
     <use style="fill:#008000;stroke:#008000;" x="236.16" xlink:href="#m88630e16cb" y="289.87557"/>
     <use style="fill:#008000;stroke:#008000;" x="242.923636" xlink:href="#m88630e16cb" y="290.30134"/>
     <use style="fill:#008000;stroke:#008000;" x="249.687273" xlink:href="#m88630e16cb" y="290.693009"/>
     <use style="fill:#008000;stroke:#008000;" x="256.450909" xlink:href="#m88630e16cb" y="291.076706"/>
     <use style="fill:#008000;stroke:#008000;" x="263.214545" xlink:href="#m88630e16cb" y="291.40685"/>
     <use style="fill:#008000;stroke:#008000;" x="269.978182" xlink:href="#m88630e16cb" y="291.746721"/>
     <use style="fill:#008000;stroke:#008000;" x="276.741818" xlink:href="#m88630e16cb" y="292.067016"/>
     <use style="fill:#008000;stroke:#008000;" x="283.505455" xlink:href="#m88630e16cb" y="292.378809"/>
     <use style="fill:#008000;stroke:#008000;" x="290.269091" xlink:href="#m88630e16cb" y="292.610276"/>
     <use style="fill:#008000;stroke:#008000;" x="297.032727" xlink:href="#m88630e16cb" y="292.871807"/>
     <use style="fill:#008000;stroke:#008000;" x="303.796364" xlink:href="#m88630e16cb" y="293.139187"/>
     <use style="fill:#008000;stroke:#008000;" x="310.56" xlink:href="#m88630e16cb" y="293.335504"/>
     <use style="fill:#008000;stroke:#008000;" x="317.323636" xlink:href="#m88630e16cb" y="293.567529"/>
     <use style="fill:#008000;stroke:#008000;" x="324.087273" xlink:href="#m88630e16cb" y="293.75625"/>
     <use style="fill:#008000;stroke:#008000;" x="330.850909" xlink:href="#m88630e16cb" y="293.915793"/>
     <use style="fill:#008000;stroke:#008000;" x="337.614545" xlink:href="#m88630e16cb" y="294.065217"/>
     <use style="fill:#008000;stroke:#008000;" x="344.378182" xlink:href="#m88630e16cb" y="294.21167"/>
     <use style="fill:#008000;stroke:#008000;" x="351.141818" xlink:href="#m88630e16cb" y="294.356927"/>
     <use style="fill:#008000;stroke:#008000;" x="357.905455" xlink:href="#m88630e16cb" y="294.481115"/>
     <use style="fill:#008000;stroke:#008000;" x="364.669091" xlink:href="#m88630e16cb" y="294.608463"/>
     <use style="fill:#008000;stroke:#008000;" x="371.432727" xlink:href="#m88630e16cb" y="294.762997"/>
     <use style="fill:#008000;stroke:#008000;" x="378.196364" xlink:href="#m88630e16cb" y="294.927801"/>
     <use style="fill:#008000;stroke:#008000;" x="384.96" xlink:href="#m88630e16cb" y="295.089228"/>
     <use style="fill:#008000;stroke:#008000;" x="391.723636" xlink:href="#m88630e16cb" y="295.195515"/>
     <use style="fill:#008000;stroke:#008000;" x="398.487273" xlink:href="#m88630e16cb" y="295.488"/>
    </g>
   </g>
   <g id="patch_3">
    <path d="M 57.6 307.584 
L 57.6 41.472 
" style="fill:none;stroke:#000000;stroke-linecap:square;stroke-linejoin:miter;stroke-width:0.8;"/>
   </g>
   <g id="patch_4">
    <path d="M 414.72 307.584 
L 414.72 41.472 
" style="fill:none;stroke:#000000;stroke-linecap:square;stroke-linejoin:miter;stroke-width:0.8;"/>
   </g>
   <g id="patch_5">
    <path d="M 57.6 307.584 
L 414.72 307.584 
" style="fill:none;stroke:#000000;stroke-linecap:square;stroke-linejoin:miter;stroke-width:0.8;"/>
   </g>
   <g id="patch_6">
    <path d="M 57.6 41.472 
L 414.72 41.472 
" style="fill:none;stroke:#000000;stroke-linecap:square;stroke-linejoin:miter;stroke-width:0.8;"/>
   </g>
  </g>
 </g>
 <defs>
  <clipPath id="p64a8e8aecb">
   <rect height="266.112" width="357.12" x="57.6" y="41.472"/>
  </clipPath>
 </defs>
</svg>
