<?xml version="1.0" encoding="utf-8" standalone="no"?>
<!DOCTYPE svg PUBLIC "-//W3C//DTD SVG 1.1//EN"
  "http://www.w3.org/Graphics/SVG/1.1/DTD/svg11.dtd">
<!-- Created with matplotlib (https://matplotlib.org/) -->
<svg height="345.6pt" version="1.1" viewBox="0 0 460.8 345.6" width="460.8pt" xmlns="http://www.w3.org/2000/svg" xmlns:xlink="http://www.w3.org/1999/xlink">
 <defs>
  <style type="text/css">
*{stroke-linecap:butt;stroke-linejoin:round;}
  </style>
 </defs>
 <g id="figure_1">
  <g id="patch_1">
   <path d="M 0 345.6 
L 460.8 345.6 
L 460.8 0 
L 0 0 
z
" style="fill:#ffffff;"/>
  </g>
  <g id="axes_1">
   <g id="patch_2">
    <path d="M 57.6 307.584 
L 414.72 307.584 
L 414.72 41.472 
L 57.6 41.472 
z
" style="fill:#ffffff;"/>
   </g>
   <g id="matplotlib.axis_1">
    <g id="xtick_1">
     <g id="line2d_1">
      <defs>
       <path d="M 0 0 
L 0 3.5 
" id="m47220d4eeb" style="stroke:#000000;stroke-width:0.8;"/>
      </defs>
      <g>
       <use style="stroke:#000000;stroke-width:0.8;" x="67.069091" xlink:href="#m47220d4eeb" y="307.584"/>
      </g>
     </g>
     <g id="text_1">
      <!-- 0 -->
      <defs>
       <path d="M 31.78125 66.40625 
Q 24.171875 66.40625 20.328125 58.90625 
Q 16.5 51.421875 16.5 36.375 
Q 16.5 21.390625 20.328125 13.890625 
Q 24.171875 6.390625 31.78125 6.390625 
Q 39.453125 6.390625 43.28125 13.890625 
Q 47.125 21.390625 47.125 36.375 
Q 47.125 51.421875 43.28125 58.90625 
Q 39.453125 66.40625 31.78125 66.40625 
z
M 31.78125 74.21875 
Q 44.046875 74.21875 50.515625 64.515625 
Q 56.984375 54.828125 56.984375 36.375 
Q 56.984375 17.96875 50.515625 8.265625 
Q 44.046875 -1.421875 31.78125 -1.421875 
Q 19.53125 -1.421875 13.0625 8.265625 
Q 6.59375 17.96875 6.59375 36.375 
Q 6.59375 54.828125 13.0625 64.515625 
Q 19.53125 74.21875 31.78125 74.21875 
z
" id="DejaVuSans-48"/>
      </defs>
      <g transform="translate(63.887841 322.182437)scale(0.1 -0.1)">
       <use xlink:href="#DejaVuSans-48"/>
      </g>
     </g>
    </g>
    <g id="xtick_2">
     <g id="line2d_2">
      <g>
       <use style="stroke:#000000;stroke-width:0.8;" x="134.705455" xlink:href="#m47220d4eeb" y="307.584"/>
      </g>
     </g>
     <g id="text_2">
      <!-- 10 -->
      <defs>
       <path d="M 12.40625 8.296875 
L 28.515625 8.296875 
L 28.515625 63.921875 
L 10.984375 60.40625 
L 10.984375 69.390625 
L 28.421875 72.90625 
L 38.28125 72.90625 
L 38.28125 8.296875 
L 54.390625 8.296875 
L 54.390625 0 
L 12.40625 0 
z
" id="DejaVuSans-49"/>
      </defs>
      <g transform="translate(128.342955 322.182437)scale(0.1 -0.1)">
       <use xlink:href="#DejaVuSans-49"/>
       <use x="63.623047" xlink:href="#DejaVuSans-48"/>
      </g>
     </g>
    </g>
    <g id="xtick_3">
     <g id="line2d_3">
      <g>
       <use style="stroke:#000000;stroke-width:0.8;" x="202.341818" xlink:href="#m47220d4eeb" y="307.584"/>
      </g>
     </g>
     <g id="text_3">
      <!-- 20 -->
      <defs>
       <path d="M 19.1875 8.296875 
L 53.609375 8.296875 
L 53.609375 0 
L 7.328125 0 
L 7.328125 8.296875 
Q 12.9375 14.109375 22.625 23.890625 
Q 32.328125 33.6875 34.8125 36.53125 
Q 39.546875 41.84375 41.421875 45.53125 
Q 43.3125 49.21875 43.3125 52.78125 
Q 43.3125 58.59375 39.234375 62.25 
Q 35.15625 65.921875 28.609375 65.921875 
Q 23.96875 65.921875 18.8125 64.3125 
Q 13.671875 62.703125 7.8125 59.421875 
L 7.8125 69.390625 
Q 13.765625 71.78125 18.9375 73 
Q 24.125 74.21875 28.421875 74.21875 
Q 39.75 74.21875 46.484375 68.546875 
Q 53.21875 62.890625 53.21875 53.421875 
Q 53.21875 48.921875 51.53125 44.890625 
Q 49.859375 40.875 45.40625 35.40625 
Q 44.1875 33.984375 37.640625 27.21875 
Q 31.109375 20.453125 19.1875 8.296875 
z
" id="DejaVuSans-50"/>
      </defs>
      <g transform="translate(195.979318 322.182437)scale(0.1 -0.1)">
       <use xlink:href="#DejaVuSans-50"/>
       <use x="63.623047" xlink:href="#DejaVuSans-48"/>
      </g>
     </g>
    </g>
    <g id="xtick_4">
     <g id="line2d_4">
      <g>
       <use style="stroke:#000000;stroke-width:0.8;" x="269.978182" xlink:href="#m47220d4eeb" y="307.584"/>
      </g>
     </g>
     <g id="text_4">
      <!-- 30 -->
      <defs>
       <path d="M 40.578125 39.3125 
Q 47.65625 37.796875 51.625 33 
Q 55.609375 28.21875 55.609375 21.1875 
Q 55.609375 10.40625 48.1875 4.484375 
Q 40.765625 -1.421875 27.09375 -1.421875 
Q 22.515625 -1.421875 17.65625 -0.515625 
Q 12.796875 0.390625 7.625 2.203125 
L 7.625 11.71875 
Q 11.71875 9.328125 16.59375 8.109375 
Q 21.484375 6.890625 26.8125 6.890625 
Q 36.078125 6.890625 40.9375 10.546875 
Q 45.796875 14.203125 45.796875 21.1875 
Q 45.796875 27.640625 41.28125 31.265625 
Q 36.765625 34.90625 28.71875 34.90625 
L 20.21875 34.90625 
L 20.21875 43.015625 
L 29.109375 43.015625 
Q 36.375 43.015625 40.234375 45.921875 
Q 44.09375 48.828125 44.09375 54.296875 
Q 44.09375 59.90625 40.109375 62.90625 
Q 36.140625 65.921875 28.71875 65.921875 
Q 24.65625 65.921875 20.015625 65.03125 
Q 15.375 64.15625 9.8125 62.3125 
L 9.8125 71.09375 
Q 15.4375 72.65625 20.34375 73.4375 
Q 25.25 74.21875 29.59375 74.21875 
Q 40.828125 74.21875 47.359375 69.109375 
Q 53.90625 64.015625 53.90625 55.328125 
Q 53.90625 49.265625 50.4375 45.09375 
Q 46.96875 40.921875 40.578125 39.3125 
z
" id="DejaVuSans-51"/>
      </defs>
      <g transform="translate(263.615682 322.182437)scale(0.1 -0.1)">
       <use xlink:href="#DejaVuSans-51"/>
       <use x="63.623047" xlink:href="#DejaVuSans-48"/>
      </g>
     </g>
    </g>
    <g id="xtick_5">
     <g id="line2d_5">
      <g>
       <use style="stroke:#000000;stroke-width:0.8;" x="337.614545" xlink:href="#m47220d4eeb" y="307.584"/>
      </g>
     </g>
     <g id="text_5">
      <!-- 40 -->
      <defs>
       <path d="M 37.796875 64.3125 
L 12.890625 25.390625 
L 37.796875 25.390625 
z
M 35.203125 72.90625 
L 47.609375 72.90625 
L 47.609375 25.390625 
L 58.015625 25.390625 
L 58.015625 17.1875 
L 47.609375 17.1875 
L 47.609375 0 
L 37.796875 0 
L 37.796875 17.1875 
L 4.890625 17.1875 
L 4.890625 26.703125 
z
" id="DejaVuSans-52"/>
      </defs>
      <g transform="translate(331.252045 322.182437)scale(0.1 -0.1)">
       <use xlink:href="#DejaVuSans-52"/>
       <use x="63.623047" xlink:href="#DejaVuSans-48"/>
      </g>
     </g>
    </g>
    <g id="xtick_6">
     <g id="line2d_6">
      <g>
       <use style="stroke:#000000;stroke-width:0.8;" x="405.250909" xlink:href="#m47220d4eeb" y="307.584"/>
      </g>
     </g>
     <g id="text_6">
      <!-- 50 -->
      <defs>
       <path d="M 10.796875 72.90625 
L 49.515625 72.90625 
L 49.515625 64.59375 
L 19.828125 64.59375 
L 19.828125 46.734375 
Q 21.96875 47.46875 24.109375 47.828125 
Q 26.265625 48.1875 28.421875 48.1875 
Q 40.625 48.1875 47.75 41.5 
Q 54.890625 34.8125 54.890625 23.390625 
Q 54.890625 11.625 47.5625 5.09375 
Q 40.234375 -1.421875 26.90625 -1.421875 
Q 22.3125 -1.421875 17.546875 -0.640625 
Q 12.796875 0.140625 7.71875 1.703125 
L 7.71875 11.625 
Q 12.109375 9.234375 16.796875 8.0625 
Q 21.484375 6.890625 26.703125 6.890625 
Q 35.15625 6.890625 40.078125 11.328125 
Q 45.015625 15.765625 45.015625 23.390625 
Q 45.015625 31 40.078125 35.4375 
Q 35.15625 39.890625 26.703125 39.890625 
Q 22.75 39.890625 18.8125 39.015625 
Q 14.890625 38.140625 10.796875 36.28125 
z
" id="DejaVuSans-53"/>
      </defs>
      <g transform="translate(398.888409 322.182437)scale(0.1 -0.1)">
       <use xlink:href="#DejaVuSans-53"/>
       <use x="63.623047" xlink:href="#DejaVuSans-48"/>
      </g>
     </g>
    </g>
   </g>
   <g id="matplotlib.axis_2">
    <g id="ytick_1">
     <g id="line2d_7">
      <defs>
       <path d="M 0 0 
L -3.5 0 
" id="m63b06fde15" style="stroke:#000000;stroke-width:0.8;"/>
      </defs>
      <g>
       <use style="stroke:#000000;stroke-width:0.8;" x="57.6" xlink:href="#m63b06fde15" y="300.357558"/>
      </g>
     </g>
     <g id="text_7">
      <!-- 0 -->
      <g transform="translate(44.2375 304.156777)scale(0.1 -0.1)">
       <use xlink:href="#DejaVuSans-48"/>
      </g>
     </g>
    </g>
    <g id="ytick_2">
     <g id="line2d_8">
      <g>
       <use style="stroke:#000000;stroke-width:0.8;" x="57.6" xlink:href="#m63b06fde15" y="242.925871"/>
      </g>
     </g>
     <g id="text_8">
      <!-- 2000 -->
      <g transform="translate(25.15 246.72509)scale(0.1 -0.1)">
       <use xlink:href="#DejaVuSans-50"/>
       <use x="63.623047" xlink:href="#DejaVuSans-48"/>
       <use x="127.246094" xlink:href="#DejaVuSans-48"/>
       <use x="190.869141" xlink:href="#DejaVuSans-48"/>
      </g>
     </g>
    </g>
    <g id="ytick_3">
     <g id="line2d_9">
      <g>
       <use style="stroke:#000000;stroke-width:0.8;" x="57.6" xlink:href="#m63b06fde15" y="185.494185"/>
      </g>
     </g>
     <g id="text_9">
      <!-- 4000 -->
      <g transform="translate(25.15 189.293403)scale(0.1 -0.1)">
       <use xlink:href="#DejaVuSans-52"/>
       <use x="63.623047" xlink:href="#DejaVuSans-48"/>
       <use x="127.246094" xlink:href="#DejaVuSans-48"/>
       <use x="190.869141" xlink:href="#DejaVuSans-48"/>
      </g>
     </g>
    </g>
    <g id="ytick_4">
     <g id="line2d_10">
      <g>
       <use style="stroke:#000000;stroke-width:0.8;" x="57.6" xlink:href="#m63b06fde15" y="128.062498"/>
      </g>
     </g>
     <g id="text_10">
      <!-- 6000 -->
      <defs>
       <path d="M 33.015625 40.375 
Q 26.375 40.375 22.484375 35.828125 
Q 18.609375 31.296875 18.609375 23.390625 
Q 18.609375 15.53125 22.484375 10.953125 
Q 26.375 6.390625 33.015625 6.390625 
Q 39.65625 6.390625 43.53125 10.953125 
Q 47.40625 15.53125 47.40625 23.390625 
Q 47.40625 31.296875 43.53125 35.828125 
Q 39.65625 40.375 33.015625 40.375 
z
M 52.59375 71.296875 
L 52.59375 62.3125 
Q 48.875 64.0625 45.09375 64.984375 
Q 41.3125 65.921875 37.59375 65.921875 
Q 27.828125 65.921875 22.671875 59.328125 
Q 17.53125 52.734375 16.796875 39.40625 
Q 19.671875 43.65625 24.015625 45.921875 
Q 28.375 48.1875 33.59375 48.1875 
Q 44.578125 48.1875 50.953125 41.515625 
Q 57.328125 34.859375 57.328125 23.390625 
Q 57.328125 12.15625 50.6875 5.359375 
Q 44.046875 -1.421875 33.015625 -1.421875 
Q 20.359375 -1.421875 13.671875 8.265625 
Q 6.984375 17.96875 6.984375 36.375 
Q 6.984375 53.65625 15.1875 63.9375 
Q 23.390625 74.21875 37.203125 74.21875 
Q 40.921875 74.21875 44.703125 73.484375 
Q 48.484375 72.75 52.59375 71.296875 
z
" id="DejaVuSans-54"/>
      </defs>
      <g transform="translate(25.15 131.861717)scale(0.1 -0.1)">
       <use xlink:href="#DejaVuSans-54"/>
       <use x="63.623047" xlink:href="#DejaVuSans-48"/>
       <use x="127.246094" xlink:href="#DejaVuSans-48"/>
       <use x="190.869141" xlink:href="#DejaVuSans-48"/>
      </g>
     </g>
    </g>
    <g id="ytick_5">
     <g id="line2d_11">
      <g>
       <use style="stroke:#000000;stroke-width:0.8;" x="57.6" xlink:href="#m63b06fde15" y="70.630811"/>
      </g>
     </g>
     <g id="text_11">
      <!-- 8000 -->
      <defs>
       <path d="M 31.78125 34.625 
Q 24.75 34.625 20.71875 30.859375 
Q 16.703125 27.09375 16.703125 20.515625 
Q 16.703125 13.921875 20.71875 10.15625 
Q 24.75 6.390625 31.78125 6.390625 
Q 38.8125 6.390625 42.859375 10.171875 
Q 46.921875 13.96875 46.921875 20.515625 
Q 46.921875 27.09375 42.890625 30.859375 
Q 38.875 34.625 31.78125 34.625 
z
M 21.921875 38.8125 
Q 15.578125 40.375 12.03125 44.71875 
Q 8.5 49.078125 8.5 55.328125 
Q 8.5 64.0625 14.71875 69.140625 
Q 20.953125 74.21875 31.78125 74.21875 
Q 42.671875 74.21875 48.875 69.140625 
Q 55.078125 64.0625 55.078125 55.328125 
Q 55.078125 49.078125 51.53125 44.71875 
Q 48 40.375 41.703125 38.8125 
Q 48.828125 37.15625 52.796875 32.3125 
Q 56.78125 27.484375 56.78125 20.515625 
Q 56.78125 9.90625 50.3125 4.234375 
Q 43.84375 -1.421875 31.78125 -1.421875 
Q 19.734375 -1.421875 13.25 4.234375 
Q 6.78125 9.90625 6.78125 20.515625 
Q 6.78125 27.484375 10.78125 32.3125 
Q 14.796875 37.15625 21.921875 38.8125 
z
M 18.3125 54.390625 
Q 18.3125 48.734375 21.84375 45.5625 
Q 25.390625 42.390625 31.78125 42.390625 
Q 38.140625 42.390625 41.71875 45.5625 
Q 45.3125 48.734375 45.3125 54.390625 
Q 45.3125 60.0625 41.71875 63.234375 
Q 38.140625 66.40625 31.78125 66.40625 
Q 25.390625 66.40625 21.84375 63.234375 
Q 18.3125 60.0625 18.3125 54.390625 
z
" id="DejaVuSans-56"/>
      </defs>
      <g transform="translate(25.15 74.43003)scale(0.1 -0.1)">
       <use xlink:href="#DejaVuSans-56"/>
       <use x="63.623047" xlink:href="#DejaVuSans-48"/>
       <use x="127.246094" xlink:href="#DejaVuSans-48"/>
       <use x="190.869141" xlink:href="#DejaVuSans-48"/>
      </g>
     </g>
    </g>
   </g>
   <g id="line2d_12">
    <path clip-path="url(#pb0dfe12247)" d="M 73.832727 53.568 
L 80.596364 169.560447 
L 87.36 213.420204 
L 94.123636 235.136159 
L 100.887273 248.175592 
L 107.650909 256.868268 
L 114.414545 263.077507 
L 121.178182 267.73458 
L 127.941818 271.356878 
L 134.705455 274.254836 
L 141.469091 276.626003 
L 148.232727 278.602079 
L 154.996364 280.27424 
L 161.76 281.707611 
L 168.523636 282.949952 
L 175.287273 284.037081 
L 182.050909 284.99639 
L 188.814545 285.849182 
L 195.578182 286.612277 
L 202.341818 287.29913 
L 209.105455 287.920632 
L 215.869091 288.485696 
L 222.632727 289.001683 
L 229.396364 289.474727 
L 236.16 289.909983 
L 242.923636 290.31181 
L 249.687273 290.683923 
L 256.450909 291.029505 
L 263.214545 291.3513 
L 269.978182 291.651688 
L 276.741818 291.93274 
L 283.505455 292.196269 
L 290.269091 292.443866 
L 297.032727 292.676938 
L 303.796364 292.89673 
L 310.56 293.104347 
L 317.323636 293.300777 
L 324.087273 293.486903 
L 330.850909 293.663516 
L 337.614545 293.83133 
L 344.378182 293.990988 
L 351.141818 294.143072 
L 357.905455 294.288111 
L 364.669091 294.426584 
L 371.432727 294.558928 
L 378.196364 294.685539 
L 384.96 294.806845 
L 391.723636 294.922115 
L 398.487273 295.050191 
" style="fill:none;stroke:#0000ff;stroke-linecap:square;stroke-width:1.5;"/>
    <defs>
     <path d="M 0 3 
C 0.795609 3 1.55874 2.683901 2.12132 2.12132 
C 2.683901 1.55874 3 0.795609 3 0 
C 3 -0.795609 2.683901 -1.55874 2.12132 -2.12132 
C 1.55874 -2.683901 0.795609 -3 0 -3 
C -0.795609 -3 -1.55874 -2.683901 -2.12132 -2.12132 
C -2.683901 -1.55874 -3 -0.795609 -3 0 
C -3 0.795609 -2.683901 1.55874 -2.12132 2.12132 
C -1.55874 2.683901 -0.795609 3 0 3 
z
" id="mb852409313" style="stroke:#0000ff;"/>
    </defs>
    <g clip-path="url(#pb0dfe12247)">
     <use style="fill:#0000ff;stroke:#0000ff;" x="73.832727" xlink:href="#mb852409313" y="53.568"/>
     <use style="fill:#0000ff;stroke:#0000ff;" x="80.596364" xlink:href="#mb852409313" y="169.560447"/>
     <use style="fill:#0000ff;stroke:#0000ff;" x="87.36" xlink:href="#mb852409313" y="213.420204"/>
     <use style="fill:#0000ff;stroke:#0000ff;" x="94.123636" xlink:href="#mb852409313" y="235.136159"/>
     <use style="fill:#0000ff;stroke:#0000ff;" x="100.887273" xlink:href="#mb852409313" y="248.175592"/>
     <use style="fill:#0000ff;stroke:#0000ff;" x="107.650909" xlink:href="#mb852409313" y="256.868268"/>
     <use style="fill:#0000ff;stroke:#0000ff;" x="114.414545" xlink:href="#mb852409313" y="263.077507"/>
     <use style="fill:#0000ff;stroke:#0000ff;" x="121.178182" xlink:href="#mb852409313" y="267.73458"/>
     <use style="fill:#0000ff;stroke:#0000ff;" x="127.941818" xlink:href="#mb852409313" y="271.356878"/>
     <use style="fill:#0000ff;stroke:#0000ff;" x="134.705455" xlink:href="#mb852409313" y="274.254836"/>
     <use style="fill:#0000ff;stroke:#0000ff;" x="141.469091" xlink:href="#mb852409313" y="276.626003"/>
     <use style="fill:#0000ff;stroke:#0000ff;" x="148.232727" xlink:href="#mb852409313" y="278.602079"/>
     <use style="fill:#0000ff;stroke:#0000ff;" x="154.996364" xlink:href="#mb852409313" y="280.27424"/>
     <use style="fill:#0000ff;stroke:#0000ff;" x="161.76" xlink:href="#mb852409313" y="281.707611"/>
     <use style="fill:#0000ff;stroke:#0000ff;" x="168.523636" xlink:href="#mb852409313" y="282.949952"/>
     <use style="fill:#0000ff;stroke:#0000ff;" x="175.287273" xlink:href="#mb852409313" y="284.037081"/>
     <use style="fill:#0000ff;stroke:#0000ff;" x="182.050909" xlink:href="#mb852409313" y="284.99639"/>
     <use style="fill:#0000ff;stroke:#0000ff;" x="188.814545" xlink:href="#mb852409313" y="285.849182"/>
     <use style="fill:#0000ff;stroke:#0000ff;" x="195.578182" xlink:href="#mb852409313" y="286.612277"/>
     <use style="fill:#0000ff;stroke:#0000ff;" x="202.341818" xlink:href="#mb852409313" y="287.29913"/>
     <use style="fill:#0000ff;stroke:#0000ff;" x="209.105455" xlink:href="#mb852409313" y="287.920632"/>
     <use style="fill:#0000ff;stroke:#0000ff;" x="215.869091" xlink:href="#mb852409313" y="288.485696"/>
     <use style="fill:#0000ff;stroke:#0000ff;" x="222.632727" xlink:href="#mb852409313" y="289.001683"/>
     <use style="fill:#0000ff;stroke:#0000ff;" x="229.396364" xlink:href="#mb852409313" y="289.474727"/>
     <use style="fill:#0000ff;stroke:#0000ff;" x="236.16" xlink:href="#mb852409313" y="289.909983"/>
     <use style="fill:#0000ff;stroke:#0000ff;" x="242.923636" xlink:href="#mb852409313" y="290.31181"/>
     <use style="fill:#0000ff;stroke:#0000ff;" x="249.687273" xlink:href="#mb852409313" y="290.683923"/>
     <use style="fill:#0000ff;stroke:#0000ff;" x="256.450909" xlink:href="#mb852409313" y="291.029505"/>
     <use style="fill:#0000ff;stroke:#0000ff;" x="263.214545" xlink:href="#mb852409313" y="291.3513"/>
     <use style="fill:#0000ff;stroke:#0000ff;" x="269.978182" xlink:href="#mb852409313" y="291.651688"/>
     <use style="fill:#0000ff;stroke:#0000ff;" x="276.741818" xlink:href="#mb852409313" y="291.93274"/>
     <use style="fill:#0000ff;stroke:#0000ff;" x="283.505455" xlink:href="#mb852409313" y="292.196269"/>
     <use style="fill:#0000ff;stroke:#0000ff;" x="290.269091" xlink:href="#mb852409313" y="292.443866"/>
     <use style="fill:#0000ff;stroke:#0000ff;" x="297.032727" xlink:href="#mb852409313" y="292.676938"/>
     <use style="fill:#0000ff;stroke:#0000ff;" x="303.796364" xlink:href="#mb852409313" y="292.89673"/>
     <use style="fill:#0000ff;stroke:#0000ff;" x="310.56" xlink:href="#mb852409313" y="293.104347"/>
     <use style="fill:#0000ff;stroke:#0000ff;" x="317.323636" xlink:href="#mb852409313" y="293.300777"/>
     <use style="fill:#0000ff;stroke:#0000ff;" x="324.087273" xlink:href="#mb852409313" y="293.486903"/>
     <use style="fill:#0000ff;stroke:#0000ff;" x="330.850909" xlink:href="#mb852409313" y="293.663516"/>
     <use style="fill:#0000ff;stroke:#0000ff;" x="337.614545" xlink:href="#mb852409313" y="293.83133"/>
     <use style="fill:#0000ff;stroke:#0000ff;" x="344.378182" xlink:href="#mb852409313" y="293.990988"/>
     <use style="fill:#0000ff;stroke:#0000ff;" x="351.141818" xlink:href="#mb852409313" y="294.143072"/>
     <use style="fill:#0000ff;stroke:#0000ff;" x="357.905455" xlink:href="#mb852409313" y="294.288111"/>
     <use style="fill:#0000ff;stroke:#0000ff;" x="364.669091" xlink:href="#mb852409313" y="294.426584"/>
     <use style="fill:#0000ff;stroke:#0000ff;" x="371.432727" xlink:href="#mb852409313" y="294.558928"/>
     <use style="fill:#0000ff;stroke:#0000ff;" x="378.196364" xlink:href="#mb852409313" y="294.685539"/>
     <use style="fill:#0000ff;stroke:#0000ff;" x="384.96" xlink:href="#mb852409313" y="294.806845"/>
     <use style="fill:#0000ff;stroke:#0000ff;" x="391.723636" xlink:href="#mb852409313" y="294.922115"/>
     <use style="fill:#0000ff;stroke:#0000ff;" x="398.487273" xlink:href="#mb852409313" y="295.050191"/>
    </g>
   </g>
   <g id="line2d_13">
    <path clip-path="url(#pb0dfe12247)" d="M 73.832727 64.843811 
L 80.596364 174.807624 
L 87.36 216.971792 
L 94.123636 237.656744 
L 100.887273 250.214251 
L 107.650909 258.559414 
L 114.414545 264.54155 
L 121.178182 269.025104 
L 127.941818 272.534513 
L 134.705455 275.370909 
L 141.469091 277.638306 
L 148.232727 279.540432 
L 154.996364 281.149594 
L 161.76 282.524537 
L 168.523636 283.749428 
L 175.287273 284.808578 
L 182.050909 285.749424 
L 188.814545 286.536422 
L 195.578182 287.320737 
L 202.341818 287.962175 
L 209.105455 288.556064 
L 215.869091 289.076975 
L 222.632727 289.60943 
L 229.396364 290.066219 
L 236.16 290.482289 
L 242.923636 290.85332 
L 249.687273 291.20382 
L 256.450909 291.522084 
L 263.214545 291.847158 
L 269.978182 292.135684 
L 276.741818 292.396757 
L 283.505455 292.639239 
L 290.269091 292.890078 
L 297.032727 293.111695 
L 303.796364 293.298337 
L 310.56 293.49423 
L 317.323636 293.679735 
L 324.087273 293.857256 
L 330.850909 294.015291 
L 337.614545 294.172964 
L 344.378182 294.331469 
L 351.141818 294.469621 
L 357.905455 294.614361 
L 364.669091 294.759674 
L 371.432727 294.907325 
L 378.196364 295.048079 
L 384.96 295.191325 
L 391.723636 295.334491 
L 398.487273 295.488 
" style="fill:none;stroke:#008000;stroke-linecap:square;stroke-width:1.5;"/>
    <defs>
     <path d="M 0 3 
C 0.795609 3 1.55874 2.683901 2.12132 2.12132 
C 2.683901 1.55874 3 0.795609 3 0 
C 3 -0.795609 2.683901 -1.55874 2.12132 -2.12132 
C 1.55874 -2.683901 0.795609 -3 0 -3 
C -0.795609 -3 -1.55874 -2.683901 -2.12132 -2.12132 
C -2.683901 -1.55874 -3 -0.795609 -3 0 
C -3 0.795609 -2.683901 1.55874 -2.12132 2.12132 
C -1.55874 2.683901 -0.795609 3 0 3 
z
" id="mbe7fd8306d" style="stroke:#008000;"/>
    </defs>
    <g clip-path="url(#pb0dfe12247)">
     <use style="fill:#008000;stroke:#008000;" x="73.832727" xlink:href="#mbe7fd8306d" y="64.843811"/>
     <use style="fill:#008000;stroke:#008000;" x="80.596364" xlink:href="#mbe7fd8306d" y="174.807624"/>
     <use style="fill:#008000;stroke:#008000;" x="87.36" xlink:href="#mbe7fd8306d" y="216.971792"/>
     <use style="fill:#008000;stroke:#008000;" x="94.123636" xlink:href="#mbe7fd8306d" y="237.656744"/>
     <use style="fill:#008000;stroke:#008000;" x="100.887273" xlink:href="#mbe7fd8306d" y="250.214251"/>
     <use style="fill:#008000;stroke:#008000;" x="107.650909" xlink:href="#mbe7fd8306d" y="258.559414"/>
     <use style="fill:#008000;stroke:#008000;" x="114.414545" xlink:href="#mbe7fd8306d" y="264.54155"/>
     <use style="fill:#008000;stroke:#008000;" x="121.178182" xlink:href="#mbe7fd8306d" y="269.025104"/>
     <use style="fill:#008000;stroke:#008000;" x="127.941818" xlink:href="#mbe7fd8306d" y="272.534513"/>
     <use style="fill:#008000;stroke:#008000;" x="134.705455" xlink:href="#mbe7fd8306d" y="275.370909"/>
     <use style="fill:#008000;stroke:#008000;" x="141.469091" xlink:href="#mbe7fd8306d" y="277.638306"/>
     <use style="fill:#008000;stroke:#008000;" x="148.232727" xlink:href="#mbe7fd8306d" y="279.540432"/>
     <use style="fill:#008000;stroke:#008000;" x="154.996364" xlink:href="#mbe7fd8306d" y="281.149594"/>
     <use style="fill:#008000;stroke:#008000;" x="161.76" xlink:href="#mbe7fd8306d" y="282.524537"/>
     <use style="fill:#008000;stroke:#008000;" x="168.523636" xlink:href="#mbe7fd8306d" y="283.749428"/>
     <use style="fill:#008000;stroke:#008000;" x="175.287273" xlink:href="#mbe7fd8306d" y="284.808578"/>
     <use style="fill:#008000;stroke:#008000;" x="182.050909" xlink:href="#mbe7fd8306d" y="285.749424"/>
     <use style="fill:#008000;stroke:#008000;" x="188.814545" xlink:href="#mbe7fd8306d" y="286.536422"/>
     <use style="fill:#008000;stroke:#008000;" x="195.578182" xlink:href="#mbe7fd8306d" y="287.320737"/>
     <use style="fill:#008000;stroke:#008000;" x="202.341818" xlink:href="#mbe7fd8306d" y="287.962175"/>
     <use style="fill:#008000;stroke:#008000;" x="209.105455" xlink:href="#mbe7fd8306d" y="288.556064"/>
     <use style="fill:#008000;stroke:#008000;" x="215.869091" xlink:href="#mbe7fd8306d" y="289.076975"/>
     <use style="fill:#008000;stroke:#008000;" x="222.632727" xlink:href="#mbe7fd8306d" y="289.60943"/>
     <use style="fill:#008000;stroke:#008000;" x="229.396364" xlink:href="#mbe7fd8306d" y="290.066219"/>
     <use style="fill:#008000;stroke:#008000;" x="236.16" xlink:href="#mbe7fd8306d" y="290.482289"/>
     <use style="fill:#008000;stroke:#008000;" x="242.923636" xlink:href="#mbe7fd8306d" y="290.85332"/>
     <use style="fill:#008000;stroke:#008000;" x="249.687273" xlink:href="#mbe7fd8306d" y="291.20382"/>
     <use style="fill:#008000;stroke:#008000;" x="256.450909" xlink:href="#mbe7fd8306d" y="291.522084"/>
     <use style="fill:#008000;stroke:#008000;" x="263.214545" xlink:href="#mbe7fd8306d" y="291.847158"/>
     <use style="fill:#008000;stroke:#008000;" x="269.978182" xlink:href="#mbe7fd8306d" y="292.135684"/>
     <use style="fill:#008000;stroke:#008000;" x="276.741818" xlink:href="#mbe7fd8306d" y="292.396757"/>
     <use style="fill:#008000;stroke:#008000;" x="283.505455" xlink:href="#mbe7fd8306d" y="292.639239"/>
     <use style="fill:#008000;stroke:#008000;" x="290.269091" xlink:href="#mbe7fd8306d" y="292.890078"/>
     <use style="fill:#008000;stroke:#008000;" x="297.032727" xlink:href="#mbe7fd8306d" y="293.111695"/>
     <use style="fill:#008000;stroke:#008000;" x="303.796364" xlink:href="#mbe7fd8306d" y="293.298337"/>
     <use style="fill:#008000;stroke:#008000;" x="310.56" xlink:href="#mbe7fd8306d" y="293.49423"/>
     <use style="fill:#008000;stroke:#008000;" x="317.323636" xlink:href="#mbe7fd8306d" y="293.679735"/>
     <use style="fill:#008000;stroke:#008000;" x="324.087273" xlink:href="#mbe7fd8306d" y="293.857256"/>
     <use style="fill:#008000;stroke:#008000;" x="330.850909" xlink:href="#mbe7fd8306d" y="294.015291"/>
     <use style="fill:#008000;stroke:#008000;" x="337.614545" xlink:href="#mbe7fd8306d" y="294.172964"/>
     <use style="fill:#008000;stroke:#008000;" x="344.378182" xlink:href="#mbe7fd8306d" y="294.331469"/>
     <use style="fill:#008000;stroke:#008000;" x="351.141818" xlink:href="#mbe7fd8306d" y="294.469621"/>
     <use style="fill:#008000;stroke:#008000;" x="357.905455" xlink:href="#mbe7fd8306d" y="294.614361"/>
     <use style="fill:#008000;stroke:#008000;" x="364.669091" xlink:href="#mbe7fd8306d" y="294.759674"/>
     <use style="fill:#008000;stroke:#008000;" x="371.432727" xlink:href="#mbe7fd8306d" y="294.907325"/>
     <use style="fill:#008000;stroke:#008000;" x="378.196364" xlink:href="#mbe7fd8306d" y="295.048079"/>
     <use style="fill:#008000;stroke:#008000;" x="384.96" xlink:href="#mbe7fd8306d" y="295.191325"/>
     <use style="fill:#008000;stroke:#008000;" x="391.723636" xlink:href="#mbe7fd8306d" y="295.334491"/>
     <use style="fill:#008000;stroke:#008000;" x="398.487273" xlink:href="#mbe7fd8306d" y="295.488"/>
    </g>
   </g>
   <g id="patch_3">
    <path d="M 57.6 307.584 
L 57.6 41.472 
" style="fill:none;stroke:#000000;stroke-linecap:square;stroke-linejoin:miter;stroke-width:0.8;"/>
   </g>
   <g id="patch_4">
    <path d="M 414.72 307.584 
L 414.72 41.472 
" style="fill:none;stroke:#000000;stroke-linecap:square;stroke-linejoin:miter;stroke-width:0.8;"/>
   </g>
   <g id="patch_5">
    <path d="M 57.6 307.584 
L 414.72 307.584 
" style="fill:none;stroke:#000000;stroke-linecap:square;stroke-linejoin:miter;stroke-width:0.8;"/>
   </g>
   <g id="patch_6">
    <path d="M 57.6 41.472 
L 414.72 41.472 
" style="fill:none;stroke:#000000;stroke-linecap:square;stroke-linejoin:miter;stroke-width:0.8;"/>
   </g>
  </g>
 </g>
 <defs>
  <clipPath id="pb0dfe12247">
   <rect height="266.112" width="357.12" x="57.6" y="41.472"/>
  </clipPath>
 </defs>
</svg>
